<?xml version="1.0" standalone="no"?>
<!DOCTYPE svg PUBLIC "-//W3C//DTD SVG 1.1//EN" "http://www.w3.org/Graphics/SVG/1.1/DTD/svg11.dtd" >
<svg xmlns="http://www.w3.org/2000/svg">
<metadata></metadata>
<defs>
<font id="respective_2.0_swashesregular" horiz-adv-x="1820" >
<font-face units-per-em="2048" ascent="1536" descent="-512" />
<missing-glyph horiz-adv-x="245" />
<glyph horiz-adv-x="2048" />
<glyph horiz-adv-x="2048" />
<glyph unicode="&#xd;" horiz-adv-x="245" />
<glyph unicode=" "  horiz-adv-x="245" />
<glyph unicode="&#x09;" horiz-adv-x="245" />
<glyph unicode="&#xa0;" horiz-adv-x="245" />
<glyph unicode="!" horiz-adv-x="191" d="M-43 238q4 14 15.5 24.5t25.5 10.5q13 0 19.5 -10t3.5 -25q-4 -14 -15.5 -24.5t-25.5 -10.5q-13 0 -20 10.5t-3 24.5zM67 533q36 132 61.5 241.5t46.5 188t40 122.5t44 44q16 0 17 -20t-10.5 -58t-32 -91t-46 -119t-53 -144t-51.5 -164h-16z" />
<glyph unicode="&#x22;" horiz-adv-x="131" d="M18 632l30 150h45l-63 -150h-12zM82 632l29 150h45l-62 -150h-12z" />
<glyph unicode="#" horiz-adv-x="287" d="M-13 253l46 179h-42v12h44l40 156h-36v12h40l37 144h13l-37 -144h144l38 144h13l-38 -144h52v-12h-54l-41 -156h46v-12h-49l-46 -179h-13l46 179h-144l-46 -179h-13zM48 444h145l40 156h-144z" />
<glyph unicode="$" horiz-adv-x="725" d="M16 747.5q1 38.5 18.5 70.5t50 54t78.5 22q32 0 60.5 -6.5t57.5 -16.5t59.5 -21t65.5 -20q-1 39 9.5 72t30.5 56.5t49.5 36.5t68.5 13h11.5h11.5l28 82h8l-30 -83q5 -2 10 -2.5t9 -1.5l30 87h8l-32 -89q30 -10 49 -28.5t26 -41t2 -46t-22.5 -43t-45.5 -31.5t-68 -12h-11 l-54 -156q16 -28 36 -56q37 -50 60 -109t27 -118q16 11 33.5 33t37.5 57l4 -3q-21 -35 -40 -57.5t-35 -33.5q2 -52 -12 -99t-48 -83t-91.5 -57t-141.5 -21h-20l-47 -134h-7l47 135q-4 1 -9 0.5t-9 0.5l-49 -136h-7l48 137q-81 11 -133.5 50t-78.5 92t-27.5 111.5t21 108 t65.5 81.5t107 32q39 0 67.5 -10.5t47.5 -28t28.5 -40t10.5 -44.5q4 -1 13 -5l67 194q-25 47 -38 92t-15 86q-36 10 -64.5 22.5t-56.5 23t-57.5 18t-65.5 7.5q-43 0 -72.5 -21t-44.5 -52t-14.5 -67t16.5 -67.5t48 -52t81 -20.5q32 0 56 13.5t38 33t19.5 43.5t0.5 43.5 t-20 33t-41 13.5l-1 2q29 0 47 -14t24.5 -35t2 -45.5t-20.5 -46t-43 -35.5t-64 -14q-56 0 -91 22t-51.5 54t-15.5 70.5zM58 353.5q1 -56.5 24.5 -107t71 -88.5t120.5 -49l116 333q-2 1 -5 1.5t-6 1.5q0 -22 -7.5 -43.5t-23 -38t-37 -26.5t-49.5 -10q-39 0 -56.5 20 t-10.5 44.5t40.5 44.5t96.5 20q20 0 35 -3q-1 21 -9 41t-25.5 36t-43.5 26t-62 10q-55 0 -93.5 -30.5t-57.5 -78t-18 -104zM210.5 395q-6.5 -21 7.5 -38.5t44 -17.5q25 0 43.5 9t32 24t21 35t8.5 40q-9 2 -17 3t-17 1q-57 0 -86.5 -17.5t-36 -38.5zM281 108l20 -2l113 326 l-18 7zM308 106h16q61 0 107.5 18t78.5 49t48.5 73.5t18.5 91.5q-20 -2 -38 7t-36.5 23.5t-39 30.5t-44.5 29zM398 445l17 -8l60 172l-12 23zM421 434q25 -12 45.5 -28t38.5 -30.5t35.5 -23.5t36.5 -8q0 55 -19.5 113.5t-58.5 115.5q-5 7 -10 14.5t-9 14.5zM431 824 q20 -4 41.5 -7.5t45.5 -5.5l65 189q-4 1 -9 1.5t-10 0.5q-41 0 -68 -14t-43 -37.5t-21 -56.5t-1 -70zM433 811q10 -62 40 -129l41 118q-24 2 -43.5 4.5t-37.5 6.5zM478 674l12 -23l51 148q-5 0 -10 0.5t-9 0.5zM525 811l20 -1l64 185q-4 2 -9 2.5t-9 1.5zM552 810h6 q52 0 82 23.5t37 54t-8.5 61t-53.5 44.5z" />
<glyph unicode="%" horiz-adv-x="558" d="M-48 144l621 727l13 -2l-621 -727zM74.5 674q4.5 33 23 68.5t44 64.5t56.5 46.5t60 12.5q37 -6 51.5 -30.5t12 -57.5t-20.5 -69t-44.5 -65t-60 -45.5t-67.5 -11.5q-35 6 -47 30t-7.5 57zM106.5 675.5q-4.5 -30.5 3 -52.5t27.5 -25q28 -5 54 12t48 44.5t36.5 61t19 64 t-3.5 52.5t-31 26q-29 5 -55 -12t-46.5 -44.5t-34 -61.5t-18 -64.5zM218 244.5q5 32.5 23.5 68.5t44.5 65t57 46.5t60 12.5q28 -5 42.5 -20.5t19 -37t-0.5 -47.5t-18 -52.5t-31.5 -50t-41.5 -41t-48.5 -26t-51.5 -4.5q-35 6 -47.5 30t-7.5 56.5zM251.5 245.5 q-4.5 -30.5 2.5 -52t27 -24.5q28 -5 54.5 11.5t48.5 43.5t36.5 61t19 64.5t-3.5 52.5t-31 26q-29 5 -55 -11.5t-46.5 -44t-34 -62t-18 -65z" />
<glyph unicode="&#x26;" horiz-adv-x="824" d="M-42 876.5q-4 41.5 11 80.5t51 73.5t96 59.5q50 20 92 22t80 -7q11 45 38.5 88t71 76.5t103.5 53.5t139 20q73 0 125.5 -18t86 -46t48 -64t12.5 -73.5t-20.5 -72t-51.5 -61.5t-81 -41.5t-109 -11.5q-52 3 -92 16.5t-75 30.5t-65.5 36.5t-62.5 33.5q-5 -44 3 -86t30.5 -75 t58.5 -53t87 -20l3 -7q-66 0 -121.5 -11t-101 -31t-83 -47.5t-66.5 -60.5q36 -11 77 -8.5t86 22.5q41 18 73 47.5t39 67.5l2 -1q-2 -12 -8 -28.5t-19 -33.5t-33.5 -34t-49.5 -31q-48 -23 -93.5 -27t-87.5 7q-40 -52 -62.5 -111t-29 -118t2 -113.5t29 -96.5t53 -67.5 t74.5 -25.5q66 -1 117.5 20.5t90 57t64 81t38.5 93t14 93.5t-10.5 83t-34 60t-56.5 26q-11 -2 -18 -6t-11 -8q-5 -4 -7 -9l-8 7q25 27 58 42q29 12 72.5 13.5t101.5 -24.5q57 -27 96 -30.5t63 3.5q27 8 43 26l10 -3q-22 -31 -56 -48q-15 -7 -34 -12t-42 -6t-51 4.5t-60 18.5 q-30 12 -53 18.5t-42 10.5q30 -25 48.5 -73.5t19.5 -107t-17.5 -120t-60.5 -111.5t-110 -81.5t-167 -31.5q-67 0 -113.5 27t-74.5 72t-36.5 103t1 120.5t37.5 125t74 114.5q-41 19 -73 50t-50.5 69t-22.5 79.5zM1 893q3 -39 18 -75.5t42 -68t62 -50.5q59 60 141.5 97 t189.5 37q-51 0 -87.5 23t-58 60t-27.5 84t5 96q-34 7 -75 4t-93 -22q-44 -16 -71 -45t-38 -65t-8 -75zM356 1081q34 -16 68 -36.5t69 -37.5t74 -29.5t83 -12.5q59 0 105.5 27t74 67.5t34 88t-14.5 88.5t-71.5 68t-135.5 27q-65 0 -115 -21.5t-86 -57t-57.5 -80.5t-27.5 -91 z" />
<glyph unicode="'" horiz-adv-x="0" d="M-26 632l29 150h45l-62 -150h-12z" />
<glyph unicode="(" horiz-adv-x="229" d="M13.5 395q-3.5 49 1 103.5t19.5 113.5q16 59 40.5 110.5t55 96t63.5 82t65 66.5q75 70 161 121l-7 -13q-71 -55 -136 -128q-28 -31 -56.5 -69t-55.5 -83t-50 -95.5t-39 -107.5t-22.5 -108.5t-5.5 -98t7.5 -86.5t16.5 -73q22 -78 62 -139l-8 -14q-48 67 -77 151 q-12 35 -21.5 78.5t-13 92.5z" />
<glyph unicode=")" horiz-adv-x="268" d="M-150 77l8 13q71 55 136 128q28 31 56.5 69t55.5 82.5t50 95.5t39 108t22.5 108.5t5 97.5t-8 86t-16.5 74q-22 78 -61 139l8 13q48 -68 76 -151q12 -36 21.5 -79t13 -91.5t-0.5 -103t-20 -113.5t-40.5 -111t-54.5 -96.5t-63.5 -82t-65.5 -66.5q-75 -70 -161 -120z" />
<glyph unicode="*" horiz-adv-x="144" d="M20 634v12h43l-22 39l11 6l20 -37l21 36l10 -6l-23 -38h44v-12h-41l19 -34l-10 -6l-20 37l-21 -36l-11 5l21 34h-41z" />
<glyph unicode="+" horiz-adv-x="228" d="M20 512v11h90v91h11v-91h91v-11h-91v-90h-11v90h-90z" />
<glyph unicode="," horiz-adv-x="99" d="M-41 237q24 21 36 47t17 47q-12 0 -19 10t-4 24q4 15 16 25t25 10t20 -10.5t3 -24.5q-5 -29 -19 -53t-30 -43q-18 -21 -39 -40q0 -1 -2.5 2.5t-3.5 5.5z" />
<glyph unicode="-" horiz-adv-x="228" d="M20 512v11h192v-11h-192z" />
<glyph unicode="." horiz-adv-x="115" d="M-11 365q4 15 16 25t25 10t20 -10.5t3 -24.5q-4 -15 -15.5 -24.5t-24.5 -9.5t-20 10t-4 24z" />
<glyph unicode="/" horiz-adv-x="340" d="M-90 125l464 812h13l-464 -812h-13z" />
<glyph unicode="0" horiz-adv-x="413" d="M2 499q2 48 16 98.5t38.5 98.5t57 85t70 60t78.5 23q52 0 84 -23t48 -60t16 -85t-13 -98.5t-38 -98.5t-59 -85t-77 -60t-91 -23t-77.5 23t-42 60t-10.5 85zM61 509q0 -45 9 -80t27.5 -56.5t46.5 -21.5q39 0 72 21.5t59 56.5t45.5 80t29.5 91.5t11 91t-9 80t-30.5 57 t-53.5 21.5q-40 0 -73 -21.5t-58 -57t-42 -80t-25.5 -91t-8.5 -91.5z" />
<glyph unicode="1" horiz-adv-x="371" d="M-5 327v11h113l106 312q-31 -40 -57 -59.5t-45 -28.5q-21 -10 -39 -9l1 16q20 0 40 9t39.5 24.5t37.5 36.5t34 44v2l93 165l1 2l5 10h23l-178 -524h100v-11h-274z" />
<glyph unicode="2" horiz-adv-x="445" d="M-26 338q49 6 98 30t94.5 60.5t84.5 81.5t68.5 91.5t46.5 90.5t18.5 78t-15 54.5t-54.5 20.5q-59 0 -102.5 -26t-67.5 -61.5t-24.5 -73.5t26.5 -62q7 10 18 10q9 0 16 -7t7 -16t-7 -15.5t-16 -6.5q-7 0 -11 2q-30 11 -42.5 36t-9.5 55.5t21 62.5t49 58.5t74.5 43.5 t96.5 17q54 0 81 -29t27.5 -74.5t-25.5 -103t-77.5 -115.5t-128.5 -111.5t-179 -90.5q53 0 84.5 -14t51 -36t32.5 -47t30 -46.5t43.5 -36t72.5 -14.5v-8q-53 0 -88 8t-58 21.5t-37.5 31t-26 35.5t-23 35t-30 30.5t-46.5 22t-71 8.5z" />
<glyph unicode="3" horiz-adv-x="435" d="M-129.5 263q-0.5 25 5.5 42q1 -1 3 -0.5t4 0.5h5q-10 -39 2 -70q5 -13 15.5 -25.5t28.5 -22.5t44 -16t64 -6q35 0 68 15.5t62 39.5t50.5 55.5t34 64.5t13 64t-14 55.5t-45.5 39.5t-81 15v2v2v2q-1 2 -2 6q74 0 125.5 23.5t83.5 60t44 77.5t7 77t-27 60t-58 24 q-41 0 -76 -13t-62 -33t-44.5 -45.5t-23.5 -51t0 -48.5t28 -38q6 11 19 12q9 0 15.5 -7t6.5 -16t-6.5 -16t-15.5 -7t-15 6q-34 20 -46 48t-5 58t28.5 60t55 53.5t76 38t89.5 14.5q48 0 75 -25t36 -63t0 -82t-35 -82t-67.5 -63t-96.5 -25q43 0 64.5 -27.5t23 -68.5t-16 -88.5 t-53.5 -88.5t-90 -68.5t-124 -27.5q-65 0 -101.5 17.5t-53 42t-17 49.5z" />
<glyph unicode="4" horiz-adv-x="418" d="M-77 328l4 22q54 19 103 49.5t93 68t83 80t71.5 84t58 80t44.5 70.5l44 80h22l-178 -515h77v-19h-83l-67 -192h-61l68 192h-279zM6 347h201l109 310q-53 -77 -108 -134.5t-100 -96.5q-52 -46 -102 -79z" />
<glyph unicode="5" horiz-adv-x="444" d="M-83 215l9 5q11 -22 33 -38q18 -14 48 -26t74 -12q43 0 84.5 20.5t76.5 54t62 76.5t41.5 88t15.5 88t-16 76.5t-54 54t-98 20.5q-31 0 -56 -6.5t-44 -14.5q-21 -9 -38 -20l93 279h322v-15h-268l-68 -215q102 11 172 -11q29 -9 55 -26t41.5 -45.5t16.5 -70.5t-18 -99 q-28 -81 -71 -132t-92.5 -77.5t-101.5 -33t-96.5 2.5t-77 30t-45.5 47z" />
<glyph unicode="6" horiz-adv-x="425" d="M8 502.5q3 48.5 17 98.5q25 103 59.5 181.5t75 136t84.5 97t87 65t82.5 39t72 19.5t54.5 7t29 1l-3 -12q-68 -2 -138 -34q-29 -14 -62 -36.5t-67.5 -56t-69 -79.5t-66.5 -107q24 19 50 30.5t55 11.5q52 0 84 -23t47.5 -60t15.5 -85t-12.5 -98.5t-37 -98.5t-59 -85 t-77 -60t-91.5 -23t-78.5 23.5t-42 61.5t-9.5 86.5zM66.5 512.5q-0.5 -45.5 8.5 -81t27.5 -58t47.5 -22.5q39 0 72 21.5t59 56.5t45.5 80t29 91.5t11 91t-8.5 80t-31 57t-53 21.5q-48 0 -85 -29.5t-63 -74.5q-26 -62 -50 -141q-9 -47 -9.5 -92.5z" />
<glyph unicode="7" horiz-adv-x="462" d="M-67 144l252 289h-121v12h131l292 336q-23 -13 -55 -17q-29 -3 -72.5 1.5t-103.5 27.5q-61 22 -103 22t-68 -8q-31 -10 -50 -30l-12 6q20 34 57 54q16 8 36.5 14t46.5 7t57.5 -5t70.5 -21q38 -15 69 -23t56 -10.5t44 -0.5t33 6q33 9 49 31l13 -15l-332 -375h115v-12h-126 l-255 -289h-24z" />
<glyph unicode="8" horiz-adv-x="482" d="M-67.5 264q-2.5 33 7 68.5t29.5 69.5t46 62t57 46t63 21q-21 8 -31.5 36.5t-8.5 64.5t18.5 77t49.5 75t82.5 56t119.5 22q52 0 79.5 -25.5t35 -63.5t-3.5 -82.5t-36.5 -82.5t-64.5 -63.5t-87 -25.5q29 0 48 -27.5t23 -68.5t-8 -89.5t-43 -90t-82.5 -69t-126.5 -27.5 q-57 0 -92.5 16t-53.5 42t-20.5 59zM-17 252q5 -40 31.5 -66t80.5 -26q53 0 94.5 26t68.5 66t39.5 86t8 86t-27 66t-64.5 26q-53 0 -98 -26t-76 -66t-46.5 -86t-10.5 -86zM148 620q4 -35 27.5 -58.5t71.5 -23.5t83.5 23.5t60 58.5t35 75.5t6.5 75t-23.5 58t-56.5 23.5 q-47 0 -86 -23.5t-67 -58t-41.5 -75t-9.5 -75.5z" />
<glyph unicode="9" horiz-adv-x="416" d="M-152 48l4 13q68 2 137 34q29 14 62.5 36.5t68 55.5t69 79t66.5 107q-24 -19 -50.5 -30t-54.5 -11q-52 0 -84 23t-48 60t-16 85t13 98.5t37.5 98.5t59 85t77 60t90.5 23q49 0 78.5 -23.5t42.5 -61.5t10 -86.5t-18 -99.5q-25 -103 -59.5 -181.5t-75 -136t-84.5 -97 t-87 -65t-82.5 -39t-71.5 -19.5t-54 -7t-30 -1zM51 503.5q-1 -44.5 9 -80t30.5 -56.5t53.5 -21q48 0 84.5 28.5t63.5 75.5q14 32 26.5 67.5t23.5 74.5q9 47 9 92.5t-9 81t-27.5 57.5t-46.5 22q-39 0 -72 -21.5t-59 -56.5t-45.5 -80t-29.5 -92t-11 -91.5z" />
<glyph unicode=":" horiz-adv-x="133" d="M-6 395q4 15 16 24.5t25 9.5t20 -10t3 -24q-4 -15 -15.5 -25t-24.5 -10t-20 10.5t-4 24.5zM58 591q4 15 16 25t25 10t20 -10.5t3 -24.5q-4 -15 -15.5 -24.5t-24.5 -9.5t-20 10.5t-4 23.5z" />
<glyph unicode=";" horiz-adv-x="99" d="M-36 266q24 21 36 47t17 47q-12 0 -19 10.5t-4 24.5q4 15 16 24.5t25 9.5t20 -10t3 -24q-5 -29 -19 -53.5t-30 -43.5q-18 -21 -39 -40q0 -1 -2.5 3t-3.5 5zM58 591q4 15 16 25t25 10t20 -10.5t3 -24.5q-4 -15 -15.5 -24.5t-24.5 -9.5t-20 10.5t-4 23.5z" />
<glyph unicode="&#x3c;" horiz-adv-x="224" d="M0 533l256 162l-5 -20l-225 -145l100 -151l-8 -27z" />
<glyph unicode="=" horiz-adv-x="228" d="M20 487v12h192v-12h-192zM20 537v11h192v-11h-192z" />
<glyph unicode="&#x3e;" horiz-adv-x="224" d="M0 352l4 20l225 145l-100 151l9 27l118 -181z" />
<glyph unicode="?" horiz-adv-x="385" d="M-43 240q4 15 15.5 24.5t25.5 9.5q13 0 20 -10t3 -24q-4 -15 -15.5 -24.5t-25.5 -9.5q-13 0 -20 10t-3 24zM34 445q6 34 20.5 74.5t37.5 81t54.5 79t70.5 66.5q61 44 107.5 95.5t75 102t38 97t-2 82.5t-45 57.5t-91.5 21.5q-75 0 -125.5 -23t-79 -58t-37.5 -76t1 -77 t37 -61t70 -28q2 7 8 12t14 5q9 0 16 -7t7 -16t-6.5 -15t-15.5 -8h-5q-50 2 -83.5 29.5t-48.5 67.5t-9 86.5t35.5 86t85 66t138.5 26.5q79 0 124 -25t61 -65.5t5.5 -93t-44 -106.5t-87.5 -106.5t-125 -92.5q-43 -25 -75.5 -60t-56.5 -74t-38 -77t-19 -67q-2 0 -5 1h-3.5 t-3.5 -1z" />
<glyph unicode="@" horiz-adv-x="475" d="M0 378q1 54 14 109.5t38 109t60.5 95.5t81.5 68t100 26q49 0 76.5 -16t40 -42t11 -59.5t-9.5 -68.5q-21 -81 -79 -184q-20 -26 -40.5 -47t-36.5 -23q-11 -2 -19 1.5t-11.5 13.5t-3 28t6.5 46q16 29 28 63q16 47 17 81q7 16 13 34.5t14 37.5h60q-26 -67 -45 -122 l-15.5 -46.5t-12.5 -42.5t-6.5 -34t1.5 -19q5 -8 18 4.5t29 33.5q52 99 70 177q7 33 8.5 65t-10 57t-36 40t-68.5 15q-49 0 -91 -25t-76.5 -65.5t-59.5 -92.5t-39 -106t-16 -106t10 -92.5t39 -65.5t70 -25q34 0 64 9t55.5 23.5t46.5 33.5t37 39q39 46 65 104h9 q-28 -62 -68 -110q-17 -21 -39 -41t-49 -35.5t-58.5 -25t-68.5 -9.5q-43 0 -71 26t-41.5 67.5t-12.5 95.5zM91.5 390q3.5 -21 13 -32.5t24.5 -11.5q23 0 50 24.5t50 64.5l5 24q-19 -39 -41 -64.5t-36 -25.5q-9 0 -11.5 10t-0.5 27.5t8 41t15 50.5t19 51t21 41.5t20.5 27.5 t18.5 10q11 0 16.5 -20.5t1.5 -53.5q2 7 4.5 13t4.5 12q2 33 -8.5 52.5t-30.5 19.5q-16 0 -33.5 -11.5t-35 -32.5t-33 -49t-26.5 -60t-15 -59.5t-0.5 -48.5zM234 459q6 19 13.5 42.5t17.5 52.5q-2 -12 -5.5 -26t-8.5 -30q-7 -21 -17 -39z" />
<glyph unicode="A" d="M175 1036q-8 10 -8 18q1 11 13 20q19 13 65 13h18q100 -6 180.5 -31t147.5 -65q59 11 120 27.5t125 30.5t133 22q50 6 104 5h41q60 -3 105.5 -25.5t76.5 -56t48.5 -75.5t21.5 -85q1 -12 0 -24q0 -31 -6 -60q-9 -41 -31 -72q-22 -30 -57 -48q-31 -16 -72 -16h-10 q-43 2 -70 21t-44 40q-19 25 -27 56l2 -2q10 -29 29 -52q16 -20 42 -37t66 -19h10q39 1 67 15q32 16 51 46q20 29 26 68q4 22 3 45q0 17 -2 35q-5 41 -22.5 81t-46 72.5t-68 53.5t-90.5 23q-31 1 -59 1q-49 0 -93 -4q-68 -7 -129.5 -19.5t-117.5 -27.5t-112 -26 q61 -38 113.5 -85t100 -98.5t91.5 -105t89 -104t93 -95.5t102.5 -79t119 -56t142.5 -26q10 -1 20 -1q47 0 82 12q43 14 71 41t43 61q14 36 15 72v6q0 33 -10 66q-11 36 -33 65t-55 47.5t-74 20.5q-35 2 -58 -7.5t-36.5 -25.5t-16.5 -35.5t0.5 -36t14 -28t24.5 -12.5v-3 q-16 1 -27.5 13.5t-16.5 31t-1 39.5t17 38t37.5 27.5t62.5 9.5q41 -2 76.5 -21.5t63 -50t44 -68.5t19.5 -76q1 -8 1 -16q0 -30 -10 -60q-12 -36 -43.5 -63.5t-83.5 -42.5q-41 -12 -96 -12q-15 0 -31 1q-84 4 -154.5 26.5t-131 57.5t-113 80t-100 95.5t-92.5 104t-91.5 105 t-96.5 98t-107 83.5q-38 -7 -77 -9q-20 -1 -40 -1t-42 1q-101 5 -159 25.5t-76 42.5zM201 1055q-2 -3 -2 -7q1 -8 7 -16q10 -12 34.5 -23.5t67 -20.5t104.5 -12q16 -1 33 -1q19 -1 39 1q36 2 73 9q-61 38 -131.5 62t-156.5 29h-13q-20 0 -32 -4q-18 -6 -23 -17z" />
<glyph unicode="B" d="M114 584q-4 16 -4 32q0 22 7 44q12 40 48 80.5t102 77.5q74 41 145.5 59t141.5 20h22q58 -1 115 -9q68 -10 135.5 -27.5t133.5 -39t133 -40t134 -32t135 -14.5q29 26 60.5 49t70.5 44q89 48 149 62q36 8 60 9q16 0 26 -4q19 -6 19 -21q-1 -6 -3 -14q-10 -26 -64 -55 q-88 -49 -169 -70t-160 -23q-43 -41 -86.5 -87t-90.5 -91.5t-101 -89t-120 -79.5q-53 -29 -103 -35q-16 -2 -32 -2q-32 0 -62 8q-44 12 -81.5 38.5t-63 61t-39.5 74.5q-12 34 -11 67v10q2 38 22 71t61 56q37 20 69 20h2q33 0 58 -11q29 -11 53 -32h-4q-25 20 -52 29 q-24 9 -55 9t-65 -19q-39 -22 -58 -53t-19 -66.5t14.5 -71.5t41 -68t62.5 -57t77 -37q33 -10 68 -10q9 0 18 1q45 3 89 28q73 40 128 82.5t100 85.5t84 86t81 82h-11q-67 0 -131 11q-70 12 -137 31t-132.5 40.5t-130 40.5t-128.5 31q-65 14 -130 14h-4q-63 0 -127 -16 q-66 -16 -134 -53q-52 -29 -81 -64q-28 -35 -38 -73q-6 -23 -6 -45q0 -15 2 -29q6 -36 24.5 -68t47 -56.5t62.5 -37.5q30 -12 64 -11q4 -1 8 -1q38 2 74 23q30 16 44.5 36.5t17 41t-4.5 38.5t-19 30.5t-27 16.5t-28 -3l-1 3q15 7 31 2.5t29.5 -17.5t22 -32t6 -41 t-17.5 -44.5t-48 -40.5q-37 -20 -77 -22h-12q-34 0 -67 9q-39 11 -73.5 34.5t-57.5 54.5t-32 69zM1377 735q72 0 145 17t148 59q36 19 44 41q2 6 2 11q0 13 -16 19q-10 3 -22 3q-20 0 -50 -7q-52 -12 -133 -57q-33 -19 -61.5 -40.5t-56.5 -45.5z" />
<glyph unicode="C" d="M83 1040l5 9q23 2 46 2q71 -1 144 -17q96 -22 191 -60.5t190 -90.5t186 -104q19 3 39 3q23 0 48 -4q17 -2 37.5 -11.5t38.5 -24.5t29.5 -34.5t10.5 -42.5q29 -15 56 -28.5t54 -25.5q17 45 33.5 91.5t36.5 88.5t44 79t58 63q46 37 93 51q38 12 74 12h17q44 -4 81.5 -22.5 t62.5 -48.5q25 -31 37 -69q7 -24 7 -49q0 -17 -2 -33q-8 -44 -37 -89.5t-84 -89.5q-45 -35 -94.5 -51.5t-102.5 -18.5h-15q-46 0 -95 10q-57 12 -116 34q-21 -52 -48 -96.5t-65.5 -76t-92.5 -44.5q-28 -7 -61 -7q-31 0 -67 6q-54 9 -89 36.5t-54 65.5t-21 82q0 7 -1 14 q-1 37 11 73q14 42 41 77.5t69 57.5q-88 50 -176.5 99t-176.5 89t-174 66t-168 29zM680 537q2 -42 19 -78.5t49.5 -62.5t81.5 -34q33 -5 61 -5q33 1 59 7q50 12 86 42.5t62 73.5t46 93q-28 11 -55 23t-56 26q-15 -23 -45 -48l-3 7q29 20 41 44q-57 27 -114.5 58t-116.5 64 q-39 -20 -65 -54t-38 -74q-11 -36 -12 -73v-9zM864 768q44 -25 86 -49t84 -46q-3 32 -30 58.5t-73 34.5q-18 2 -34.5 3t-32.5 -1zM1170 606q57 -25 112 -40q56 -16 106 -18h12q43 0 84 12q46 14 87 45q51 40 77 82t32 82q2 13 1 25q0 26 -8 50q-12 36 -37 63.5t-59.5 45 t-74.5 21.5q-10 1 -20 1q-31 1 -63 -9q-42 -12 -82 -44q-32 -25 -56 -61t-42.5 -78t-35 -87.5t-33.5 -89.5z" />
<glyph unicode="D" d="M254 872l11 10q76 -91 144.5 -141.5t130.5 -72.5q56 -19 109 -19q6 1 12 1q58 2 114 18.5t111.5 41t113.5 46.5q56 22 116 36q47 11 98 11h28q66 -4 112 -26.5t74 -56.5q28 -36 40 -78q9 -33 9 -65q-1 -11 -1 -21q-4 -44 -21 -84.5t-47.5 -71.5t-72.5 -49 q-34 -15 -76 -15q-9 0 -19 1q-37 2 -63.5 17t-41.5 37t-18.5 46t7.5 44q11 21 36 33q20 10 51 10q7 0 15 -1v-3q-34 2 -55.5 -9t-31.5 -29.5t-8.5 -40.5t15 -41.5t38 -33.5t61.5 -16q8 0 15 -1q40 0 72 14q38 16 64 45t41 67.5t17 78.5v13q0 33 -9 67q-11 40 -36 72t-63 53 t-91 24h-16q-45 1 -88 -13q-51 -16 -102 -41.5t-104.5 -53t-110.5 -45.5q-56 -18 -120 -20q-6 0 -13 -1q-58 0 -122 22q-71 24 -151.5 81.5t-173.5 159.5z" />
<glyph unicode="E" d="M65 640.5q0 53.5 26 98.5t77.5 75.5t128.5 30.5q58 0 107 -22.5t95.5 -59t91.5 -82t94 -93.5q70 43 140 93.5t140.5 99.5t141.5 93t143 75.5t145 46.5q46 9 92 10q28 0 55 -4q74 -9 150 -46.5t155 -110.5l-2 -6q-83 72 -160.5 107.5t-150.5 43.5q-24 3 -47 3 q-47 1 -95 -11q-70 -16 -138 -49.5t-134.5 -78.5t-134 -94.5t-136 -100t-140.5 -93.5q47 -43 100 -83.5t116.5 -71.5t139 -49.5t168.5 -18.5q84 0 146 31t98 77t46 100q3 19 3 36q0 35 -12 65q-19 46 -67 76.5t-128 30.5l-3 8q86 0 138 -33q54 -32 74 -80q14 -33 13 -71 q-1 -17 -3 -35q-10 -56 -48 -105t-103.5 -81.5t-156.5 -32.5q-93 0 -169.5 20t-141.5 52t-119 73t-102 86q-46 -27 -92.5 -50t-95.5 -39t-99.5 -25t-104.5 -9q-82 0 -135.5 30t-79.5 75t-26 98.5zM103 630q0 -46 22 -84q22 -40 67.5 -66t113.5 -26q47 0 93.5 9.5t92 26.5 t91 40.5t91.5 51.5q-47 43 -90.5 84.5t-88.5 73.5t-92.5 51.5t-101.5 19.5q-65 0 -109 -26.5t-66 -66.5q-23 -40 -23 -88z" />
<glyph unicode="F" d="M130 617v5q0 57 20 112q22 57 64 102t103 72.5t140 27.5q70 0 127.5 -12.5t106 -33.5t89 -49t75.5 -60t67 -66.5t62 -67.5q47 61 96.5 120.5t106 105t122.5 74t148 28.5q70 0 120 -16.5t83.5 -43t51.5 -61.5q18 -34 24 -70q3 -16 4 -32q0 -20 -4 -38q-6 -34 -22 -60.5 t-39 -43t-52 -16.5q-36 0 -58 10.5t-33 23.5q-14 15 -20 36l5 1q6 -18 20 -32q11 -12 31.5 -22t54.5 -10q36 0 61.5 27t35.5 67q5 21 5 44q-1 20 -5 42q-8 46 -38.5 86.5t-87 67t-141.5 26.5q-78 0 -141 -28t-117.5 -74t-102.5 -105t-95 -121q32 -34 65 -64t70 -53t79.5 -36 t94.5 -13l2 -4q-57 0 -103.5 11t-87.5 30t-75.5 44.5t-66.5 55.5q-44 -59 -91 -114.5t-99.5 -97.5t-114 -68t-134.5 -26q-105 0 -181 27.5t-126 72t-74 102t-25 117.5zM149 620q2 -58 25.5 -112.5t70.5 -97.5t118.5 -69t168.5 -26q72 0 131.5 25t110.5 67.5t97 97t90 112.5 q-35 34 -68.5 69.5t-68 70t-72.5 64.5t-82 53t-96.5 36.5t-115.5 13.5q-76 0 -134.5 -26t-97.5 -69t-59 -97q-18 -50 -18 -102v-10z" />
<glyph unicode="G" d="M130 624l12 11q2 2 3.5 4t3.5 4q-6 -4 -10.5 -9t-8.5 -10zM149 643q25 30 68.5 46t100.5 19q22 2 44 2q39 0 82 -4q69 -6 144.5 -19t154.5 -30t158.5 -36t155.5 -37t145 -32q64 42 121.5 77t104.5 49q24 7 44 7q19 0 34 -6q32 -13 46 -68q6 -28 6 -50q0 -34 -14 -55 q-24 -35 -79 -44q-24 -4 -52 -4q-37 0 -83 7q-81 12 -176 36q-53 -36 -107.5 -69.5t-108 -58t-104.5 -35.5q-31 -7 -59 -7q-20 0 -38 3q-29 5 -51 15.5t-40 24t-32 29.5t-24 31q-24 37 -35 80l5 3q11 -36 34 -68q20 -27 55.5 -53t93.5 -37q18 -3 37 -3q26 0 54 6 q47 9 96.5 30.5t100.5 51t101 62.5q-89 22 -186 50.5t-194 54.5t-189 46.5t-171 28.5q-38 4 -72 4q-37 0 -70 -5q-63 -9 -101 -42zM1224 547q75 -15 136 -21q34 -4 62 -4q23 0 42 2q43 6 62 26q12 14 12 36q0 12 -3 26q-11 45 -39 55q-13 4 -27 4q-20 0 -43 -7 q-42 -14 -93.5 -45.5t-108.5 -71.5z" />
<glyph unicode="H" d="M40 573.5q0 56.5 24.5 116t77.5 111.5q66 66 140 93.5t154 27.5q2 0 3 1q78 1 160 -21q84 -22 169.5 -56t170.5 -74.5t167.5 -77t161 -64t149.5 -35.5q22 -3 44 -3q47 0 91 12q64 18 116 70q62 62 84 120q15 42 15 78q-1 14 -3 27q-8 46 -42 77q-34 32 -80 41 q-16 3 -31 3q-33 0 -69 -12q-54 -18 -107 -70q-37 -37 -52 -69.5t-13.5 -58t17 -44.5t43.5 -29q-1 -1 -1.5 -1h-1.5l-2 -2q-40 17 -55 46q-7 12 -9.5 28t3.5 36.5t22 45.5t45 54q57 56 115 76q40 13 75 14q15 0 31 -3q48 -9 82 -42t42 -83q2 -12 2 -25q0 -41 -18 -89 q-24 -62 -93 -130q-61 -62 -137 -82q-52 -13 -108 -13q-26 0 -52 3q-84 9 -176.5 40.5t-186.5 72t-189.5 82.5t-186.5 73q21 -42 23 -92v-9q0 -46 -13 -93q-15 -52 -43.5 -102t-65 -91t-79.5 -70.5t-86 -38.5q-43 -10 -82 -10q-28 0 -54 6q-61 12 -103.5 45.5t-65 83.5 t-22.5 106.5zM52 568q2 -56 27 -104t67 -78q44 -32 102 -40q16 -2 33 -2q44 0 93 16q51 16 94 50t75 77.5t51.5 94t25.5 100.5q2 17 1 33q-1 31 -7 61q-10 46 -39 80q-61 18 -120 26q-36 5 -71 5q-22 0 -42 -2q-54 -5 -103 -26.5t-91 -63.5q-54 -53 -76 -113 q-21 -55 -20 -105v-9z" />
<glyph unicode="I" d="M-46 716q12 80 54 164.5t121 163.5q66 65 136 97t144 38q22 2 44 2q53 -1 107 -11q77 -14 155 -41.5t157 -64.5t157 -74q63 -30 124.5 -60.5t121 -54.5t116.5 -40.5t111 -21.5q19 -2 37 -2q35 1 67 7q50 10 98 37q-48 -14 -97 -14q-19 1 -39 3q-70 8 -142 30.5t-147.5 56 t-154.5 67.5q-71 30 -152 67t-164.5 70.5t-165.5 59t-158 33.5q-24 2 -47 2q-49 0 -93 -11q-65 -16 -113 -63l-1 4q53 53 120 75t142.5 22t157 -18.5t164 -48t164.5 -66t158 -71.5q91 -42 175 -81t161 -64.5t147 -31.5q15 -1 31 -2q54 0 103 18l16 15q60 60 83 123 q19 51 19 96q1 11 -1 21q-6 54 -36.5 93.5t-77.5 51.5q-18 5 -39 5q-33 1 -69 -11q-60 -20 -124 -83l-2 3q64 66 128 88q43 15 82 14q18 0 34 -2q52 -10 86 -48q36 -36 42 -92q1 -11 1 -23q0 -47 -22 -101q-27 -68 -97 -140q26 11 50.5 28t47.5 41q45 45 65 93q20 47 20 90 q1 46 -19 87q-18 40 -50 69.5t-74 45.5q-40 16 -84 16h-6q-48 -1 -97.5 -24t-98.5 -70l-2 4q49 49 102 73q53 23 103 27q10 1 19 1q40 1 76 -11q46 -14 80.5 -43.5t54 -69.5t19.5 -88t-24.5 -101t-78.5 -107q-67 -66 -139 -95q-55 -46 -111.5 -68t-114.5 -24q-10 0 -19 -1 q-49 1 -99 11q-60 12 -122 34.5t-125.5 52t-130.5 60.5q-80 38 -160.5 76.5t-159 69.5t-154.5 51q-71 18 -138 18h-10q-72 -2 -138 -28t-126 -86q-67 -67 -103 -144q-37 -77 -45 -153q-3 -26 -2 -51q0 -49 10 -95q16 -70 53 -123t91.5 -85t122 -32t146 37t162.5 122 q45 46 75.5 91t49 87t28 80.5t13.5 71t5.5 58.5t2.5 43h5q-1 -7 -0.5 -29t-2.5 -54t-11.5 -73t-28 -87.5t-52 -96t-81.5 -98.5q-87 -87 -169 -127t-154 -43h-13q-64 1 -118 27q-59 30 -98 82t-57 124q-11 44 -11 90q0 29 4 60z" />
<glyph unicode="J" d="M112 522q-1 17 -1 35q0 43 11 91q16 68 59 143q53 93 115.5 146.5t132.5 79.5t145 28h25q64 0 132 -9q81 -10 165 -29.5t169 -36.5q126 -25 235 -41t194.5 -16t144.5 19.5t86 65.5l2 -3q-37 -65 -104 -94.5t-154 -34.5q-23 -2 -48 -2q-67 0 -142 11q-103 15 -212 38 q-73 16 -153.5 34.5t-163 30.5t-164 12t-155.5 -20t-137 -65t-109 -123q-36 -63 -47 -122q-6 -34 -6 -65q0 -23 4 -45q8 -51 33.5 -91t62 -64.5t80.5 -30.5q13 -2 27 -2q31 0 64 10q47 15 93 55t86 109q31 54 42.5 106t12.5 94v19q0 38 -6 72l5 1q2 -11 6 -40q1 -16 1 -35 q0 -16 -1 -35q-3 -41 -15 -89.5t-40 -97.5q-47 -80 -98.5 -128t-102.5 -68q-40 -16 -78 -16q-10 0 -19 1q-47 5 -84 31t-61.5 70t-31.5 101z" />
<glyph unicode="K" d="M-35 498q-1 13 -1 26q0 58 26 125q32 82 112 163q65 65 135.5 96.5t144.5 37.5q22 2 45 2q51 0 105 -10q76 -15 155.5 -42.5t158 -64t157.5 -74.5q70 -34 138.5 -66.5t134.5 -58.5t128 -40q55 -13 107 -13q7 0 15 1q58 2 112 24.5t104 70.5q45 45 69 92q25 47 31 91 q3 18 2 35q0 25 -6 47q-10 38 -31 66t-54 44q-28 13 -62 14h-11q-40 -2 -86.5 -25t-94.5 -71l-4 6q65 66 129 88q44 15 81 15q19 1 35 -3q52 -10 86 -48t40 -94l2 -22q0 -47 -22 -103q-28 -69 -99 -140q-57 -57 -116 -85.5t-120 -35.5q-24 -3 -48 -3q-37 0 -75 7 q-62 11 -127.5 34t-132.5 53.5t-137 63.5q-80 37 -162 74.5t-162 66.5q-80 28 -158 46q-74 17 -142 17h-7q-72 -1 -136.5 -25t-118.5 -78q-52 -52 -77.5 -106t-30.5 -105q-1 -13 -1 -26q0 -35 10 -69q14 -44 43 -78t70 -52q35 -15 76 -15h14q49 3 104 29.5t111 82.5 q44 44 68.5 91.5t36.5 86.5q15 46 17 91l5 -1q-1 -11 -5 -40.5t-17 -68t-37.5 -82.5t-64.5 -84q-88 -88 -168 -118q-56 -21 -105 -21q-20 -1 -38 3q-64 12 -104 60.5t-47 117.5z" />
<glyph unicode="L" d="M-72 527q-5 29 -4 58q0 45 10 93q18 79 67.5 159.5t134.5 152.5q70 59 142 85q74 27 148 27q2 0 3 -1q73 0 146 -20q75 -21 151 -55t152 -77t151 -87q67 -39 132.5 -78t129 -69.5t125.5 -50.5t120 -23q9 0 17 -1q50 0 97 16q56 18 108 62q65 55 93 116q27 59 27 112 q0 58 -28 100q-26 42 -72 58q-25 9 -54 9q-26 -1 -54 -7q-62 -14 -131 -72l-2 3q52 44 102.5 64.5t94.5 21.5h5q41 0 75 -16q36 -17 57.5 -46.5t29.5 -69.5q3 -16 3 -34q0 -25 -6 -52q-12 -46 -44.5 -96t-90.5 -99q-62 -52 -123 -76t-122 -26h-10q-56 0 -112 16 q-62 16 -125 44t-127.5 64.5t-130.5 75.5q-76 43 -153.5 88t-153 82.5t-149.5 63.5q-75 26 -147 30q-13 1 -25 0q-59 0 -115 -16q-68 -20 -133 -75q-73 -61 -115 -135t-56 -149q-8 -44 -8 -86q0 -30 4 -60q10 -71 42 -127.5t84 -92.5q50 -36 118 -42q11 -1 23 -1 q59 0 127 26q82 31 172 108q49 42 82.5 84t55.5 82.5t35 78.5t19.5 70t9.5 58t6 43l5 -2q-1 -7 -2 -28.5t-6.5 -53t-18 -72t-35.5 -84.5t-59.5 -91t-89.5 -92q-92 -79 -178 -112q-79 -31 -147 -31h-11q-72 2 -127.5 37t-91 90.5t-47.5 127.5z" />
<glyph unicode="M" d="M-151 774q-4 26 -4 51q-1 45 11 85q18 64 62 112q43 48 111 72q52 18 119 18q20 0 40 -1q92 -7 204 -55q64 -28 112 -62t83.5 -70t58.5 -71t38 -64t22.5 -49.5t11.5 -26.5l-4 -2q-8 15 -18.5 38.5t-26.5 52.5t-39 61.5t-56 65t-78 63t-104 56.5q-110 48 -196 54 q-16 1 -30 0q-67 0 -119 -20q-63 -25 -101 -74q-40 -50 -54 -114q-8 -37 -8 -76q0 -28 4 -58q10 -70 46.5 -137.5t97.5 -126t149 -95.5q77 -34 148.5 -34t139 25.5t131 71.5t125 103.5t122 122.5t120.5 130q50 53 99 104.5t98 95t100 77t106 52.5t115 20h5q58 0 123 -21 q39 0 80 -9t87 -29q70 -30 112 -70q42 -41 60 -85q16 -37 15 -75q-1 -7 -1 -14q-4 -45 -25 -84t-58 -69.5t-85 -46.5q-40 -13 -88 -12h-18q-58 3 -122 30l1 4q69 -29 129 -28h24q70 8 119 42.5t74 88.5q21 45 21 92q0 9 -1 19q-5 58 -43.5 111.5t-115.5 87.5q-61 25 -117 28 q92 -40 141.5 -94t63.5 -108q6 -24 7 -47q0 -28 -10 -55q-18 -48 -62.5 -76t-112.5 -31h-10q-64 0 -141 34v4q76 -32 135 -32h12q63 4 102 34q38 29 52 77q7 23 7 47q1 26 -7 54q-14 52 -59.5 102t-122.5 83q-6 2 -11 4.5t-10 4.5q-68 -2 -130.5 -34.5t-124.5 -85 t-125.5 -119.5t-133.5 -139q-58 -61 -120.5 -124.5t-128.5 -121.5t-135 -105.5t-139 -75.5q-70 -27 -140 -31q-8 0 -16 -1q-63 0 -123 26l-1 5q46 -20 94 -20q17 0 34 2q66 10 133 45t135 89t133 116t126.5 125.5t116.5 118.5q61 60 118.5 118t116 106t120 81t129.5 40 q-24 4 -48 4q-28 1 -56 -5q-50 -10 -98.5 -34.5t-95 -61t-92.5 -81t-92 -94t-93 -100.5q-59 -64 -118.5 -127.5t-122 -118t-129 -97t-137.5 -63.5q-61 -18 -126 -18q-10 1 -22 1q-78 4 -162 40q-103 45 -173 107.5t-110 133.5t-50 143z" />
<glyph unicode="N" d="M-89 739q-4 26 -4 51q-1 44 11 84q18 64 62 113t112 73q53 19 119 18q19 0 40 -1q91 -7 203 -55q64 -28 112 -62t83 -70t58.5 -71t38.5 -64t22.5 -49.5t10.5 -27.5l-4 -2q-11 23 -29.5 64t-54 89t-92.5 97t-145 87q-110 47 -196 53q-16 1 -31 1q-67 0 -119 -20 q-62 -25 -101 -74.5t-53 -112.5q-8 -36 -9 -74q0 -29 5 -60q11 -71 46.5 -138.5t97 -125.5t148.5 -96q76 -34 147 -34h2q72 0 139 25.5t130.5 71.5t125.5 104t122 123t121 130q52 56 103.5 109.5t103.5 98.5t106 78.5t113 49.5q45 12 94 12q15 0 31 -1q66 -5 139 -37 q70 -30 115.5 -68t69.5 -79t28 -81q1 -10 2 -21q0 -29 -10 -55q-13 -35 -41.5 -61t-70.5 -38q-30 -8 -66 -8q-15 0 -31 1q-54 5 -117 32v4q76 -32 135 -31q6 -1 12 -1q63 4 103 34q38 29 52 77q6 23 7 46q0 27 -8 55q-15 52 -59.5 101.5t-122.5 83.5q-63 27 -121 28h-6 q-55 0 -108 -19q-56 -20 -108.5 -56.5t-104.5 -84.5t-104 -103.5t-104 -112.5q-59 -64 -119 -127.5t-122.5 -118.5t-129 -97t-137.5 -64q-60 -18 -124 -18q-12 0 -24 1q-77 4 -162 41q-103 44 -173 107t-109.5 133.5t-49.5 142.5z" />
<glyph unicode="O" d="M116 724q2 50 23.5 90t61 66.5t93.5 31.5q11 1 23 1q45 1 99 -15q68 -20 145 -71q48 -31 80.5 -69t53.5 -73t31 -62.5l14 -38.5l-5 -2q-13 43 -36 86q-20 37 -54 77.5t-85 74.5q-66 44 -126 58q-40 10 -74 9q-18 -1 -34 -3q-48 -8 -85 -33.5t-59 -63.5t-26 -85 q-1 -11 -1 -21q1 -37 13 -75q16 -49 52 -96.5t97 -87.5q77 -50 153 -62q33 -5 64 -4q44 0 87 8q75 16 147 53.5t141 85.5t133 101t121 100t114.5 89.5t113 76.5t109 58t103.5 34q29 6 58 6q20 0 39 -3q47 -7 88 -34l-1 -4q-33 22 -75 22q-14 0 -30 -3q-62 -10 -138.5 -48.5 t-166.5 -102.5t-191 -143q-68 -54 -134 -109t-132.5 -101t-135.5 -78q-68 -32 -142 -40q-22 -3 -46 -3q-52 -1 -108 13q-80 20 -170 78q-72 47 -117 100.5t-65 107.5q-19 50 -20 97v7z" />
<glyph unicode="P" d="M-82 654q0 4 -1 8q0 46 17 84q18 41 55 70t91 38q21 4 44 4q36 0 78 -9q68 -14 150 -59q50 -28 86 -63.5t59.5 -68.5t36 -60t16.5 -38l-5 -1q-16 42 -43 82q-23 34 -59.5 72t-90.5 69q-70 38 -130 48q-28 4 -53 5q-29 0 -55 -6q-48 -11 -82 -39.5t-52 -67.5 q-18 -40 -20 -88v-6q0 -44 17 -88q19 -48 58.5 -92.5t103.5 -79.5q67 -37 136 -42q15 -1 29 -1q54 1 110 15q70 18 139 57t138 89.5t137.5 109t134.5 116.5q57 50 113 98.5t112 88.5t113 68.5t117 38.5q30 5 60 6q32 0 65 -6q64 -11 136 -50q88 -49 133.5 -107t55.5 -114 q3 -17 3 -33q0 -37 -16 -69q-23 -47 -70 -71q-40 -21 -96 -21q-9 0 -19 1q-68 4 -148 48l3 7q60 -32 111 -41q26 -4 48 -4.5t42 4.5q39 9 66 33t40 57q12 30 12 65v8q-2 40 -21 80t-55 78.5t-92 68.5q-61 34 -119 40q-18 2 -36 2q-40 0 -79 -10q-57 -14 -113 -46t-112 -75 t-112.5 -93t-114.5 -103q-65 -58 -130.5 -115.5t-133 -105.5t-137.5 -84q-71 -36 -143 -50q-41 -8 -84 -8q-32 0 -64 4q-76 10 -157 55q-75 41 -124 91.5t-73 103t-26 102.5z" />
<glyph unicode="Q" d="M286 700q7 58 38.5 106t90 83t148.5 47q32 4 61 4q44 0 81 -10q61 -17 110.5 -49t92 -74.5t87 -83.5t95 -76t116.5 -52q50 -13 95 -13q16 0 32 2q59 6 105.5 29.5t79 61t46.5 81.5q12 34 12 69q0 11 -2 23q-4 47 -32.5 90.5t-82 80t-136.5 57.5l-1 6q93 -25 154.5 -65 t95 -87.5t40.5 -98.5q2 -16 2 -31q0 -35 -10 -67q-16 -47 -51.5 -86t-87.5 -62t-118 -26h-14q-60 0 -129 23q-57 19 -100.5 45t-79 56t-66 61.5t-60.5 60.5t-62 53.5t-71.5 41t-88.5 22.5q-19 2 -39 2q-35 0 -75 -6q-73 -10 -121.5 -41.5t-76.5 -76.5t-34 -98q-3 -19 -3 -38 q0 -35 8 -70q12 -53 42.5 -101t77 -82.5t109.5 -50.5q36 -9 77 -9q29 0 61 5q29 4 57.5 13t52.5 23t43 32.5t30 42.5l2 -3q-7 -16 -20.5 -34.5t-35.5 -35.5t-54 -32t-75 -23q-37 -7 -73 -7q-38 0 -74 8q-68 16 -120 52t-88 86.5t-51 107.5q-11 40 -11 81q0 17 1 33z" />
<glyph unicode="R" d="M223 661v12q0 47 21 93q24 52 77 103.5t139 93.5v-6q-77 -37 -122.5 -83t-65.5 -94q-16 -39 -16 -78v-18q4 -48 27 -88.5t61 -71.5q40 -30 90 -44q38 -11 80 -12q16 0 30 2q60 5 122 35q61 29 104.5 73.5t79.5 93t69.5 98t76 90.5t99.5 68.5t139 32.5l36 2q68 0 118 -19 q64 -23 104 -65q42 -42 58 -97q13 -43 12 -89v-25q-4 -59 -29.5 -115.5t-70.5 -101.5t-109 -73t-144 -29q-43 0 -77 8.5t-59 21.5t-42 28.5t-27 29.5l2 3q15 -21 37 -35.5t48 -23.5t55.5 -12.5t59.5 -2.5q77 3 135 30.5t98 70t61 95.5q20 54 22 108v11q0 49 -14 95 q-16 52 -52 90.5t-90 60.5q-46 19 -106 19q-11 0 -22 -1q-65 -3 -112.5 -18t-83 -38.5t-62.5 -54t-51 -64.5t-47.5 -71t-53 -73t-67.5 -70.5t-91 -63.5q-70 -38 -136 -48q-28 -4 -53 -5q-35 0 -67 8q-56 13 -98 44t-66 74.5t-27 95.5z" />
<glyph unicode="S" d="M34 678q6 54 36.5 99t83.5 75.5t130 37.5q9 1 19 1q36 0 75 -12q50 -15 98 -42.5t90.5 -66.5t72.5 -84t44 -93q9 -31 9 -61q0 -17 -3 -34q58 43 116 93.5t116.5 102t116.5 101.5t116 92.5t117 74.5t117 47q45 12 90 12q12 1 26 -1q58 -4 117 -35q64 -33 104 -70.5 t59 -76.5q19 -38 18 -74q0 -38 -16 -70q-16 -30 -45 -52t-69 -30q-21 -5 -44 -5q-22 -1 -44 3q-48 8 -101 35q-37 19 -59.5 37t-34.5 36t-15 34t0 30q6 33 38 60q2 0 4 -1q3 -2 3 -1q-23 -17 -33 -40t-3.5 -48t31.5 -51.5t71 -50.5q47 -24 93 -30q18 -2 35 -3q26 -1 48 5 q37 8 65 30q28 21 44 50q17 31 17 68q0 33 -15 66q-16 36 -52 71.5t-95 65.5q-60 31 -119 31h-12q-66 -4 -131.5 -33t-132 -79.5t-133.5 -110t-136 -124.5t-139.5 -123.5t-143.5 -105t-149 -70.5q-65 -21 -133 -22q-11 0 -22 1q-79 4 -162 46q-66 34 -108 83q-40 48 -58 102 q-13 41 -14 82q0 14 2 28zM48 685q-3 -19 -4 -39q0 -34 10 -68q16 -54 55.5 -103t106.5 -83q52 -27 106 -33q18 -2 36 -2l70 7q54 12 107 38t106 62q14 33 14 70q0 9 -1 18q-4 47 -24 92.5t-54.5 87t-78 73.5t-95 51t-104.5 19q-72 0 -125 -26.5t-84.5 -68.5t-40.5 -95z" />
<glyph unicode="T" d="M292 560q-1 10 -1 21q1 33 9 65q12 42 40 77t74 57.5t112 26.5q14 1 28 0q51 -1 98 -11q60 -14 117 -36t112.5 -46.5t111.5 -41t114 -18.5q6 0 12 -1q53 -1 109 19q62 22 130 72.5t144 141.5l13 -10q-93 -102 -173.5 -160t-151.5 -84q-68 -25 -129 -25h-5q-62 1 -119 17 t-110 41.5t-104 49.5t-101 40q-43 13 -87 13h-17q-70 -4 -115 -36.5t-65 -78.5q-17 -40 -17 -85v-14q3 -53 27 -97.5t68 -74t107 -29.5q36 2 61 16.5t38.5 34t15 41.5t-8.5 40t-32 29.5t-56 8.5l1 5h11q33 0 55 -10q25 -12 36 -32.5t8 -44.5t-18.5 -45.5t-42.5 -37 t-63 -17.5h-15q-43 1 -79 15q-42 18 -73 48.5t-48 71t-21 84.5z" />
<glyph unicode="U" d="M223 633q8 37 25.5 54.5t42 20.5t56 -7t67.5 -29t76 -44.5t83 -53.5q93 19 199 45.5t214 50t210.5 41.5t189.5 21q13 0 26 1q72 -1 126 -15q64 -16 95 -60q-36 36 -98 47q-39 7 -85 7q-28 0 -58 -2q-80 -6 -173 -27t-191 -47.5t-197 -55.5t-189 -52q50 -33 101 -62.5 t101 -51t97 -30.5q26 -5 52 -5q20 0 38 3q58 11 94 36.5t55 52.5q23 32 34 69l6 -4q-11 -43 -35 -80q-10 -16 -24 -31.5t-32 -29t-41 -24t-51 -15.5q-19 -3 -39 -3q-28 1 -58 7q-50 12 -104 36t-108.5 57.5t-107.5 69.5q-95 -23 -175 -35q-45 -6 -82 -7q-29 0 -53 4 q-56 9 -80 44q-14 21 -14 53q0 23 7 51zM239 635q-3 -14 -3 -25q0 -23 12 -37q20 -21 62 -27q18 -2 41 -2q29 0 63 4q62 7 137 21q-58 39 -110 71q-51 32 -93 46q-23 8 -43 8q-15 0 -27 -4q-28 -10 -39 -55zM1633 658l10 -12z" />
<glyph unicode="V" d="M122 814q6 49 38.5 92t91 71t150.5 28q82 0 148.5 -28t123 -74t105.5 -105t96 -121q30 33 61.5 67t67.5 66t76.5 60.5t88.5 49t106 33t127 12.5q79 0 140.5 -27.5t103.5 -71.5t63 -102q21 -56 21 -115q0 -61 -26 -119q-24 -57 -74 -102t-126 -72.5t-180 -27.5 q-74 0 -135.5 26t-114 68t-99 97t-91.5 114q-32 -29 -67 -54.5t-75 -45t-87 -30t-104 -10.5l3 4q51 0 93.5 13t79 36t70 53t65.5 64q-47 61 -95.5 120.5t-103 105.5t-117.5 74t-140 28q-85 0 -141 -26.5t-87 -66.5q-32 -40 -40 -86q-4 -21 -4 -42q0 -24 6 -45 q10 -40 35.5 -66.5t61.5 -26.5q34 0 54 9.5t32 22.5q14 14 19 32l5 -2q-6 -20 -19 -35q-11 -14 -33 -25t-58 -11q-39 0 -67 28.5t-41 70.5q-9 28 -9 60q0 16 2 32zM899 646q44 -58 89.5 -112.5t97 -96t111 -67t131.5 -25.5q97 0 168 26t118 69t71 98q23 54 25 112q0 4 1 8 q-1 54 -19 104q-20 54 -59 97t-97 69t-134 26q-64 0 -116.5 -13.5t-97 -36.5t-82 -53.5t-72.5 -64.5t-68 -70t-67 -70z" />
<glyph unicode="W" d="M-67 734q69 82 140 128t144 64q55 14 110 14q18 0 37 -2q74 -6 149 -28.5t151 -57.5t151.5 -75.5t151.5 -81.5t150 -76q44 53 83.5 104.5t81 93t88 69.5t103.5 36q20 2 39 2q51 0 91 -17q55 -24 87 -65q32 -42 38 -94q2 -13 1 -26q1 -40 -15 -76q-20 -48 -70.5 -84.5 t-131.5 -46.5q-39 -5 -77 -5q-66 0 -129 14q-100 22 -196 65q-43 -49 -91.5 -96.5t-108.5 -87.5t-134 -68.5t-167 -39.5q-28 -3 -54 -3q-37 0 -70 6q-56 12 -98 38t-71 62q-28 36 -40 76q-8 28 -8 58q0 11 2 22q4 40 27 74t66 58t107 32l-1 -7q-59 -7 -99 -30.5t-61 -55 t-25 -69.5q-1 -10 -1 -20q1 -28 9 -57q12 -38 38 -72.5t66 -58.5q41 -24 93 -36q31 -7 65 -7q24 0 50 3q92 11 164.5 38.5t132 66t107.5 85t89 95.5q-76 34 -150.5 75.5t-147 83t-144.5 78t-143 60.5q-70 24 -142 32q-23 2 -46 2q-49 0 -97 -11q-71 -16 -143.5 -61 t-146.5 -127zM1130 614q96 -44 192 -69q65 -17 128 -17q30 0 61 4q51 7 87 26.5t58.5 47.5t30.5 61q5 22 5 44q0 11 -1 23q-4 34 -20.5 64t-44.5 52t-66 32q-24 7 -52 7q-16 0 -34 -2q-54 -7 -99 -31.5t-86 -62.5t-79 -84t-80 -95z" />
<glyph unicode="X" d="M154 740q-3 16 -3 32q-1 26 7 50q12 39 37.5 68.5t63 48.5t81.5 22q7 1 15 1q37 0 75 -12q48 -14 94 -51q33 -26 57.5 -63t44.5 -79.5t35.5 -88.5t33.5 -91q27 11 54.5 25t55.5 29q-1 23 10.5 42.5t29.5 34.5t38.5 24t37.5 12q25 4 49 3q20 0 38 -2q91 52 186 103.5 t190 91.5q96 38 192 60q72 16 144 17q23 0 46 -2l4 -10q-82 -3 -168 -29.5t-174 -66t-177 -88.5t-176 -98q41 -22 69 -59q26 -36 40 -78q11 -35 12 -73v-13q-2 -44 -21 -82t-55 -65.5t-89 -36.5q-35 -6 -66 -6q-34 0 -62 8q-53 14 -92 44.5t-66 75.5t-48 97 q-59 -22 -116 -34q-51 -11 -98 -11h-11q-52 2 -102.5 18.5t-94.5 51.5q-56 44 -85 90t-36 90zM174 786q-2 -13 -3 -28q1 -37 19 -78q24 -56 92 -110q41 -33 87 -46q40 -11 83 -12q8 0 14 1q50 2 104 17.5t112 40.5q-17 45 -33 90.5t-34.5 87.5t-42 77.5t-55.5 60.5 q-53 42 -110 50q-18 3 -36 3q-37 0 -71 -12q-50 -17 -83.5 -54.5t-42.5 -87.5zM709 539q20 -51 46 -94.5t62.5 -73t86.5 -43.5q26 -7 58 -7q28 0 61 6q49 8 82 34t49.5 62.5t18.5 78.5v12q0 37 -11 71q-13 40 -39.5 74t-64.5 54q-59 -34 -116.5 -65t-114.5 -58q7 -11 17 -23 t25 -21l-3 -6q-31 24 -45 47q-29 -13 -57 -25t-55 -23zM819 638q42 22 84 46t86 49q-13 2 -26 2l-6 -1q-16 0 -34 -2q-47 -8 -74 -35t-30 -59z" />
<glyph unicode="Y" d="M150 860q-3 8 -3 14q0 15 19 21q11 4 27 4q24 0 60 -9q60 -13 148 -62q38 -21 70 -44.5t61 -48.5q68 2 135 15t134 31.5t133 40t133.5 39t135.5 27.5q57 9 116 9h22q70 -2 141.5 -20t145.5 -59q66 -37 101.5 -77.5t48.5 -80.5q7 -22 7 -45q0 -16 -4 -31q-9 -38 -32 -69 t-57.5 -54.5t-73.5 -34.5q-33 -9 -67 -9h-13q-41 2 -77 22q-33 18 -48 40.5t-17.5 44.5t6.5 41t22.5 32t29.5 17.5t31 -2.5l-1 -3q-13 7 -28 2.5t-27.5 -16.5t-19.5 -30.5t-4.5 -38.5t17 -40.5t44.5 -37.5q37 -20 75 -22h10q33 0 62 11q34 13 62.5 37.5t47 56.5t24.5 69 q2 14 2 28q0 23 -6 46q-10 38 -39 73t-80 64q-68 38 -134 53t-131 15t-129.5 -12.5t-129.5 -31.5t-130.5 -41t-132.5 -40.5t-137 -31.5q-64 -11 -130 -11h-11q42 -39 81 -81.5t84 -85.5t100 -85.5t128 -82.5q44 -25 88 -28q9 -1 18 -1q35 0 68 10q42 12 78 37t62.5 57 t41.5 68q14 35 14 69q0 37 -19 69q-18 31 -58 53q-34 19 -65.5 19t-55.5 -9q-28 -10 -52 -29h-3q25 21 53 32q25 10 58 11h3q32 0 68 -20q41 -23 61 -56.5t22 -71.5v-9q0 -33 -12 -67q-13 -40 -39 -74.5t-62.5 -61t-81.5 -38.5q-31 -8 -64 -8q-15 0 -31 2q-49 5 -102 34 q-66 37 -120.5 80t-101.5 89t-90 91.5t-87 87.5q-79 2 -160.5 23t-167.5 70q-54 29 -65 55zM180 852q8 -21 45 -41q75 -42 148 -59t145 -17q-28 24 -57 45.5t-61 40.5q-81 45 -133 57q-30 7 -50 7q-14 0 -23 -3q-15 -7 -15 -20q0 -4 1 -10z" />
<glyph unicode="Z" d="M128 551q4 39 20.5 76.5t44 68t63 50t76.5 21.5q38 2 62.5 -8.5t38 -27.5t16.5 -38t-1.5 -39.5t-16 -31.5t-27.5 -13v3q15 1 25 12.5t13.5 28t0 35.5t-16.5 35t-36 26t-57 8q-56 -3 -96 -35q-39 -32 -59 -76q-18 -41 -18 -88v-7q2 -51 26 -93q25 -44 76 -70 q44 -23 110 -23q10 0 20 1q103 6 183 42t147.5 91.5t126 124t118.5 138.5t126.5 136t149.5 117q-57 11 -112.5 26.5t-116.5 27.5q-60 11 -130 19q-42 4 -89 5q-31 0 -64 -2q-51 -2 -91 -23t-68.5 -53.5t-45.5 -72.5q-16 -40 -22 -81q-3 -19 -3 -37q-1 -22 3 -42 q6 -38 26 -68q20 -32 52 -48q29 -15 67 -14h10q40 2 66 19.5t42 37.5q18 23 28 52l3 1q-9 -31 -28 -56q-16 -21 -43 -39t-70 -21h-10q-41 0 -71 16q-34 18 -57 48q-23 32 -32 72q-6 29 -6 59q1 12 1 24q4 43 20.5 85t48 75.5t77 55.5t105.5 26q24 1 48 1q50 0 97 -6 q69 -8 133 -21.5t124.5 -30t119.5 -28.5q68 40 148.5 65t180.5 31h19q46 0 64 -12q12 -9 12 -20q1 -8 -7 -18q-18 -22 -76 -42.5t-159 -25.5q-19 -1 -37 -1q-23 -1 -45 1q-39 2 -77 9q-76 -50 -140 -115.5t-125 -136t-123.5 -139t-135.5 -124.5t-161.5 -92.5t-200.5 -42.5 q-16 -1 -31 -1q-55 0 -96 12q-52 15 -83 42q-32 28 -44 64q-10 29 -10 58q-1 8 0 17zM1289 1017q37 -6 73 -9q18 -2 36 -2l36 2q62 3 104.5 12t68 20.5t34.5 23.5q6 8 6 16q1 4 -1 7q-4 11 -22 17q-13 5 -33 4h-13q-87 -5 -157 -29.5t-132 -61.5z" />
<glyph unicode="[" horiz-adv-x="330" d="M16 125l204 812h14l-1 -1h213v-17h-217l-196 -781h232v-13h-244h-5z" />
<glyph unicode="\" horiz-adv-x="240" d="M6 931l10 7l229 -806l-12 -7z" />
<glyph unicode="]" horiz-adv-x="330" d="M-97 125v17h217l198 781h-233v14h243v-1h5l-204 -811h-13h-213z" />
<glyph unicode="^" horiz-adv-x="236" d="M29 600l122 91h14l52 -86h-42l-37 59l-95 -64h-14z" />
<glyph unicode="_" horiz-adv-x="288" d="M-44 296v11h255v-11h-255z" />
<glyph unicode="`" horiz-adv-x="203" d="M31 872l143 -96l1 -13l-136 55z" />
<glyph unicode="a" horiz-adv-x="308" d="M-30 378q-2 10 -2 22q0 14 2 32q4 32 17 68q12 35 29.5 66.5t37 54.5t39.5 36.5t37 13.5q23 0 34 -21.5t10 -58.5q7 19 14.5 39t16.5 41h67q-29 -75 -51 -137q-9 -26 -17 -52.5t-13.5 -48t-7.5 -37t2 -21.5q4 -7 15 0.5t24.5 24.5t28 38.5t26.5 40.5t20.5 33.5t9.5 15.5 q83 133 178 217q41 36 88.5 65.5t99.5 42.5q32 8 66 8q21 0 43 -3q56 -8 115 -45l-2 -2q-55 33 -107 40q-20 3 -41 3q-31 0 -61 -7q-50 -11 -95 -37t-84.5 -59t-72 -69.5t-57.5 -69t-41.5 -57t-22.5 -34.5q-30 -52 -59 -93q-12 -18 -26.5 -35.5t-27.5 -31.5t-25.5 -23 t-22.5 -10q-4 -1 -8 -1q-7 1 -13 3q-9 4 -13 15.5t-3.5 32t7.5 51.5q-25 -45 -55 -73t-57 -28q-18 0 -28 13.5t-14 36.5zM29 396q-1 -8 -1 -14q0 -10 2 -16q3 -12 13 -12q7 0 18 7.5t23 21t24 32.5t23 41q6 22 13.5 48.5t19.5 57.5q2 17 2 31q0 17 -3 29q-6 24 -20 24 q-9 0 -20 -11.5t-23 -31.5t-23 -46.5t-22 -56.5t-17.5 -57t-8.5 -47z" />
<glyph unicode="b" horiz-adv-x="274" d="M-70 328q108 323 206 571q28 70 56.5 138.5t57 129.5t55.5 111.5t51 85.5q26 36 46 52q14 12 26 11q5 0 10 -2q25 -11 22 -53t-25.5 -102.5t-60.5 -136t-83 -156t-94 -160.5t-92 -149l-29 -87q25 41 53 65.5t53 24.5q17 0 28 -13.5t14.5 -36.5t-0.5 -54.5t-17 -66.5 q-15 -43 -36.5 -79t-45.5 -60q27 17 53 44t46.5 53t33.5 46t16 24q83 133 178 217q41 36 88.5 65.5t99.5 42.5q32 8 67 8q21 0 42 -3q56 -8 114 -45l-1 -2q-54 33 -107 40q-21 3 -41 3q-31 0 -61 -7q-49 -11 -94 -37t-85 -59t-72.5 -69.5t-57.5 -69t-41 -57t-22 -34.5l-1 -1 l-3 -5q-48 -73 -86.5 -111.5t-65.5 -55.5q-33 -20 -58 -20h-3q-22 0 -33.5 20.5t-10.5 55.5q-6 -18 -10 -32t-8 -24q-3 -11 -6 -20h-66zM29 436q-2 -16 -2 -29q-1 -17 3 -31q6 -22 21 -22q9 0 20 11.5t23 31t23.5 46t21.5 57.5q10 30 17 56.5t8.5 46.5t-1 31.5t-12.5 11.5 q-7 0 -17.5 -7.5t-22.5 -20.5t-24 -31t-22 -40zM117 705q42 67 86.5 142.5t85.5 150t76 143.5t56 125q21 54 27 92q1 9 1 17q0 23 -13 32q-4 2 -8 2q-12 1 -28 -19q-22 -26 -48.5 -77t-56.5 -121.5t-60 -152t-60.5 -167.5t-57.5 -167z" />
<glyph unicode="c" horiz-adv-x="251" d="M-14 500q16 45 44 83.5t65 64t79 25.5q19 0 27 -10.5t9 -25.5t-4.5 -33.5t-14.5 -35.5t-19.5 -30.5t-20.5 -17.5q-5 -2 -10 -2q-9 0 -16 7t-7 16t7 15.5t16 6.5q12 0 19 -11q7 4 15.5 14.5t14.5 22t9.5 25t2 24t-9.5 17.5t-25 7t-38 -19t-40 -48t-35 -64.5t-24.5 -69.5 t-6.5 -62t17 -41q13 -11 31 -6.5t38 18.5t41 36t40 44.5t34.5 43t24.5 34.5q83 133 179 217q41 36 88.5 65.5t99.5 42.5q32 8 66 8q20 0 42 -3q56 -8 115 -45l-2 -2q-51 31 -99 39q-25 4 -50 4q-23 0 -45 -4q-46 -8 -89 -29t-81 -50.5t-71 -62.5t-59 -65t-45.5 -60 t-30.5 -45l-2 -5q-2 -2 -4 -5t-5 -7q-2 -2 -2 -2.5t-1 -1.5t-1 -2q-9 -14 -23 -32.5t-31 -39.5t-36.5 -41.5t-40.5 -37t-41.5 -26.5t-40.5 -10q-39 0 -55 25q-15 24 -15 59q0 40 17 88z" />
<glyph unicode="d" horiz-adv-x="295" d="M-32 378q-2 11 -2 23q0 13 2 31q4 32 16 68q12 35 30 66.5t37.5 54.5t39.5 36.5t38 13.5q23 0 34 -23.5t9 -62.5q76 221 142.5 386.5t125 272t109.5 152.5q37 34 70 34q13 0 26 -5q23 -9 18.5 -34.5t-26 -61.5t-56 -80t-71.5 -89t-73 -89.5t-60 -80.5q-25 -60 -49 -122 t-45.5 -122t-41 -115.5t-35.5 -103.5q-14 -40 -21 -73q-3 -14 -5 -28t-2 -25.5t2 -19t8 -10.5q11 -4 26.5 14.5t31 45t29 53t18.5 37.5v1l11 21t31 54.5t49.5 74t67 79.5t82.5 71q46 32 98 48q42 13 87 13q11 0 23 -1q58 -4 123 -37l-2 -2q-57 29 -110 33l-26 2 q-39 0 -75 -10q-48 -14 -91.5 -41.5t-81 -62.5t-67.5 -73t-53 -72t-38 -60.5t-20 -37.5v-1q-26 -57 -48 -93.5t-41 -58.5t-37.5 -31t-38.5 -9q-12 0 -17.5 9.5t-6 23.5t2 31.5t6.5 35.5q-25 -44 -55 -72t-55 -28q-17 0 -28 13.5t-15 36.5zM27 396q-1 -7 -1 -13q0 -11 2 -17 q4 -12 13 -12q7 0 18 7.5t22.5 21t24 32.5t23.5 41q2 7 3.5 12t2.5 10q2 4 3 8q2 8 5.5 16t5.5 17q3 11 6 23.5t7 25.5q4 34 -1.5 56t-18.5 22q-10 0 -21 -11.5t-23 -31.5t-23.5 -46.5t-21.5 -56.5q-11 -30 -17.5 -57t-8.5 -47zM389 1018q25 37 57 77.5t65 81t63 78.5t50 69 t26 53q2 7 2 12q0 12 -10 18q-6 3 -13 3q-17 0 -37 -19q-28 -27 -61.5 -81.5t-69.5 -130t-72 -161.5z" />
<glyph unicode="e" horiz-adv-x="254" d="M-32 422q0 35 14 71q14 39 40 75.5t56.5 62t62 36.5t57.5 0q23 -11 25.5 -32t-9 -46.5t-32.5 -50t-46 -41.5t-50 -22t-43 10q-7 -26 -10.5 -50.5t-1 -43t11 -30t24.5 -12.5q15 -1 33.5 10t37.5 29t38 40.5t35.5 43t29 38.5t19.5 27q87 131 185 213q42 34 90 62t101 39 q29 6 59 6q25 0 50 -4q56 -9 114 -49l-2 -1q-52 33 -102 42q-26 5 -52 5q-23 0 -46 -4q-48 -8 -92.5 -30t-84 -51.5t-73.5 -63t-61 -65t-46 -58t-28 -40.5l-2 -4q-2 -2 -3.5 -4t-2.5 -5q-1 -1 -1 -2q-9 -14 -27 -38.5t-41.5 -51.5t-50 -52t-53.5 -39q-26 -14 -51 -15 q-1 1 -2 1q-26 0 -46 25q-24 28 -24 69zM48 499q11 -13 25 -13h8q19 4 37.5 20.5t34.5 41.5q16 24 25 48q8 21 8 38q0 21 -15 27q-4 1 -7 1q-12 0 -25 -10q-17 -12 -34 -35.5t-31.5 -54.5t-25.5 -63z" />
<glyph unicode="f" horiz-adv-x="176" d="M-220 -131q142 454 271 804q37 99 74.5 196.5t75 184t73 158.5t67.5 122t60 75q21 18 37 18q6 0 12 -2q20 -8 22 -35v-7q0 -26 -10 -62q-11 -41 -33.5 -93.5t-52.5 -112t-65.5 -122.5t-72.5 -126t-74 -122t-70 -111q-16 -44 -30 -87t-29 -86q-6 -25 -6.5 -45t4 -31.5 t15.5 -12t28.5 15t42 50t57.5 91.5v-1q10 15 28.5 42t45 59.5t59.5 67t72.5 64.5t83.5 52t91 30q22 4 45 4q26 0 53 -5q51 -10 103 -43l-2 -3q-69 42 -135 43h-5q-62 0 -119 -23q-60 -24 -111.5 -66t-92.5 -87t-70 -85t-41 -60q-34 -63 -63 -101t-50.5 -51.5t-35 -3.5 t-16.5 41q-37 -111 -67.5 -207.5t-53.5 -169.5q-27 -85 -49 -157h-66zM106 670q43 67 89.5 144.5t90 156t81.5 151.5t61.5 132.5t29.5 100.5q2 10 2 19q0 25 -14 33q-4 2 -8 2q-12 0 -27 -17q-21 -25 -47.5 -74t-57.5 -119.5t-64 -155.5t-67.5 -180t-68.5 -193z" />
<glyph unicode="g" horiz-adv-x="267" d="M-250 -297q19 50 52 111.5t73.5 129t85.5 137t87 134.5q18 53 35 103t32 97q-24 -39 -52 -63t-52 -24q-17 0 -27.5 13.5t-14 36.5t0.5 54.5t16 67.5q12 35 29.5 66.5t37 54.5t39.5 36.5t37 13.5q21 0 33 -19.5t12 -52.5q5 16 9 30t7 24q3 11 7 20h67q-13 -37 -28 -82 q-13 -39 -31 -91.5t-40 -113.5l113 159q7 10 24 34t44 55.5t61.5 66.5t76 66t88 54t96.5 31q21 3 42 3q30 0 60 -7q52 -10 105 -48l-2 -2q-51 34 -101 44q-28 5 -56 5q-21 0 -41 -3q-48 -7 -93 -28.5t-85.5 -50.5t-75 -62t-61.5 -64.5t-46.5 -57.5t-29.5 -40h1l-9 -13 l-123 -174q-31 -84 -66.5 -177t-73 -183t-74.5 -170t-71 -139t-63 -89q-22 -23 -40 -23q-6 0 -11 2q-23 11 -23 42q0 33 19 86zM-256 -366q-1 -3 -1 -7q0 -23 15 -33q3 -2 8 -2q9 0 22 14q19 19 41.5 59t48 97.5t52 125t54 142t52.5 149.5q-40 -62 -81 -126.5t-77.5 -126 t-66.5 -117.5t-47.5 -100.5t-19.5 -74.5zM29 396q-1 -7 -1 -13q0 -10 2 -17q4 -12 13 -12q15 0 38.5 26t44.5 67q11 34 20.5 64.5t17.5 56.5q2 14 2 26q0 18 -4 30q-6 22 -19 22q-10 0 -21 -11.5t-22.5 -31.5t-23 -46.5t-21.5 -56.5q-11 -30 -17.5 -57t-8.5 -47z" />
<glyph unicode="h" horiz-adv-x="303" d="M-71 328q108 323 206 571q28 70 56.5 138.5t57.5 129.5t56 111.5t51 85.5q24 36 45 52q15 12 27 11q5 0 10 -2q25 -11 22 -53t-25.5 -102.5t-60.5 -136t-83 -155.5t-94 -160t-92 -149q-8 -23 -15 -45t-15 -43q25 41 53.5 65.5t52.5 24.5q17 0 30 -7.5t18 -26.5t0.5 -52.5 t-22.5 -84.5q-5 -13 -12 -31.5t-13 -37t-7.5 -34.5t4.5 -24q3 -4 10.5 0.5t17 14.5t20.5 24.5t22 29.5q25 37 56 87q2 4 16.5 26.5t38.5 55t57.5 70t73.5 72t87 62t98 39.5q31 7 63 7q21 0 43 -3q55 -8 112 -45l-1 -2q-54 33 -107 40q-21 3 -41 3q-31 0 -61 -7 q-49 -11 -94 -36.5t-84.5 -58.5t-72 -69.5t-58 -68.5t-42 -57t-22.5 -36q-32 -55 -64 -97l-28 -36t-28.5 -31.5t-28 -21.5t-24.5 -8t-17.5 7.5t-8.5 19t-1 27t5 32.5q7 39 22 87q11 30 17.5 56.5t8.5 46.5t-1 31.5t-12 11.5q-16 0 -41 -28t-46 -72q-16 -48 -28 -88.5 t-21 -69.5q-11 -34 -19 -60h-67zM117 706q42 67 86.5 142t85.5 149.5t76 143.5t56 125q21 54 27 92q1 9 1 17q0 23 -13 32q-4 2 -8 2q-12 0 -28 -19q-22 -26 -48.5 -77t-56.5 -121.5t-60 -151.5t-60.5 -167t-57.5 -167z" />
<glyph unicode="i" horiz-adv-x="200" d="M-6 378q2 32 17 88.5t48 144.5l-57 -97l-6 9l87 148h67q-29 -75 -51 -137q-9 -26 -17.5 -52.5t-14 -48t-7.5 -37t2 -21.5q4 -7 15.5 0.5t26.5 23.5t31.5 36.5t30 40.5t23 34t12.5 18q83 133 178 217q41 36 88.5 65.5t99.5 42.5q32 8 66 8q21 0 43 -3q56 -8 115 -45l-2 -2 q-55 33 -107 40q-20 3 -40 3q-31 0 -61 -7q-49 -11 -94 -36.5t-85 -58.5t-72.5 -69.5t-57.5 -68.5t-42 -57t-23 -36h1q-34 -52 -67 -93q-14 -18 -29 -35.5t-29.5 -31.5t-27.5 -23t-23 -10h-6q-15 0 -23 8q-9 9 -9 35v7zM174 899q0 13 9 22.5t23 9.5t23 -9.5t9 -22.5 q0 -14 -9 -23t-23 -9t-23 9.5t-9 22.5z" />
<glyph unicode="j" horiz-adv-x="154" d="M-364 -297q19 50 52 111.5t74 129t85.5 137t86.5 134.5q22 65 43 126.5t38 115t30.5 97l22.5 72.5l-66 -112l-6 9l86 147l1 3h66q-13 -38 -28 -83q-13 -39 -31 -91.5t-40 -113.5l110 154q2 4 17.5 26t42 53.5t61.5 68t77.5 69.5t90.5 58.5t99 35.5q24 4 49 4q28 0 57 -6 q55 -11 110 -50l-1 -3q-51 34 -102 45q-31 6 -60 6q-20 0 -39 -3q-48 -7 -93.5 -28.5t-86 -51t-75.5 -63t-62.5 -64.5t-46.5 -56t-28 -39h1l-132 -188q-31 -84 -67 -177t-73 -183t-74 -170t-71.5 -138.5t-63.5 -88.5q-22 -23 -39 -23q-6 0 -11 2q-24 11 -24 43q0 34 20 85z M-370 -366q-1 -3 -1 -7q0 -23 14 -33q4 -2 8 -2q10 0 23 14q19 19 41.5 59t48 97.5t52 125t53.5 142t53 149.5q-40 -62 -81 -126.5t-77.5 -126t-66.5 -117.5t-47.5 -100.5t-19.5 -74.5zM164 899q0 13 9.5 22.5t23.5 9.5t23 -9.5t9 -22.5q0 -14 -9 -23t-23 -9t-23.5 9.5 t-9.5 22.5z" />
<glyph unicode="k" horiz-adv-x="333" d="M-70 328q108 323 207 571q28 70 56.5 138.5t57 129.5t55.5 111.5t52 85.5q24 36 44 52q14 12 27 11q5 0 10 -2q18 -9 21 -35q1 -6 1 -12q0 -22 -8 -52q-10 -38 -30 -87.5t-48 -105t-61 -115.5t-68 -120.5t-71 -118.5t-69 -110q-27 -80 -48.5 -148t-36.5 -115q13 25 30 54 t36 59t39 57.5t40.5 49t40.5 34.5t38 13q22 0 34.5 -13.5t15 -32.5t-4.5 -41.5t-22.5 -41t-40.5 -30t-57 -8.5q-13 -33 -17 -61q-3 -25 2 -49t27 -35q11 -5 23.5 -0.5t25 15.5t25 27t23.5 33q27 40 54 95q7 12 22 39t38.5 61.5t54 72.5t67.5 72.5t80 61.5q43 28 91 40 q35 9 73 9q14 1 28 -1q53 -4 108 -36l-1 -1q-54 27 -104 31q-12 1 -25 1q-37 1 -72 -9q-46 -12 -87.5 -38.5t-77.5 -59.5t-66.5 -69.5t-54.5 -70.5t-40 -62.5t-25 -44.5q-26 -56 -55 -99q-13 -19 -28 -36.5t-31.5 -31t-35 -22.5t-36.5 -9q-20 0 -32 9t-18 23t-7.5 32.5 t0.5 38.5q4 45 23 102q29 -16 52 -13.5t39 16.5t25.5 34t12.5 39.5t-1.5 33t-16.5 13.5q-16 0 -35 -14.5t-38.5 -37.5t-39 -52.5t-37.5 -60.5q-43 -73 -86 -164h-67zM119 706q42 67 86.5 142t85.5 149.5t75.5 143.5t55.5 125q22 54 27 92q1 9 1 16q0 24 -13 33q-4 2 -8 2 q-13 0 -29 -19q-22 -26 -47.5 -77t-55.5 -121.5t-60.5 -151.5t-60.5 -167t-57 -167z" />
<glyph unicode="l" horiz-adv-x="170" d="M-43 378q1 14 4 29q7 34 21 79q20 59 47 132t57 153t62.5 162t65.5 157.5t65 140.5t61 111t54 69q18 17 32 16q6 0 11 -2q25 -11 22 -53t-25.5 -102.5t-60.5 -136t-83 -156t-94 -160.5t-92 -149q-13 -38 -24.5 -73t-22.5 -68q-16 -40 -24 -73q-4 -14 -6.5 -28t-3.5 -25.5 t1 -19t9 -10.5q10 -4 27.5 12t36.5 40t36.5 49.5t27.5 41.5q85 132 182 214q42 35 90 63.5t101 40.5q31 7 63 7q23 1 46 -3q56 -8 113 -48l-2 -2q-52 34 -104 42q-25 4 -50 5q-26 0 -50 -5q-48 -9 -93 -32t-84.5 -53.5t-72.5 -65t-58.5 -65.5t-42.5 -56t-24 -36 q-38 -57 -65 -94.5t-49 -58.5t-41 -30t-40 -9q-10 0 -16 7q-4 7 -6 18q-1 7 -1 14v11zM116 705q42 67 87 142.5t86 150t75.5 143.5t55.5 125q22 54 26 92q1 8 1 15q0 25 -13 34q-4 2 -8 2q-12 1 -28 -19q-22 -26 -48 -77t-55.5 -121.5t-60 -152t-61 -167.5t-57.5 -167z" />
<glyph unicode="m" horiz-adv-x="463" d="M-73 328l118 343h67l-33 -97q-11 -16 -19 -35.5t-15 -38.5h7q2 7 5.5 14t5.5 14l-69 -200h-67zM63 529l16 45q25 43 55 70t54 27q15 0 26 -5t17.5 -17t7.5 -33.5t-6 -53.5q24 48 52 78.5t55 30.5q17 0 30 -7.5t18 -26.5t0 -52.5t-23 -84.5q-4 -13 -11 -31.5t-13 -37 t-7.5 -34.5t4.5 -24q3 -4 10.5 0.5t17 14.5t20 24.5t22.5 29.5q25 37 56 87v-1q2 5 15.5 28.5t37 56.5t55.5 72t71 74.5t85 64.5q46 30 96 44q34 9 70 8q17 0 35 -2q55 -6 113 -40l-2 -2q-56 30 -108 36q-16 2 -31 1q-37 0 -71 -9q-48 -13 -92.5 -40.5t-82.5 -62 t-69.5 -71.5t-55.5 -70.5t-39 -59t-21 -35.5q0 -1 -1 -2t-2 -4q-5 -8 -15.5 -25t-25.5 -38t-31.5 -43t-34 -40t-34 -30t-29.5 -12q-11 0 -17.5 7.5t-8.5 19t-1 27t4 32.5q7 39 23 87q11 30 17.5 56.5t8.5 46.5t-1 31.5t-13 11.5q-9 0 -20 -10.5t-23 -28t-24.5 -41.5 t-21.5 -52l-5 -14l-62 -173h-69l62 173q11 30 17.5 56.5t8.5 46.5t-1.5 31.5t-12.5 11.5q-8 0 -20 -9t-24.5 -25t-26 -37t-24.5 -46z" />
<glyph unicode="n" horiz-adv-x="316" d="M-72 328l118 343h67l-33 -94q26 42 56.5 68t56.5 26q17 0 30 -7.5t18 -26.5t0 -52.5t-23 -84.5q-4 -13 -11.5 -31.5t-13 -37t-7.5 -34.5t5 -24q3 -4 10.5 0.5t17 14.5t20 24.5t22.5 29.5q25 37 55 87v-1q2 5 16 28.5t37 56.5t55 72t71 74.5t85 65t96 43.5q34 9 70 8 q18 0 36 -2q54 -6 113 -40l-2 -2q-57 30 -109 36q-16 2 -30 1q-36 0 -71 -9q-49 -13 -93 -40.5t-82.5 -62t-70 -71.5t-55 -70.5t-39 -59t-20.5 -35.5q-32 -55 -64 -97q-14 -18 -28.5 -36t-28.5 -31.5t-27.5 -21.5t-25.5 -8q-11 0 -17.5 7.5t-8.5 19t-0.5 27t4.5 32.5 q7 39 23 87q11 30 17.5 56.5t8.5 46.5t-1.5 31.5t-13.5 11.5q-7 0 -18.5 -8.5t-24.5 -23t-26 -34.5t-25 -43l-73 -209h-66z" />
<glyph unicode="o" horiz-adv-x="265" d="M-11 499q10 36 27.5 67.5t39.5 55.5t45.5 37.5t46.5 13.5t39.5 -13.5t24.5 -37.5t8 -55.5t-10 -67.5t-28 -67t-40 -55t-46 -37.5t-47 -13.5t-39 13.5t-24 37.5q-8 23 -9 52q0 32 12 70zM33 449q-1 -12 -2 -23q-1 -16 3 -28q4 -21 14.5 -33t26.5 -12q17 0 35.5 12t36 33 t32 49t23.5 61q8 29 9 56v8q-1 22 -5 39q-6 20 -17 32t-27 12t-33 -11t-32.5 -30t-29 -45t-21.5 -55q-10 -35 -13 -65z" />
<glyph unicode="p" horiz-adv-x="295" d="M-318 -358q3 28 13.5 65t24.5 78t30 83.5t30 81.5q11 29 28 75.5t37.5 103t44 119t46.5 122.5q53 142 116 303h67q-16 -28 -43 -88t-59 -139.5t-66.5 -171.5t-68.5 -184t-63.5 -177t-50.5 -150.5t-31 -104.5t-4 -39t14 14t22.5 50t36.5 98.5t56 158.5t81.5 230.5 t112.5 315.5l5 14q12 35 29.5 66.5t37 54.5t40 36.5t37.5 13.5t27.5 -13.5t13.5 -36.5q2 -11 2 -23q0 -15 -2 -32q-4 -31 -17 -66q-12 -36 -29 -67.5t-37 -54.5t-40 -36.5t-37 -13.5q-26 0 -38 30l5 5l5 -5q6 -4 15 -4t20 11.5t23 31t23.5 46t21.5 57.5q11 30 17.5 56.5 t8.5 46.5t-1 31.5t-13 11.5q-9 0 -23 -11.5t-29 -31.5t-29 -46.5t-24 -56.5l-288 -831q-10 -25 -21 -44q-10 -16 -22.5 -30t-27.5 -14q-19 0 -25 17q-3 10 -3 26q0 8 1 18z" />
<glyph unicode="q" horiz-adv-x="299" d="M-158 -358q3 28 13.5 65t24.5 78t29.5 83.5t29.5 81.5q11 32 30.5 83.5t42.5 113.5t48.5 129.5t50.5 131.5q-24 -37 -50.5 -58.5t-49.5 -21.5q-17 0 -27.5 13.5t-14 36.5t0.5 54.5t16 67.5q12 35 29.5 66.5t37 54.5t39.5 36.5t37 13.5q26 0 37 -29q8 -17 8 -41 q0 -15 -3 -32q9 24 16.5 42.5t13.5 32.5q6 16 10 29h68q-16 -38 -43.5 -103t-60.5 -146.5t-69.5 -172t-71 -180.5t-64.5 -171.5t-50.5 -144t-28.5 -99.5t2 -37q6 0 23 34.5t44.5 96t63.5 146t79.5 186.5t93 216t105.5 234q5 12 17.5 40t32 64.5t46 77t60.5 79t74 70 t86.5 48.5t99.5 17t112 -24l-1 -2q-55 21 -104 21q-1 0 -2 -1q-50 0 -94.5 -16.5t-83.5 -45.5t-71.5 -65t-59 -75t-47 -75t-34.5 -66.5t-21 -48.5h1l-7 -16q-1 -1 -1 -4q0 -1 -1 -1h-1l-364 -840q-10 -25 -20 -44q-10 -16 -22.5 -30t-27.5 -14q-19 0 -25 17q-3 10 -3 26 q0 8 1 18zM29 396q-1 -7 -1 -13q0 -10 2 -17q4 -12 13 -12q15 0 38 26t44 67q9 21 17 42t14 41q7 25 8 46q1 10 1 19.5t-1 16.5q-1 16 -6.5 25t-14.5 9q-10 0 -21 -11.5t-22.5 -31.5t-23 -46.5t-21.5 -56.5q-11 -30 -17.5 -57t-8.5 -47z" />
<glyph unicode="r" horiz-adv-x="290" d="M-11 511q20 30 36 54.5t30 40.5h-7q-24 0 -36.5 12.5t-12 28t15 28t44.5 14.5q30 1 34.5 -20t-14.5 -46l65 -1h1q49 0 57 -31q2 -6 2 -15q0 -32 -26 -93q-5 -12 -12 -31t-10.5 -36t-2.5 -29.5t12 -13.5q7 0 18.5 10t24.5 26t26.5 35t25 36.5t19.5 30.5t10 17l12 20 q12 21 34 54t53.5 72.5t71.5 77t86 68.5t98 46q37 11 77 11q15 0 31 -2q56 -6 116 -41l-1 -2q-56 30 -109 36q-16 2 -31 1q-37 0 -71 -9q-48 -13 -92.5 -40.5t-82.5 -62t-69.5 -71.5t-55 -70.5t-39 -59t-20.5 -35.5q-31 -55 -64 -97q-14 -18 -28.5 -36t-30 -31.5t-31 -21.5 t-29.5 -8q-11 0 -17 7t-7.5 18.5t1 25.5t6.5 30q9 35 28 81q13 33 23.5 55.5t12.5 36t-6 19.5t-32 6h-56q-15 -20 -33.5 -47t-33.5 -48h-11zM36 645q0 -7 5 -14q7 -8 25 -8q9 12 12 22q2 8 2 13v4q-1 6 -5 10t-9 4q-12 0 -20 -8q-10 -10 -10 -23z" />
<glyph unicode="s" horiz-adv-x="239" d="M-42 405q4 22 24 38q3 2 13 11t25.5 21t36.5 27t45 30q1 22 1 43q-1 15 -1 29q-2 33 -3 51l-100 -142h-10q23 33 43 62t34 50q17 25 31 46h62q2 -29 3.5 -54.5t2.5 -47.5q35 19 73.5 34.5t79 25.5t82.5 11h7q37 0 73 -8q40 -10 78 -34t71 -64l-1 -1q-34 39 -72 61 q-38 21 -78 30q-33 7 -66 7h-14q-40 -2 -80.5 -12t-79 -26t-73.5 -35q0 -70 -10 -113.5t-27.5 -68t-41 -35t-48.5 -14.5q-8 -1 -15 -1q-18 0 -32 8q-21 12 -29 30q-6 13 -5 27q0 7 1 14zM-34 400q0 -3 1 -6q-1 -14 5 -26q8 -15 24 -24q10 -5 21 -5q8 0 17 2q18 5 30.5 22 t20.5 41.5t11.5 55t5.5 60.5q-28 -18 -50 -34t-38 -29q-19 -15 -34 -29q-12 -11 -14 -28zM106 664v1v-1z" />
<glyph unicode="t" horiz-adv-x="219" d="M-156 736v12h233q25 64 52.5 134t56.5 136t58 125t55 101t48 64q16 16 30 16q5 0 9 -2q22 -11 24 -40q0 -5 1 -10q0 -26 -11 -62q-13 -43 -38 -97.5t-58.5 -115t-72 -124.5t-76.5 -125h159v-12h-167q-12 -20 -24 -38t-23 -37q-16 -47 -26.5 -82t-15.5 -52 q-12 -41 -17.5 -69t-4.5 -46t7.5 -27.5t18.5 -13.5q11 -4 25.5 4.5t30.5 24t32 34.5t29.5 37.5t23.5 33t14 20.5l12 21q12 22 34 54.5t53.5 72.5t71 77.5t85.5 68.5t98 47q37 11 77 11q16 0 32 -2q56 -6 115 -41v-2q-56 30 -109 36q-16 2 -31 1q-36 0 -71 -9 q-49 -13 -93.5 -40.5t-82.5 -62t-69.5 -72t-55 -71t-39 -58.5t-20.5 -35v-1q-38 -57 -68.5 -94.5t-56 -58.5t-47.5 -30t-42 -9t-29.5 17t-11.5 41t2 51t11 49q2 7 10 28.5t19.5 54.5t27 76t33.5 91h-228zM111 697q7 10 12.5 19.5t12.5 19.5h-11zM129 748h14q38 60 75 121.5 t69 120.5t57 111t39 94q15 45 15 73q0 25 -15 36q-3 2 -6 2q-10 0 -24 -16q-18 -21 -39.5 -62.5t-45.5 -98.5t-48 -121.5t-47.5 -131.5t-43.5 -128z" />
<glyph unicode="u" horiz-adv-x="308" d="M-30 378q-2 10 -2 21q0 15 2 33q4 31 17 68q12 37 25.5 68t25.5 54q13 27 25 49h64q-13 -28 -26 -57q-11 -25 -24 -55.5t-22 -58.5q-9 -29 -15.5 -55t-9 -46.5t0.5 -32.5t12 -12q16 0 41 28.5t47 73.5q10 39 28.5 92t46.5 123h67q-29 -75 -51 -137q-9 -26 -17.5 -52.5 t-14 -48t-7.5 -37t2 -21.5q3 -6 10.5 -2.5t16.5 13.5t20 24t22 31q25 38 55 88v-1q2 5 14 25t32.5 50t48 65.5t62 70t74.5 64t84 49.5q44 19 94 24q11 1 23 1q39 0 78 -13l-9 -2q-33 8 -64.5 8t-61.5 -8q-60 -16 -112.5 -49.5t-96.5 -79t-77 -88.5t-54.5 -77.5t-28.5 -46.5 h1q-31 -52 -60 -93q-12 -18 -26.5 -35.5t-27.5 -31.5t-25.5 -23t-22.5 -10q-4 -1 -8 -1q-6 1 -12 3q-8 4 -13 15.5t-4.5 32t8.5 51.5q-26 -45 -56 -73t-57 -28q-17 0 -27.5 13t-14.5 37zM468 528l4 -13q43 79 99 148q23 29 51 58.5t60.5 56t68.5 47t76 32.5q-4 2 -8.5 2.5 t-8.5 2.5q-38 -12 -72.5 -33t-65.5 -47t-58 -55t-50 -57q-53 -66 -96 -142zM819 864l15 -5q36 10 74 10q14 0 28 -1q52 -5 109 -36l2 2q-61 36 -118 42q-14 1 -28 1q-42 0 -82 -13zM827 857l7 2q25 -9 54 -25l-2 -2q-31 16 -59 25z" />
<glyph unicode="v" horiz-adv-x="269" d="M-16 438q2 30 9 63q13 75 42 170h62q-22 -85 -33 -152q-5 -29 -8.5 -55.5t-2.5 -47.5t6 -34t16 -13q10 0 23 9.5t26.5 25.5t27.5 37.5t27 45.5q-16 7 -28.5 24t-19 37.5t-6.5 42t9 39.5t27 29.5t46 11.5q18 0 25 -12.5t6 -34t-9.5 -49t-22.5 -56.5q15 -8 34 -2.5t41 34.5 q6 10 23 34t43.5 56t60.5 68t75 68t87.5 56t96.5 33q24 4 48 4q27 0 55 -5q52 -10 106 -47l-2 -2q-56 36 -112 44q-21 3 -43 3q-33 0 -65 -7q-52 -12 -99.5 -40t-87.5 -62q-95 -81 -179 -208q-28 -42 -53.5 -55t-46.5 -8q-17 -30 -38 -58.5t-42 -50.5q-21 -24 -42 -36 q-19 -12 -36 -11h-3q-20 1 -29 17q-10 16 -13 40q-2 13 -2 28q0 12 1 26zM166 601.5q0 -21.5 8.5 -43t22.5 -34.5q11 25 19 48.5t10 41.5q1 5 1 9q-1 12 -5 20q-6 11 -19 11q-20 0 -28.5 -15.5t-8.5 -37z" />
<glyph unicode="w" horiz-adv-x="394" d="M-30 378q-2 11 -2 23q0 13 2 31q4 32 16 68l62 171h63l-56 -171q-11 -30 -17.5 -56t-8.5 -45t1.5 -29.5t12.5 -10.5q8 0 18.5 9t21.5 25t22.5 37.5t21.5 47.5q8 34 19 69t21 62q11 33 24 62h62q-30 -85 -48 -152q-7 -29 -13 -55.5t-8 -47.5t2 -34t16 -13q10 0 22.5 9.5 t26 26t27.5 38t27 44.5q-16 7 -28.5 24t-19 37.5t-6.5 42t9 39.5t27 29.5t46 11.5q18 0 25 -12.5t6 -34t-9.5 -49t-22.5 -56.5q15 -8 34 -2.5t41 34.5q6 9 23 33.5t43.5 56.5t61 68t75 68t87 56t96.5 33q24 4 48 4q27 0 55 -5q53 -10 106 -47l-1 -2q-57 36 -113 44 q-21 3 -42 3q-33 0 -65 -7q-52 -12 -99.5 -40t-87.5 -62q-95 -81 -179 -208q-28 -42 -54 -55t-47 -8q-17 -30 -37.5 -58.5t-42.5 -50.5q-21 -24 -42 -36q-19 -12 -36 -11h-3q-16 1 -24.5 10.5t-11 26t-1.5 38t5 44.5q-24 -52 -52.5 -85t-57.5 -33q-17 0 -27 13.5t-14 36.5z M292 601.5q0 -21.5 8.5 -43t23.5 -34.5q11 25 18.5 48.5t9.5 41.5q1 5 1 9q-1 12 -5 20q-6 11 -19 11q-20 0 -28.5 -15.5t-8.5 -37z" />
<glyph unicode="x" horiz-adv-x="310" d="M-48 328q16 21 35 47q16 21 38 49t46 58q-5 33 -7.5 64.5t-3.5 58.5l-56 -87l-8 5l63 99q-1 11 -1 19.5v15.5v13h62v-38q1 -17 2 -39.5t3 -46.5q22 25 44 46.5t42 38t37.5 27t30.5 10.5q2 0 3 0.5t2 0.5q9 0 16 -7t7 -16t-7 -15.5t-16 -6.5q-8 0 -14 5t-8 12 q-31 -13 -66 -43t-69 -67q2 -29 6.5 -57.5t10 -51.5t13.5 -38.5t18 -18.5q16 -5 31 2t28 19.5t24.5 30t20.5 36t15.5 35t11.5 26.5q3 11 13 39.5t27.5 66.5t41.5 81.5t55 84.5t69.5 76t85 56.5t99.5 25.5q8 1 17 1q46 0 98 -18l-2 -3q-49 16 -92 16q-9 0 -18 -1 q-51 -4 -95.5 -24.5t-81.5 -53.5t-67.5 -71.5t-54 -79.5t-40.5 -77.5t-27.5 -66t-15.5 -43.5q-16 -55 -40 -97q-10 -19 -23 -36t-28.5 -31t-34.5 -22.5t-40 -8.5q-16 0 -28.5 11.5t-22.5 31.5t-16.5 45.5t-11.5 52.5q-23 -28 -42.5 -53t-32.5 -45q-16 -23 -31 -43h-15z" />
<glyph unicode="y" horiz-adv-x="303" d="M-156 -358q3 28 13 65t24 78t30 83.5t30 81.5q9 26 24 66l33 88t38.5 102.5t40.5 108.5t40 106t37 98q-20 -34 -43 -68.5t-45 -61.5t-41.5 -44t-32.5 -17q-17 0 -25 13t-8 36.5t7.5 54.5t19.5 68q13 37 26.5 68t25.5 54q13 27 25 49h64q-15 -28 -30 -57 q-12 -25 -25 -55.5t-22 -58.5q-10 -29 -18 -55t-13 -45.5t-5.5 -31t6.5 -11.5t26.5 22.5t43.5 56.5t48 73t40 71q8 21 14 38t11 29q5 15 10 26h66q-16 -38 -42.5 -103t-60 -146.5t-70 -172t-70.5 -180.5t-64.5 -171.5t-51 -144t-28.5 -99.5t2 -37q9 0 39.5 67t82 188 t123 288t164.5 366l9 22q9 23 26.5 58.5t43 79.5t59.5 86t76 79t91.5 59t105.5 24h8q53 0 113 -25l-1 -2q-56 22 -106 22q-7 0 -14 -1q-55 -3 -103.5 -26t-89 -59t-73.5 -78q-77 -98 -133 -239l-375 -859q-10 -25 -20 -44q-9 -16 -22 -30t-27 -14q-19 0 -25 17q-4 10 -4 25 q0 9 2 19z" />
<glyph unicode="z" horiz-adv-x="267" d="M-95 209q-2 7 -2 14q-1 17 11 36q16 27 48.5 55.5t74.5 58t83 57.5l-1 5q-10 25 -24 31.5t-27.5 4.5t-24.5 -9t-15 -11l-2 -1l-6 9l195 169q-16 -9 -34.5 -16.5t-39 -11.5t-41 -1.5t-38.5 14.5l-59 -98l-7 6l88 150v-1q3 -2 18 -9t39 -11.5t54.5 -2.5t65.5 19q2 -2 4 -5 l1 -2l-1 1l-1 -2l-204 -179q34 13 56 2.5t32 -34.5q29 20 55.5 37.5t46.5 33.5l20 14q21 13 55.5 32t80.5 40.5t98 37.5t108 22q22 3 44 2q33 0 65 -6q53 -10 101 -40.5t85 -88.5l-3 -1q-39 56 -87 84.5t-101 37.5q-29 5 -59 5q-25 1 -49 -3q-56 -8 -107 -24 q-122 -39 -252 -124q-16 -14 -42 -31t-55 -37q7 -26 1.5 -59.5t-22.5 -65.5q-15 -26 -35.5 -50.5t-43 -43.5t-45.5 -32t-43 -15q-5 -1 -9 -1q-15 0 -27 6q-16 8 -23 32zM-84 213q4 -15 18 -15h4q18 2 41 18.5t48 41.5t45.5 54t34.5 57t14 50q-39 -26 -78 -54.5t-69 -55.5 q-32 -27 -48 -51q-12 -18 -12 -34q0 -6 2 -11z" />
<glyph unicode="{" horiz-adv-x="281" d="M14 521q27 0 44.5 15t30 39.5t22 56t19 64t22.5 64t33.5 56t49 39.5t70.5 15l-3 -10q-36 0 -59.5 -25.5t-41 -63.5t-31.5 -82.5t-28.5 -82.5t-33 -63.5t-45.5 -25.5q20 0 30 -14.5t13.5 -37.5t2.5 -52.5t-2 -60.5t-1 -60.5t6 -52.5t20 -37t39 -14l-2 -14 q-39 0 -61.5 14.5t-32.5 38.5t-11.5 53.5t0.5 61.5t4 61.5t-1 53.5t-14 38.5t-37 14.5q0 -2 -1 4q-1 3 -1 7z" />
<glyph unicode="|" horiz-adv-x="240" d="M16 125l204 812h14l-205 -812h-13z" />
<glyph unicode="}" horiz-adv-x="259" d="M-68 174l2 10q35 0 59.5 25.5t42 63.5t31 83t28.5 83t33 63.5t45 25.5q-27 0 -36 24.5t-9.5 61t2.5 79t0 79t-17 61t-47 24.5l1 13q39 0 61.5 -14.5t33 -38t11.5 -53.5t-1 -61.5t-4 -61.5t1 -53.5t14 -38t37 -14.5q0 1 0 -1v-4l2 -7q-27 0 -44 -15t-30 -39.5t-22 -55.5 t-19 -64t-23.5 -64t-33 -55.5t-48 -40t-70.5 -15.5z" />
<glyph unicode="~" horiz-adv-x="220" d="M-11 651q13 14 31 22q16 7 39.5 8t54.5 -13t51 -16t33 2q15 4 24 14l6 -2q-12 -17 -31 -26q-16 -8 -41 -10t-59 13q-35 14 -55.5 16.5t-30.5 -0.5q-12 -3 -18 -11z" />
<glyph unicode="&#xa1;" horiz-adv-x="191" d="M-39 140q0 -20 18 -20q25 0 44 43t40 122t46.5 188t61.5 241h-15q-25 -86 -53 -163.5t-53 -143.5t-45.5 -119t-32 -90.5t-11.5 -57.5zM217 1010q4 15 15.5 24.5t24.5 9.5t20 -10t4 -24q-4 -15 -16 -24.5t-25 -9.5t-20 10t-3 24z" />
<glyph unicode="&#xa2;" horiz-adv-x="251" d="M-30.5 411q-0.5 36 13.5 78.5t39 81t59 66t73 34.5l67 266h13l-66 -264h6q19 0 27 -10.5t9 -25.5t-4.5 -33.5t-14.5 -35.5t-19.5 -30.5t-20.5 -17.5q-5 -2 -10 -2q-7 0 -12 3l-41 -163q27 13 57 44t57 62q29 38 59 81l6 -7q-28 -43 -58 -82q-13 -16 -28 -33t-31 -33 t-32.5 -29t-33.5 -21l-54 -215h-14l53 208q-14 -6 -30 -5q-37 0 -53 23.5t-16.5 59.5zM22.5 395q2.5 -25 17.5 -37q7 -7 15.5 -7.5t18.5 0.5l46 181q-2 5 -2 9q0 9 7 16l26 101q-18 -8 -37.5 -30t-36 -51t-30 -62t-20.5 -64t-4.5 -56zM140 563h1q12 0 19 -11q7 4 15.5 14.5 t14.5 22t9.5 25t2 24t-10 17.5t-24.5 7h-1l-1 -1z" />
<glyph unicode="&#xa3;" horiz-adv-x="1121" d="M-17 445q3 56 32.5 110t85 95.5t137 67.5t188.5 26q65 0 121.5 -13t107 -35.5t96 -54.5t87.5 -70q23 46 45 93.5t44 96.5h-87v12h92l18 42h-100v12h105q42 96 85 192t89.5 184t98.5 164t112.5 132t130.5 88t153 32q84 0 141.5 -20.5t90 -54t43.5 -76t4 -86.5t-30 -86.5 t-57.5 -76t-79 -54t-94.5 -20.5q-54 0 -93.5 14.5t-63 40.5t-29.5 62t6 79l4 -4q-11 -52 3 -91q6 -17 17 -33t30.5 -29t49 -20.5t70.5 -6.5q48 1 89.5 20t74 51t53 72.5t26 82.5t-5.5 82.5t-42.5 72t-85 50.5t-131.5 19q-68 0 -126 -31.5t-108.5 -86.5t-96 -129.5t-88 -161 t-83 -181.5t-82.5 -190h338v-12h-344l-19 -42h353v-12h-359q-28 -61 -56.5 -119.5t-59.5 -113.5q61 -62 118 -132.5t115.5 -140t120 -133t133.5 -112.5t156 -78t186 -29q84 0 137 20.5t82 52t35 69.5t-4.5 73t-36 63t-60.5 39t-77 1t-86 -51l-5 9q16 16 38 31 q19 11 44.5 20.5t57.5 9.5q53 0 93.5 -26t61 -64.5t17.5 -84t-35 -84t-97 -64t-169 -25.5q-119 0 -212.5 28t-168.5 75.5t-136 109.5t-114.5 130t-104 137.5t-104.5 130.5q-46 -77 -97 -142t-110 -112.5t-127 -74.5t-147 -27q-105 0 -182 25.5t-127.5 67.5t-74 95.5 t-20.5 109.5zM26.5 442.5q-2.5 -53.5 18.5 -104t66 -91t114 -64.5t162 -24q72 0 133.5 29.5t115.5 82t100.5 123.5t90.5 154q-39 39 -82 71.5t-92 56.5t-106.5 37t-124.5 13q-97 0 -170 -24.5t-122.5 -64.5t-75 -90.5t-28 -104z" />
<glyph unicode="&#xa4;" horiz-adv-x="260" d="M-24 371l60 60q-7 31 5 74q9 29 24 54l-75 74l8 8l72 -72q18 26 40.5 42t43.5 16q31 0 44 -34l69 70l9 -9l-74 -74q3 -16 2.5 -35t-7.5 -40q-9 -28 -22 -51l67 -66l-9 -8l-64 64q-17 -28 -40 -44.5t-45 -16.5q-32 0 -45 35l-55 -55zM59.5 431.5q6.5 -32.5 28.5 -32.5 q12 0 25.5 8t26 23t22.5 35t17 43q6 20 6 39.5t-4 34t-12 23t-19 8.5t-23 -8t-23 -21.5t-20.5 -32t-15.5 -38.5q-15 -49 -8.5 -81.5z" />
<glyph unicode="&#xa5;" horiz-adv-x="898" d="M-176 1068.5q-4 69.5 12 140.5t50.5 138t87 119t120.5 83.5t151 31.5q90 0 147.5 -17t89 -47t41 -72t3 -91.5t-25.5 -104.5t-43 -112q13 -29 11 -64.5t-16.5 -72t-42.5 -71.5t-67 -63q-20 -57 -27.5 -104.5t6 -83.5t52.5 -56t113 -20q66 0 125.5 38t113.5 103t103 150.5 t92.5 180.5t83 193.5t73.5 189.5h69q-49 -144 -110 -298q-26 -66 -56.5 -140.5t-66 -153.5t-74.5 -161t-81 -162h128v-11h-135q-4 -10 -9.5 -19.5t-9.5 -18.5h154v-11h-161q-62 -112 -129.5 -213t-138 -176.5t-142 -119.5t-142.5 -44q-73 0 -125 20.5t-84.5 54t-46 76.5 t-10 88t23 88t53.5 76.5t81 54t106 20.5l-2 -10q-47 0 -84 -19.5t-64.5 -51.5t-43.5 -73t-19.5 -84t7 -84t36 -73t67.5 -51.5t101 -19.5q57 0 118 43t123.5 116.5t124 172t120.5 209.5h-175v11h181q5 9 10 18.5t10 19.5h-201v11h206q52 99 98.5 201t88.5 198 q-42 -76 -86.5 -140t-92.5 -110.5t-100 -73t-108 -26.5q-82 0 -132 17.5t-75.5 47.5t-29 72t7.5 91q-44 -17 -94.5 -23.5t-108.5 0.5q-75 10 -124.5 49t-75.5 96.5t-30 127zM-143.5 1072.5q3.5 -67.5 26 -122.5t64.5 -92t106 -45q61 -9 112.5 -2t95.5 24q10 39 26.5 82 t36 87.5t41 89.5t40.5 89q-38 28 -104 28l-1 7q34 0 61 -7t48 -19q22 51 38.5 99t23 90t-0.5 77t-32 60.5t-71 39.5t-118 14q-78 0 -142 -30.5t-112 -81.5t-80.5 -116.5t-47 -134.5t-11 -136.5zM350 886q31 25 53.5 55t35 60.5t15.5 61.5t-4 57q-25 -61 -52 -120t-48 -114z " />
<glyph unicode="&#xa6;" horiz-adv-x="240" d="M29 213l88 331h13l-87 -331h-14zM134 606l86 331h14l-87 -331h-13z" />
<glyph unicode="&#xa7;" horiz-adv-x="258" d="M-44 365.5q-7 18.5 1.5 39.5t32.5 37q3 2 6.5 3t7.5 1q9 0 16 -6.5t7 -15.5t-7 -16t-16 -7q-12 0 -18 9q-16 -9 -20.5 -22.5t2.5 -26t23.5 -19.5t42.5 -1q18 3 29 19.5t15.5 40t4.5 53t-3 60.5q-7 70 -27 157l127 1q-2 34 -6 68.5t-9 63.5q-6 33 -13 64h29h99v-13h-65 q20 -102 23.5 -165.5t-6 -99.5t-34 -49.5t-60.5 -17.5q6 -59 2.5 -96t-16.5 -58.5t-34.5 -30.5t-51.5 -11q-33 -2 -54 9t-28 29.5zM117 655q7 -34 11.5 -63t7.5 -54q25 7 35 40t10 77h-64z" />
<glyph unicode="&#xa8;" horiz-adv-x="204" d="M16 813q4 15 15.5 25t24.5 10t19.5 -10.5t3.5 -24.5q-4 -15 -15.5 -24.5t-24.5 -9.5t-20.5 10.5t-2.5 23.5zM119 813q4 15 15.5 25t24.5 10t20 -10.5t4 -24.5q-4 -15 -16 -24.5t-25 -9.5t-20 10.5t-3 23.5z" />
<glyph unicode="&#xa9;" horiz-adv-x="522" d="M6 390.5q-5 54.5 10 116.5q16 62 47.5 116.5t73.5 95t90.5 64t96.5 23.5t85 -23.5t58.5 -64t26.5 -95t-11 -116.5q-15 -62 -46.5 -116.5t-73.5 -95t-90.5 -64t-96.5 -23.5t-85 23.5t-58.5 64t-26.5 95zM13.5 394q4.5 -53 25.5 -93t56 -63t82 -23t93.5 23t87 63t71.5 93 t46 114t11 114t-25 92.5t-56.5 62.5t-81.5 23q-47 0 -93.5 -23t-87 -62.5t-72 -92.5t-46.5 -114t-10.5 -114zM128 416.5q1 38.5 17.5 83.5t44.5 83.5t64.5 64t78.5 25.5q18 0 27 -10.5t9 -25.5t-5 -33.5t-13.5 -35.5t-19.5 -30.5t-21 -17.5q-7 -2 -10 -2q-9 0 -16 7t-7 16 t7 15.5t16 6.5q13 0 19 -11q7 4 15 14.5t14.5 22t10 25t2 24t-10 17.5t-24.5 7q-18 0 -38.5 -19t-39.5 -48t-35 -64.5t-24 -69.5t-6.5 -62t17.5 -41q10 -8 21.5 -7.5t25.5 7t29 18t30 26.5v-16q-26 -25 -54 -41.5t-54 -16.5q-38 0 -54.5 25t-15.5 63.5z" />
<glyph unicode="&#xaa;" horiz-adv-x="308" d="M55 501.5q-2 13.5 0 31.5t10 39q7 20 17 38t21 31.5t23 21.5t21 8q13 0 20 -12.5t6 -34.5q4 11 8 23t10 24h38q-17 -43 -29 -79l-10 -30t-8 -27.5t-4 -21.5t1 -12q4 -7 15.5 5.5t23.5 30.5t22 34t11 18q48 76 103 125q24 20 51.5 37.5t57 25t62.5 3t66 -25.5v-2 q-42 25 -82 24.5t-76.5 -16.5t-66.5 -42.5t-53.5 -53.5t-38.5 -50t-19 -30q-18 -30 -35 -54q-15 -20 -31 -38t-28 -19q-15 -2 -20 10t3 48q-15 -26 -32.5 -42t-32.5 -16q-10 0 -16 7.5t-8 21zM89 513q-3 -25 8 -25q9 0 23.5 16.5t27.5 42.5q2 13 7 28t11 34q3 21 0 34 t-10 13q-11 0 -25.5 -24.5t-26.5 -59.5q-12 -34 -15 -59z" />
<glyph unicode="&#xab;" horiz-adv-x="224" d="M1 515l177 113l-3 -14l-156 -101l69 -104l-6 -19zM50 515l177 113l-3 -14l-156 -101l69 -104l-6 -19z" />
<glyph unicode="&#xac;" horiz-adv-x="228" d="M20 512v11h192v-49h-15v38h-177z" />
<glyph unicode="&#xad;" horiz-adv-x="375" d="M46 487v24h273v-24h-273z" />
<glyph unicode="&#xae;" horiz-adv-x="522" d="M6 390.5q-5 54.5 10 116.5q16 62 47.5 116.5t73.5 95t90.5 64t96.5 23.5t85 -23.5t58.5 -64t26.5 -95t-11 -116.5q-15 -62 -46.5 -116.5t-73.5 -95t-90.5 -64t-96.5 -23.5t-85 23.5t-58.5 64t-26.5 95zM13.5 394q4.5 -53 25.5 -93t56 -63t82 -23t93.5 23t87 63t71.5 93 t46 114t11 114t-25 92.5t-56.5 62.5t-81.5 23q-47 0 -93.5 -23t-87 -62.5t-72 -92.5t-46.5 -114t-10.5 -114zM112 338q7 10 17.5 32t22.5 50t24 58.5t22.5 56.5t18 45.5t10.5 25.5h-22q-24 0 -36.5 12.5t-12 28t15 28t44.5 14.5q16 1 24 -4t11.5 -14t1.5 -21.5t-6 -26.5 l54 -1h1q49 0 58 -31t-25 -108q-5 -12 -12 -31t-10.5 -36t-2.5 -29.5t12 -13.5q7 -1 16 6.5t19 19.5v-16q-21 -24 -43 -40t-43 -16q-11 0 -17 7t-7 18.5t1 25.5t6 30q9 35 28 81q13 33 23.5 55.5t12.5 36t-6 19.5t-32 6h-41q-3 -8 -11.5 -29t-19.5 -48.5t-24 -57.5 t-24.5 -57t-21 -47.5t-13.5 -28.5h-13zM197.5 650.5q-1.5 -9.5 6 -18t30.5 -9.5q11 32 5.5 42.5t-15.5 10.5q-9 0 -17 -8t-9.5 -17.5z" />
<glyph unicode="&#xaf;" horiz-adv-x="288" d="M20 781v12h255v-12h-255z" />
<glyph unicode="&#xb0;" horiz-adv-x="138" d="M31 690q4 16 17.5 28t29.5 12q15 0 22.5 -12t3.5 -28t-17.5 -28t-29.5 -12q-15 0 -22.5 11.5t-3.5 28.5zM41 691q-2 -12 3 -21t17 -9q11 0 21 8.5t13 20.5t-2.5 20.5t-17.5 8.5q-11 0 -20.5 -8.5t-13.5 -19.5z" />
<glyph unicode="&#xb1;" horiz-adv-x="228" d="M20 374v12h192v-12h-192zM20 512v11h90v91h11v-91h91v-11h-91v-90h-11v90h-90z" />
<glyph unicode="&#xb2;" horiz-adv-x="408" d="M74 597q33 3 66 23.5t60.5 49t48 61t28.5 59.5t1.5 45t-31.5 18q-29 0 -52 -13t-35 -31t-12.5 -37t13.5 -31q2 5 9 4q4 0 8 -3.5t4 -7.5q0 -5 -4 -8t-8 -3q-3 0 -5 1q-23 9 -26 31.5t10 46.5t42 42t70 18q27 0 40.5 -14.5t13.5 -38t-13.5 -52t-39 -58t-64.5 -56.5 t-91 -46q27 0 43 -7.5t26 -18t16.5 -23.5t15 -23.5t22 -18t36.5 -7.5v-3q-36 0 -55.5 7t-31.5 18t-18.5 23t-16 23t-25 18t-44.5 7z" />
<glyph unicode="&#xb3;" horiz-adv-x="351" d="M17.5 542.5q-0.5 13.5 2.5 22.5h4h2q-5 -21 2 -37q6 -14 23.5 -25.5t57.5 -11.5q25 0 48 14t40 34.5t26.5 44.5t6 45t-20.5 34.5t-53 13.5l-2 6q39 0 67 13t45 32t23.5 41t3.5 41.5t-14.5 32t-31.5 12.5q-33 0 -58 -14.5t-39 -34.5t-14.5 -40.5t16.5 -32.5q2 6 11 6 q5 0 8.5 -3t3.5 -9q0 -5 -3.5 -8.5t-8.5 -3.5q-6 0 -8 3q-27 16 -28.5 40.5t16 48t49 40t69.5 16.5q25 0 39.5 -13.5t19 -34t0 -43.5t-18.5 -43.5t-36.5 -34t-51.5 -13.5q23 0 34.5 -15t12.5 -36.5t-8.5 -47t-28.5 -47t-47.5 -36.5t-66.5 -15q-34 0 -54 9.5t-28.5 22.5 t-9 26.5z" />
<glyph unicode="&#xb4;" horiz-adv-x="203" d="M35 771l2 12l153 81l-15 -53z" />
<glyph unicode="&#xb7;" horiz-adv-x="99" d="M16 516q4 14 15.5 24.5t24.5 10.5t19.5 -10.5t3.5 -25.5q-4 -14 -15.5 -24t-24.5 -10t-20.5 10t-2.5 25z" />
<glyph unicode="&#xb8;" horiz-adv-x="193" d="M1 230l10 6q27 -13 50 -18q20 -4 38.5 -2.5t25.5 19.5t-1 26.5t-20 12.5q-14 4 -33 5l14 53h37l-17 -48q19 -2 33 -7q11 -5 18.5 -15.5t1.5 -28.5q-5 -14 -14 -21t-21 -10t-25.5 -2t-27.5 4q-32 7 -69 26z" />
<glyph unicode="&#xb9;" horiz-adv-x="265" d="M10 516v7h67l63 186q-19 -24 -34 -36t-27 -17q-13 -6 -23 -6l1 10q25 0 48 20.5t42 47.5v1l55 99h1l3 7h14l-106 -312h59v-7h-163z" />
<glyph unicode="&#xba;" horiz-adv-x="236" d="M41.5 593.5q0.5 20.5 6.5 44.5q7 24 18.5 45t26 36t30.5 24t31 9q16 0 26.5 -9t16 -24t5 -36t-7.5 -45t-18.5 -44.5t-26 -36.5t-30.5 -25t-31 -9t-25.5 9t-16 25t-5 36.5zM78.5 571q6.5 -30 27.5 -30q11 0 23.5 8t23.5 22t20.5 32.5t15.5 40.5q6 20 6.5 37.5t-3.5 31 t-11 21t-18 7.5q-10 0 -21.5 -7t-21.5 -20t-19 -29.5t-15 -36.5q-14 -47 -7.5 -77z" />
<glyph unicode="&#xbb;" horiz-adv-x="224" d="M1 390l3 13l157 101l-70 105l6 19l82 -127zM50 390l3 13l157 101l-70 105l6 19l82 -127z" />
<glyph unicode="&#xbc;" horiz-adv-x="685" d="M-111 8l4 21q53 19 102.5 50t93.5 68.5t83 79.5t71 83.5t58 80.5t45 70l45 80h22l-179 -515h76v-18h-82l-67 -192h-61l68 192h-279zM-29 26h203l108 311q-53 -77 -108 -134.5t-100 -96.5q-52 -46 -103 -80zM143 630v11h368v-11h-368zM244 752v11h113l106 313 q-31 -40 -57 -60t-45 -29q-21 -10 -39 -9l1 17q20 0 40 9t39.5 24.5t37.5 36t34 43.5l1 2l92 165l2 2l4 10h23l-177 -524h99v-11h-274z" />
<glyph unicode="&#xbd;" horiz-adv-x="634" d="M-60 -15q49 6 98.5 30.5t94.5 61t84 81.5t68.5 91.5t47 90t18.5 77.5t-15.5 54.5t-53.5 20.5q-39 0 -72 -11.5t-58 -31.5t-41 -44t-21.5 -49t0 -47.5t23.5 -38.5q7 10 18 9q9 0 16 -7t7 -16t-7 -16t-16 -7q-3 0 -5.5 1t-5.5 2q-30 12 -42.5 37t-9.5 55.5t21 62.5t49 58 t74.5 43t97.5 17t81 -29t27 -74.5t-26 -103t-78 -115.5t-129 -111t-178 -90q53 0 84.5 -14.5t51 -36t32.5 -47t30 -47t43 -36t72 -14.5v-7q-53 0 -88 8t-57.5 21.5t-37 31t-26 35.5t-23 35t-30 30.5t-46.5 21.5t-71 8zM143 630v11h368v-11h-368zM184 756v12h113l105 312 q-31 -40 -57 -60.5t-44 -28.5q-21 -10 -40 -9l1 16q20 0 41 9.5t39.5 25t36.5 36.5t35 43l1 1l92 167l1 1l5 9h22l-177 -522h99v-12h-273z" />
<glyph unicode="&#xbe;" horiz-adv-x="598" d="M-112 -13l4 21q54 19 103 49.5t93 68.5t83 80t71 84t58 80.5t45 69.5l45 80h22l-179 -515h77v-18h-83l-66 -193h-62l67 193h-278zM-29 5h202l108 310q-53 -77 -108 -134t-100 -97q-52 -46 -102 -79zM97 760.5q0 25.5 6 42.5q1 -1 6 -1q2 0 5 1q-10 -39 2 -71 q5 -13 16 -25.5t28.5 -22.5t44 -15.5t64.5 -5.5q47 0 90 25.5t75 64.5t49.5 84t11.5 84t-38.5 65t-100.5 26v1v2.5v2.5l-2 6q74 0 125.5 24t83 59.5t43.5 77t7.5 77.5t-26.5 59.5t-58 23.5q-41 0 -76 -12.5t-62 -33t-45 -46t-24 -51t0 -48.5t28 -37q7 11 19 11q9 0 16 -7 t7 -16t-7 -15.5t-16 -6.5q-10 0 -14 6q-34 20 -46 47.5t-5.5 58t28.5 60.5t55 53t75.5 38t89.5 15q48 0 75.5 -25.5t36.5 -63t-0.5 -82t-35.5 -82t-67.5 -63t-96.5 -25.5q43 0 64.5 -27.5t23.5 -68.5t-16 -88.5t-54 -88.5t-89.5 -68.5t-123.5 -27.5q-65 0 -101.5 17.5 t-53.5 42t-17 50zM138 596v11h368v-11h-368zM356 1012z" />
<glyph unicode="&#xbf;" horiz-adv-x="385" d="M-86.5 239q-10.5 -52 5 -92.5t61 -65.5t123.5 -25q84 0 139.5 26t85 66t35.5 86t-8.5 86t-48.5 67.5t-84 29.5h-6q-9 -2 -14.5 -8t-5.5 -15t6.5 -16t15.5 -7t14.5 5t7.5 12q43 -3 70 -28t37 -61t1.5 -77t-37.5 -76t-79.5 -57.5t-125.5 -22.5q-58 0 -92 21t-45.5 57 t-1.5 83t38.5 97t75 101.5t107.5 95.5q39 29 71 67t54.5 79t37 81.5t19.5 73.5q-3 -3 -6 -1q-2 0 -5 1q-5 -29 -19.5 -66.5t-37.5 -76.5t-56 -74.5t-76 -59.5q-70 -41 -124.5 -93t-88 -106.5t-44 -106.5zM384 1027q4 15 15.5 25t24.5 10t20 -10.5t4 -24.5q-4 -15 -16 -24.5 t-25 -9.5q-14 0 -20.5 10t-2.5 24z" />
<glyph unicode="&#xc0;" horiz-adv-x="1726" d="M2.5 566.5q7.5 74.5 45.5 146t107 127t169.5 89.5t233.5 34q82 0 138 -17.5t89 -45.5t44.5 -65t4.5 -75t-30.5 -74.5t-61 -65t-86.5 -46t-107 -17.5q-81 0 -129.5 24t-70 60t-19 77t23 77t55 60t78.5 24v-4q-40 0 -70.5 -22.5t-47 -56.5t-17 -74t19.5 -74t63 -56.5 t112 -22.5q52 0 97 16.5t80 43.5t57.5 61.5t30 70.5t-2 70.5t-39.5 61.5t-82 43.5t-129 16.5q-111 0 -199.5 -33.5t-152.5 -88t-103 -123.5t-51.5 -141.5t2.5 -141.5t60 -123.5t120 -88t182 -33.5q89 0 170.5 30.5t156.5 82.5q-6 57 5 118.5t37.5 120.5t67.5 114t95.5 98.5 t122.5 72.5t147 38q29 47 56 91t51 83q43 69 89 133t93.5 121t96 106t96.5 87q-26 20 -54 39t-61 34.5t-71 25t-84 9.5q-57 0 -96 -20.5t-61 -50t-26.5 -65t8.5 -65.5t44 -50t80 -20q34 0 60 14t43 33t26.5 37.5t13.5 27.5l5 -1q-12 -34 -34 -60q-19 -22 -48.5 -40.5 t-74.5 -18.5q-51 0 -82.5 21.5t-45 53.5t-9 70t28.5 70t66 53.5t103 21.5q53 0 95 -9.5t75.5 -25t60.5 -34.5t51 -40q61 47 118 73t110 26q40 0 65 -16t36 -39.5t7 -51t-21 -51.5t-47 -40t-72 -16q-29 0 -53 7.5t-47 19.5q-79 -195 -132 -355t-86 -293q33 -39 47 -85t15 -95 t-10 -97.5t-29 -91.5t-40.5 -77t-46.5 -53q4 -59 16 -104t28 -78q57 19 109 37.5t97.5 33.5t83 24.5t63.5 9.5q49 0 71 -18t21 -44t-21.5 -57t-56 -57.5t-84.5 -44t-104 -17.5q-83 0 -137.5 28.5t-86.5 78.5q-68 -20 -139 -36t-141.5 -24t-137 -4t-126.5 23.5t-110.5 58 t-87.5 101.5q-28 48 -37 108q-77 -47 -158.5 -73.5t-169.5 -26.5q-111 0 -192 34t-134 90t-76 127t-15.5 145.5zM754 301q68 49 131 112t119.5 133.5t107 145t96.5 146.5q-69 -11 -130 -39t-113 -69.5t-93 -93t-68 -107.5t-40.5 -114.5t-9.5 -113.5zM758 275q9 -61 42 -113 q40 -61 90.5 -98.5t109 -56.5t123.5 -22t131.5 5t134.5 25t132 37q-31 54 -41 127.5t-3.5 159.5t26 182t48.5 194q-46 57 -115 92.5t-157 36.5q-53 -80 -112.5 -161.5t-125 -156t-136 -139t-147.5 -112.5zM1289 859q100 -2 168 -24t111 -61q28 90 59 178.5t62 169.5t60 153 t51 128q-19 11 -38 25.5t-38 28.5q-78 -77 -164 -193.5t-181 -266.5q-21 -34 -43.5 -68t-46.5 -70zM1528 260q44 48 67.5 102.5t28 110t-8 109t-40.5 99.5q-30 -136 -41 -239.5t-6 -181.5zM1578 58q19 -34 41.5 -55.5t46 -34t47 -17.5t43.5 -5q46 0 86.5 15t71.5 37.5t50 49 t22.5 49t-11.5 37.5t-52 15q-26 0 -62.5 -8t-81 -21t-95.5 -29t-106 -33zM1735 1467q17 -14 34 -27.5t36 -23.5q20 52 33 87.5t14 51.5q-55 -28 -117 -88zM1815 1411q21 -11 44.5 -18t51.5 -7q43 0 71 14.5t42.5 35.5t15.5 46.5t-9.5 47t-32.5 35.5t-56 14q-30 0 -64 -12 q-17 -41 -33 -79.5t-30 -76.5zM1829 1830l144 -96v-12l-136 54z" />
<glyph unicode="&#xc1;" horiz-adv-x="1726" d="M2.5 566.5q7.5 74.5 45.5 146t107 127t169.5 89.5t233.5 34q82 0 138 -17.5t89 -45.5t44.5 -65t4.5 -75t-30.5 -74.5t-61 -65t-86.5 -46t-107 -17.5q-81 0 -129.5 24t-70 60t-19 77t23 77t55 60t78.5 24v-4q-40 0 -70.5 -22.5t-47 -56.5t-17 -74t19.5 -74t63 -56.5 t112 -22.5q52 0 97 16.5t80 43.5t57.5 61.5t30 70.5t-2 70.5t-39.5 61.5t-82 43.5t-129 16.5q-111 0 -199.5 -33.5t-152.5 -88t-103 -123.5t-51.5 -141.5t2.5 -141.5t60 -123.5t120 -88t182 -33.5q89 0 170.5 30.5t156.5 82.5q-6 57 5 118.5t37.5 120.5t67.5 114t95.5 98.5 t122.5 72.5t147 38q29 47 56 91t51 83q43 69 89 133t93.5 121t96 106t96.5 87q-26 20 -54 39t-61 34.5t-71 25t-84 9.5q-57 0 -96 -20.5t-61 -50t-26.5 -65t8.5 -65.5t44 -50t80 -20q34 0 60 14t43 33t26.5 37.5t13.5 27.5l5 -1q-12 -34 -34 -60q-19 -22 -48.5 -40.5 t-74.5 -18.5q-51 0 -82.5 21.5t-45 53.5t-9 70t28.5 70t66 53.5t103 21.5q53 0 95 -9.5t75.5 -25t60.5 -34.5t51 -40q61 47 118 73t110 26q40 0 65 -16t36 -39.5t7 -51t-21 -51.5t-47 -40t-72 -16q-29 0 -53 7.5t-47 19.5q-79 -195 -132 -355t-86 -293q33 -39 47 -85t15 -95 t-10 -97.5t-29 -91.5t-40.5 -77t-46.5 -53q4 -59 16 -104t28 -78q57 19 109 37.5t97.5 33.5t83 24.5t63.5 9.5q49 0 71 -18t21 -44t-21.5 -57t-56 -57.5t-84.5 -44t-104 -17.5q-83 0 -137.5 28.5t-86.5 78.5q-68 -20 -139 -36t-141.5 -24t-137 -4t-126.5 23.5t-110.5 58 t-87.5 101.5q-28 48 -37 108q-77 -47 -158.5 -73.5t-169.5 -26.5q-111 0 -192 34t-134 90t-76 127t-15.5 145.5zM754 301q68 49 131 112t119.5 133.5t107 145t96.5 146.5q-69 -11 -130 -39t-113 -69.5t-93 -93t-68 -107.5t-40.5 -114.5t-9.5 -113.5zM758 275q9 -61 42 -113 q40 -61 90.5 -98.5t109 -56.5t123.5 -22t131.5 5t134.5 25t132 37q-31 54 -41 127.5t-3.5 159.5t26 182t48.5 194q-46 57 -115 92.5t-157 36.5q-53 -80 -112.5 -161.5t-125 -156t-136 -139t-147.5 -112.5zM1289 859q100 -2 168 -24t111 -61q28 90 59 178.5t62 169.5t60 153 t51 128q-19 11 -38 25.5t-38 28.5q-78 -77 -164 -193.5t-181 -266.5q-21 -34 -43.5 -68t-46.5 -70zM1528 260q44 48 67.5 102.5t28 110t-8 109t-40.5 99.5q-30 -136 -41 -239.5t-6 -181.5zM1578 58q19 -34 41.5 -55.5t46 -34t47 -17.5t43.5 -5q46 0 86.5 15t71.5 37.5t50 49 t22.5 49t-11.5 37.5t-52 15q-26 0 -62.5 -8t-81 -21t-95.5 -29t-106 -33zM1735 1467q17 -14 34 -27.5t36 -23.5q20 52 33 87.5t14 51.5q-55 -28 -117 -88zM1815 1411q21 -11 44.5 -18t51.5 -7q43 0 71 14.5t42.5 35.5t15.5 46.5t-9.5 47t-32.5 35.5t-56 14q-30 0 -64 -12 q-17 -41 -33 -79.5t-30 -76.5zM1850 1729l1 13l154 81l-15 -54z" />
<glyph unicode="&#xc2;" horiz-adv-x="1726" d="M2.5 566.5q7.5 74.5 45.5 146t107 127t169.5 89.5t233.5 34q82 0 138 -17.5t89 -45.5t44.5 -65t4.5 -75t-30.5 -74.5t-61 -65t-86.5 -46t-107 -17.5q-81 0 -129.5 24t-70 60t-19 77t23 77t55 60t78.5 24v-4q-40 0 -70.5 -22.5t-47 -56.5t-17 -74t19.5 -74t63 -56.5 t112 -22.5q52 0 97 16.5t80 43.5t57.5 61.5t30 70.5t-2 70.5t-39.5 61.5t-82 43.5t-129 16.5q-111 0 -199.5 -33.5t-152.5 -88t-103 -123.5t-51.5 -141.5t2.5 -141.5t60 -123.5t120 -88t182 -33.5q89 0 170.5 30.5t156.5 82.5q-6 57 5 118.5t37.5 120.5t67.5 114t95.5 98.5 t122.5 72.5t147 38q29 47 56 91t51 83q43 69 89 133t93.5 121t96 106t96.5 87q-26 20 -54 39t-61 34.5t-71 25t-84 9.5q-57 0 -96 -20.5t-61 -50t-26.5 -65t8.5 -65.5t44 -50t80 -20q34 0 60 14t43 33t26.5 37.5t13.5 27.5l5 -1q-12 -34 -34 -60q-19 -22 -48.5 -40.5 t-74.5 -18.5q-51 0 -82.5 21.5t-45 53.5t-9 70t28.5 70t66 53.5t103 21.5q53 0 95 -9.5t75.5 -25t60.5 -34.5t51 -40q61 47 118 73t110 26q40 0 65 -16t36 -39.5t7 -51t-21 -51.5t-47 -40t-72 -16q-29 0 -53 7.5t-47 19.5q-79 -195 -132 -355t-86 -293q33 -39 47 -85t15 -95 t-10 -97.5t-29 -91.5t-40.5 -77t-46.5 -53q4 -59 16 -104t28 -78q57 19 109 37.5t97.5 33.5t83 24.5t63.5 9.5q49 0 71 -18t21 -44t-21.5 -57t-56 -57.5t-84.5 -44t-104 -17.5q-83 0 -137.5 28.5t-86.5 78.5q-68 -20 -139 -36t-141.5 -24t-137 -4t-126.5 23.5t-110.5 58 t-87.5 101.5q-28 48 -37 108q-77 -47 -158.5 -73.5t-169.5 -26.5q-111 0 -192 34t-134 90t-76 127t-15.5 145.5zM754 301q68 49 131 112t119.5 133.5t107 145t96.5 146.5q-69 -11 -130 -39t-113 -69.5t-93 -93t-68 -107.5t-40.5 -114.5t-9.5 -113.5zM758 275q9 -61 42 -113 q40 -61 90.5 -98.5t109 -56.5t123.5 -22t131.5 5t134.5 25t132 37q-31 54 -41 127.5t-3.5 159.5t26 182t48.5 194q-46 57 -115 92.5t-157 36.5q-53 -80 -112.5 -161.5t-125 -156t-136 -139t-147.5 -112.5zM1289 859q100 -2 168 -24t111 -61q28 90 59 178.5t62 169.5t60 153 t51 128q-19 11 -38 25.5t-38 28.5q-78 -77 -164 -193.5t-181 -266.5q-21 -34 -43.5 -68t-46.5 -70zM1528 260q44 48 67.5 102.5t28 110t-8 109t-40.5 99.5q-30 -136 -41 -239.5t-6 -181.5zM1578 58q19 -34 41.5 -55.5t46 -34t47 -17.5t43.5 -5q46 0 86.5 15t71.5 37.5t50 49 t22.5 49t-11.5 37.5t-52 15q-26 0 -62.5 -8t-81 -21t-95.5 -29t-106 -33zM1735 1467q17 -14 34 -27.5t36 -23.5q20 52 33 87.5t14 51.5q-55 -28 -117 -88zM1813 1742l122 89h15l51 -85h-41l-38 58l-94 -62h-15zM1815 1411q21 -11 44.5 -18t51.5 -7q43 0 71 14.5t42.5 35.5 t15.5 46.5t-9.5 47t-32.5 35.5t-56 14q-30 0 -64 -12q-17 -41 -33 -79.5t-30 -76.5z" />
<glyph unicode="&#xc3;" horiz-adv-x="1726" d="M2.5 566.5q7.5 74.5 45.5 146t107 127t169.5 89.5t233.5 34q82 0 138 -17.5t89 -45.5t44.5 -65t4.5 -75t-30.5 -74.5t-61 -65t-86.5 -46t-107 -17.5q-81 0 -129.5 24t-70 60t-19 77t23 77t55 60t78.5 24v-4q-40 0 -70.5 -22.5t-47 -56.5t-17 -74t19.5 -74t63 -56.5 t112 -22.5q52 0 97 16.5t80 43.5t57.5 61.5t30 70.5t-2 70.5t-39.5 61.5t-82 43.5t-129 16.5q-111 0 -199.5 -33.5t-152.5 -88t-103 -123.5t-51.5 -141.5t2.5 -141.5t60 -123.5t120 -88t182 -33.5q89 0 170.5 30.5t156.5 82.5q-6 57 5 118.5t37.5 120.5t67.5 114t95.5 98.5 t122.5 72.5t147 38q29 47 56 91t51 83q43 69 89 133t93.5 121t96 106t96.5 87q-26 20 -54 39t-61 34.5t-71 25t-84 9.5q-57 0 -96 -20.5t-61 -50t-26.5 -65t8.5 -65.5t44 -50t80 -20q34 0 60 14t43 33t26.5 37.5t13.5 27.5l5 -1q-12 -34 -34 -60q-19 -22 -48.5 -40.5 t-74.5 -18.5q-51 0 -82.5 21.5t-45 53.5t-9 70t28.5 70t66 53.5t103 21.5q53 0 95 -9.5t75.5 -25t60.5 -34.5t51 -40q61 47 118 73t110 26q40 0 65 -16t36 -39.5t7 -51t-21 -51.5t-47 -40t-72 -16q-29 0 -53 7.5t-47 19.5q-79 -195 -132 -355t-86 -293q33 -39 47 -85t15 -95 t-10 -97.5t-29 -91.5t-40.5 -77t-46.5 -53q4 -59 16 -104t28 -78q57 19 109 37.5t97.5 33.5t83 24.5t63.5 9.5q49 0 71 -18t21 -44t-21.5 -57t-56 -57.5t-84.5 -44t-104 -17.5q-83 0 -137.5 28.5t-86.5 78.5q-68 -20 -139 -36t-141.5 -24t-137 -4t-126.5 23.5t-110.5 58 t-87.5 101.5q-28 48 -37 108q-77 -47 -158.5 -73.5t-169.5 -26.5q-111 0 -192 34t-134 90t-76 127t-15.5 145.5zM754 301q68 49 131 112t119.5 133.5t107 145t96.5 146.5q-69 -11 -130 -39t-113 -69.5t-93 -93t-68 -107.5t-40.5 -114.5t-9.5 -113.5zM758 275q9 -61 42 -113 q40 -61 90.5 -98.5t109 -56.5t123.5 -22t131.5 5t134.5 25t132 37q-31 54 -41 127.5t-3.5 159.5t26 182t48.5 194q-46 57 -115 92.5t-157 36.5q-53 -80 -112.5 -161.5t-125 -156t-136 -139t-147.5 -112.5zM1289 859q100 -2 168 -24t111 -61q28 90 59 178.5t62 169.5t60 153 t51 128q-19 11 -38 25.5t-38 28.5q-78 -77 -164 -193.5t-181 -266.5q-21 -34 -43.5 -68t-46.5 -70zM1528 260q44 48 67.5 102.5t28 110t-8 109t-40.5 99.5q-30 -136 -41 -239.5t-6 -181.5zM1578 58q19 -34 41.5 -55.5t46 -34t47 -17.5t43.5 -5q46 0 86.5 15t71.5 37.5t50 49 t22.5 49t-11.5 37.5t-52 15q-26 0 -62.5 -8t-81 -21t-95.5 -29t-106 -33zM1735 1467q17 -14 34 -27.5t36 -23.5q20 52 33 87.5t14 51.5q-55 -28 -117 -88zM1815 1411q21 -11 44.5 -18t51.5 -7q43 0 71 14.5t42.5 35.5t15.5 46.5t-9.5 47t-32.5 35.5t-56 14q-30 0 -64 -12 q-17 -41 -33 -79.5t-30 -76.5zM1821 1757q12 14 31 22q16 7 39 7.5t55 -12.5q31 -14 51 -16t33 2q15 4 24 14l5 -2q-12 -17 -31 -26q-16 -8 -40.5 -10t-59.5 13q-35 14 -55 16.5t-31 -0.5q-12 -3 -17 -11z" />
<glyph unicode="&#xc4;" horiz-adv-x="1726" d="M2.5 566.5q7.5 74.5 45.5 146t107 127t169.5 89.5t233.5 34q82 0 138 -17.5t89 -45.5t44.5 -65t4.5 -75t-30.5 -74.5t-61 -65t-86.5 -46t-107 -17.5q-81 0 -129.5 24t-70 60t-19 77t23 77t55 60t78.5 24v-4q-40 0 -70.5 -22.5t-47 -56.5t-17 -74t19.5 -74t63 -56.5 t112 -22.5q52 0 97 16.5t80 43.5t57.5 61.5t30 70.5t-2 70.5t-39.5 61.5t-82 43.5t-129 16.5q-111 0 -199.5 -33.5t-152.5 -88t-103 -123.5t-51.5 -141.5t2.5 -141.5t60 -123.5t120 -88t182 -33.5q89 0 170.5 30.5t156.5 82.5q-6 57 5 118.5t37.5 120.5t67.5 114t95.5 98.5 t122.5 72.5t147 38q29 47 56 91t51 83q43 69 89 133t93.5 121t96 106t96.5 87q-26 20 -54 39t-61 34.5t-71 25t-84 9.5q-57 0 -96 -20.5t-61 -50t-26.5 -65t8.5 -65.5t44 -50t80 -20q34 0 60 14t43 33t26.5 37.5t13.5 27.5l5 -1q-12 -34 -34 -60q-19 -22 -48.5 -40.5 t-74.5 -18.5q-51 0 -82.5 21.5t-45 53.5t-9 70t28.5 70t66 53.5t103 21.5q53 0 95 -9.5t75.5 -25t60.5 -34.5t51 -40q61 47 118 73t110 26q40 0 65 -16t36 -39.5t7 -51t-21 -51.5t-47 -40t-72 -16q-29 0 -53 7.5t-47 19.5q-79 -195 -132 -355t-86 -293q33 -39 47 -85t15 -95 t-10 -97.5t-29 -91.5t-40.5 -77t-46.5 -53q4 -59 16 -104t28 -78q57 19 109 37.5t97.5 33.5t83 24.5t63.5 9.5q49 0 71 -18t21 -44t-21.5 -57t-56 -57.5t-84.5 -44t-104 -17.5q-83 0 -137.5 28.5t-86.5 78.5q-68 -20 -139 -36t-141.5 -24t-137 -4t-126.5 23.5t-110.5 58 t-87.5 101.5q-28 48 -37 108q-77 -47 -158.5 -73.5t-169.5 -26.5q-111 0 -192 34t-134 90t-76 127t-15.5 145.5zM754 301q68 49 131 112t119.5 133.5t107 145t96.5 146.5q-69 -11 -130 -39t-113 -69.5t-93 -93t-68 -107.5t-40.5 -114.5t-9.5 -113.5zM758 275q9 -61 42 -113 q40 -61 90.5 -98.5t109 -56.5t123.5 -22t131.5 5t134.5 25t132 37q-31 54 -41 127.5t-3.5 159.5t26 182t48.5 194q-46 57 -115 92.5t-157 36.5q-53 -80 -112.5 -161.5t-125 -156t-136 -139t-147.5 -112.5zM1289 859q100 -2 168 -24t111 -61q28 90 59 178.5t62 169.5t60 153 t51 128q-19 11 -38 25.5t-38 28.5q-78 -77 -164 -193.5t-181 -266.5q-21 -34 -43.5 -68t-46.5 -70zM1528 260q44 48 67.5 102.5t28 110t-8 109t-40.5 99.5q-30 -136 -41 -239.5t-6 -181.5zM1578 58q19 -34 41.5 -55.5t46 -34t47 -17.5t43.5 -5q46 0 86.5 15t71.5 37.5t50 49 t22.5 49t-11.5 37.5t-52 15q-26 0 -62.5 -8t-81 -21t-95.5 -29t-106 -33zM1735 1467q17 -14 34 -27.5t36 -23.5q20 52 33 87.5t14 51.5q-55 -28 -117 -88zM1815 1411q21 -11 44.5 -18t51.5 -7q43 0 71 14.5t42.5 35.5t15.5 46.5t-9.5 47t-32.5 35.5t-56 14q-30 0 -64 -12 q-17 -41 -33 -79.5t-30 -76.5zM1846 1772q4 15 15.5 24.5t25.5 9.5q13 0 19.5 -10t3.5 -24q-4 -15 -15.5 -24.5t-25.5 -9.5q-13 0 -20 10t-3 24zM1949 1772q4 15 15.5 24.5t25.5 9.5q13 0 19.5 -10t3.5 -24q-4 -15 -15.5 -24.5t-25.5 -9.5q-13 0 -19.5 10t-3.5 24z" />
<glyph unicode="&#xc5;" horiz-adv-x="1726" d="M2.5 566.5q7.5 74.5 45.5 146t107 127t169.5 89.5t233.5 34q82 0 138 -17.5t89 -45.5t44.5 -65t4.5 -75t-30.5 -74.5t-61 -65t-86.5 -46t-107 -17.5q-81 0 -129.5 24t-70 60t-19 77t23 77t55 60t78.5 24v-4q-40 0 -70.5 -22.5t-47 -56.5t-17 -74t19.5 -74t63 -56.5 t112 -22.5q52 0 97 16.5t80 43.5t57.5 61.5t30 70.5t-2 70.5t-39.5 61.5t-82 43.5t-129 16.5q-111 0 -199.5 -33.5t-152.5 -88t-103 -123.5t-51.5 -141.5t2.5 -141.5t60 -123.5t120 -88t182 -33.5q89 0 170.5 30.5t156.5 82.5q-6 57 5 118.5t37.5 120.5t67.5 114t95.5 98.5 t122.5 72.5t147 38q29 47 56 91t51 83q43 69 89 133t93.5 121t96 106t96.5 87q-26 20 -54 39t-61 34.5t-71 25t-84 9.5q-57 0 -96 -20.5t-61 -50t-26.5 -65t8.5 -65.5t44 -50t80 -20q34 0 60 14t43 33t26.5 37.5t13.5 27.5l5 -1q-12 -34 -34 -60q-19 -22 -48.5 -40.5 t-74.5 -18.5q-51 0 -82.5 21.5t-45 53.5t-9 70t28.5 70t66 53.5t103 21.5q53 0 95 -9.5t75.5 -25t60.5 -34.5t51 -40q61 47 118 73t110 26q40 0 65 -16t36 -39.5t7 -51t-21 -51.5t-47 -40t-72 -16q-29 0 -53 7.5t-47 19.5q-79 -195 -132 -355t-86 -293q33 -39 47 -85t15 -95 t-10 -97.5t-29 -91.5t-40.5 -77t-46.5 -53q4 -59 16 -104t28 -78q57 19 109 37.5t97.5 33.5t83 24.5t63.5 9.5q49 0 71 -18t21 -44t-21.5 -57t-56 -57.5t-84.5 -44t-104 -17.5q-83 0 -137.5 28.5t-86.5 78.5q-68 -20 -139 -36t-141.5 -24t-137 -4t-126.5 23.5t-110.5 58 t-87.5 101.5q-28 48 -37 108q-77 -47 -158.5 -73.5t-169.5 -26.5q-111 0 -192 34t-134 90t-76 127t-15.5 145.5zM754 301q68 49 131 112t119.5 133.5t107 145t96.5 146.5q-69 -11 -130 -39t-113 -69.5t-93 -93t-68 -107.5t-40.5 -114.5t-9.5 -113.5zM758 275q9 -61 42 -113 q40 -61 90.5 -98.5t109 -56.5t123.5 -22t131.5 5t134.5 25t132 37q-31 54 -41 127.5t-3.5 159.5t26 182t48.5 194q-46 57 -115 92.5t-157 36.5q-53 -80 -112.5 -161.5t-125 -156t-136 -139t-147.5 -112.5zM1289 859q100 -2 168 -24t111 -61q28 90 59 178.5t62 169.5t60 153 t51 128q-19 11 -38 25.5t-38 28.5q-78 -77 -164 -193.5t-181 -266.5q-21 -34 -43.5 -68t-46.5 -70zM1528 260q44 48 67.5 102.5t28 110t-8 109t-40.5 99.5q-30 -136 -41 -239.5t-6 -181.5zM1578 58q19 -34 41.5 -55.5t46 -34t47 -17.5t43.5 -5q46 0 86.5 15t71.5 37.5t50 49 t22.5 49t-11.5 37.5t-52 15q-26 0 -62.5 -8t-81 -21t-95.5 -29t-106 -33zM1735 1467q17 -14 34 -27.5t36 -23.5q20 52 33 87.5t14 51.5q-55 -28 -117 -88zM1815 1411q21 -11 44.5 -18t51.5 -7q43 0 71 14.5t42.5 35.5t15.5 46.5t-9.5 47t-32.5 35.5t-56 14q-30 0 -64 -12 q-17 -41 -33 -79.5t-30 -76.5zM1861 1772q4 16 17.5 28t29.5 12q15 0 22 -12t3 -28t-17 -27.5t-29 -11.5t-23 11.5t-3 27.5zM1871 1773q-3 -12 2.5 -21t17.5 -9q11 0 21 9t13 20q3 12 -2.5 20.5t-17.5 8.5q-11 0 -20.5 -8.5t-13.5 -19.5z" />
<glyph unicode="&#xc6;" horiz-adv-x="2167" d="M2.5 566.5q7.5 74.5 45.5 146t107 127t169.5 89.5t233.5 34q82 0 138 -17.5t89 -45.5t44.5 -65t4.5 -75t-30.5 -74.5t-61 -65t-86.5 -46t-107 -17.5q-81 0 -129.5 24t-70 60t-19 77t23 77t55 60t78.5 24v-4q-40 0 -70.5 -22.5t-47 -56.5t-17 -74t19.5 -74t63 -56.5 t112 -22.5q52 0 97 16.5t80 43.5t57.5 61.5t30 70.5t-2 70.5t-39.5 61.5t-82 43.5t-129 16.5q-111 0 -199.5 -33.5t-152.5 -88t-103 -123.5t-51.5 -141.5t2.5 -141.5t60 -123.5t120 -88t182 -33.5q89 0 170.5 30.5t156.5 82.5q-6 57 5 118.5t37.5 120.5t67.5 114t95.5 98.5 t122.5 72.5t147 38q29 47 56 91t51 83q43 69 89 133t93.5 121t96 106t96.5 87q-26 20 -54 39t-61 34.5t-71 25t-84 9.5q-57 0 -96 -20.5t-61 -50t-26.5 -65t8.5 -65.5t44 -50t80 -20q34 0 60 14t43 33t26.5 37.5t13.5 27.5l5 -1q-12 -34 -34 -60q-19 -22 -48.5 -40.5 t-74.5 -18.5q-51 0 -82.5 21.5t-45 53.5t-9 70t28.5 70t66 53.5t103 21.5q53 0 95 -9.5t75.5 -25t60.5 -34.5t51 -40q61 47 118 73t110 26h9t9 -1q43 19 95.5 29.5t113.5 10.5q87 0 149.5 -19.5t102 -52t57.5 -73t15.5 -84t-23.5 -85t-60.5 -74t-95.5 -52.5t-128 -21v12 q52 1 96.5 20t76.5 50t52 70t24.5 79.5t-7.5 79.5t-44 69.5t-84.5 49t-128.5 18.5q-49 0 -91.5 -10t-78.5 -28q34 -17 44.5 -51t-1.5 -67.5t-46 -58.5t-88 -25q-42 0 -76 15q-23 -62 -21.5 -126.5t27 -117t76 -86t126.5 -33.5l4 -8q-129 0 -233 -34.5t-184 -93.5 q-11 -36 -20 -70t-17 -67q33 -39 47 -85t15 -95t-10 -97.5t-29 -91.5t-40.5 -77t-46.5 -53q1 -9 1.5 -17.5t1.5 -17.5q34 -17 75 -26.5t91 -9.5q89 0 154 18.5t108 49t67 68.5t32 79q-29 -16 -64.5 -26t-78.5 -10q-48 0 -81.5 21t-53 52.5t-22 68t14 68.5t54 53t96.5 21 q34 0 65.5 -16t57 -42.5t42.5 -62t22 -73.5q16 15 28 29t20 25q9 13 15 25l12 -7q-7 -14 -18 -29q-9 -13 -22.5 -28t-32.5 -31q2 -49 -17 -97.5t-67.5 -87t-130 -62t-202.5 -22.5q-47 0 -86 5.5t-74 15.5q7 -36 16.5 -64t20.5 -52q57 19 109 37.5t97.5 33.5t83 24.5 t63.5 9.5q49 0 71 -18t21 -44t-21.5 -57t-56 -57.5t-84.5 -44t-104 -17.5q-83 0 -137.5 28.5t-86.5 78.5q-68 -20 -139 -36t-141.5 -24t-137 -4t-126.5 23.5t-110.5 58t-87.5 101.5q-28 48 -37 108q-77 -47 -158.5 -73.5t-169.5 -26.5q-111 0 -192 34t-134 90t-76 127 t-15.5 145.5zM754 301q68 49 131 112t119.5 133.5t107 145t96.5 146.5q-69 -11 -130 -39t-113 -69.5t-93 -93t-68 -107.5t-40.5 -114.5t-9.5 -113.5zM758 275q9 -61 42 -113q40 -61 90.5 -98.5t109 -56.5t123.5 -22t131.5 5t134.5 25t132 37q-19 32 -29.5 71t-15.5 84 q-56 26 -91 66.5t-51.5 89t-15.5 103t17.5 111t48 112.5t75.5 106q-38 23 -83.5 35.5t-96.5 13.5q-53 -80 -112.5 -161.5t-125 -156t-136 -139t-147.5 -112.5zM1289 859q61 -1 110 -10t88 -25q57 57 131 103q30 88 61 169.5t59 153.5q-1 42 9 84t31 83q-14 9 -27 19t-27 21 q-78 -77 -164 -193.5t-181 -266.5q-21 -34 -43.5 -68t-46.5 -70zM1393 488q-4 -68 16 -128t65 -103q-2 100 19.5 217t57.5 241q-20 26 -49 49q-50 -66 -77.5 -137t-31.5 -139zM1528 260q44 48 67.5 102.5t28 110t-8 109t-40.5 99.5q-30 -136 -41 -239.5t-6 -181.5zM1532 800 q20 -12 36 -26q7 22 13.5 44t14.5 44q-35 -29 -64 -62zM1578 58q19 -34 41.5 -55.5t46 -34t47 -17.5t43.5 -5q46 0 86.5 15t71.5 37.5t50 49t22.5 49t-11.5 37.5t-52 15q-26 0 -62.5 -8t-81 -21t-95.5 -29t-106 -33zM1646 942q66 35 141.5 55t159.5 20q-46 0 -82 16 t-62 43.5t-41.5 65t-20.5 79.5q-28 -75 -52 -145t-43 -134zM1735 1467q12 -10 24.5 -20t25.5 -19q10 19 22.5 35.5t27.5 33.5q15 40 17 58q-55 -28 -117 -88zM1779.5 496.5q1.5 -33.5 18.5 -62t47.5 -48t74.5 -19.5q42 0 77 12t63 30q5 41 -4 80t-28 69.5t-46.5 49 t-60.5 18.5q-50 0 -81.5 -19.5t-46.5 -48t-13.5 -62zM1840 1398q32 -12 71 -12q54 0 85.5 22.5t40.5 53t-2.5 60.5t-42.5 46q-55 -29 -93 -73.5t-59 -96.5zM1858 1519q20 18 42.5 33t48.5 27h-7q-30 0 -64 -12z" />
<glyph unicode="&#xc7;" horiz-adv-x="656" d="M0 453.5q0 94.5 20 200t58 214.5t90 212.5t116 194.5t137.5 159t153.5 108t164 40q69 0 111 -29t62 -76t19.5 -108t-18.5 -123.5t-52 -123t-79.5 -108t-101.5 -76.5t-119 -29q-51 0 -82 15.5t-46 40.5t-16 57.5t9.5 66.5t30.5 66.5t46 57.5t56 40.5t61 15.5q35 0 53 -17 t26 -36q9 -24 8 -54l-11 -5q3 29 -4 51q-3 10 -8.5 18.5t-14.5 15.5t-22 11.5t-30 4.5q-28 0 -57.5 -25t-53.5 -61.5t-38 -80.5t-11 -81t27 -62t77 -25q48 0 94.5 28t88.5 73t76 103t54.5 118.5t26 118t-10 102.5t-54 73t-105.5 28q-64 -1 -130.5 -42t-131 -111t-125 -162.5 t-111.5 -196t-90.5 -213.5t-62.5 -213.5t-27.5 -195.5t14.5 -161.5t64 -109.5t121 -40q30 0 64.5 17.5t68.5 46.5t67.5 65.5t63.5 74.5q70 89 141 204l9 -8q-72 -116 -144 -207q-31 -39 -65 -76t-69 -66.5t-69 -47.5t-65 -19l-15 -40q19 -2 33 -7q11 -5 18.5 -15.5 t1.5 -28.5q-5 -14 -13.5 -21.5t-20.5 -10t-25.5 -1.5t-27.5 4q-33 7 -71 25l10 6q28 -13 51 -18q20 -4 38.5 -2t25.5 20q7 17 -1 26t-20 14q-14 4 -32 4l12 48q-76 9 -124 55.5t-71 120.5t-23 168.5z" />
<glyph unicode="&#xc8;" horiz-adv-x="850" d="M-1.5 412.5q-9.5 70.5 9 146t64 149.5t112.5 137q-45 25 -78.5 62.5t-52.5 81t-21 91t17 92.5t61 84.5t110 67.5q59 24 109.5 26.5t96.5 -8.5q14 54 46.5 104.5t84 90.5t123.5 63.5t165 23.5q87 0 149.5 -20.5t102 -54t57.5 -76.5t15.5 -87.5t-24.5 -86.5t-61.5 -73.5 t-96 -49t-128.5 -13.5q-64 3 -114.5 20t-93.5 39t-81 46t-78 41q-7 -54 3.5 -105t38.5 -91.5t74 -65t110 -24.5l4 -8q-75 0 -142 -12.5t-125.5 -35t-109 -53.5t-91.5 -69q47 -20 101.5 -20t117.5 28q25 11 47 25t40 31.5t30 37.5t16 43l3 -2q-2 -15 -10 -34t-23 -39 t-39 -40.5t-59 -36.5q-66 -31 -129.5 -32.5t-118.5 17.5q-61 -61 -99.5 -133t-53.5 -143.5t-4.5 -138t47 -117t100 -81t154.5 -30.5q89 0 153.5 18.5t108 49t67.5 68.5t31 79q-29 -16 -64.5 -26t-78.5 -10q-47 0 -81 21t-53.5 52.5t-21.5 68t14 68.5t53.5 53t97.5 21 q34 0 65.5 -16t56.5 -42.5t42.5 -62t21.5 -73.5q16 15 28 29t20 25q9 13 16 25l11 -7q-7 -14 -18 -29q-9 -13 -22.5 -28t-32.5 -31q2 -49 -17 -97.5t-67.5 -87t-129.5 -62t-202 -22.5q-119 1 -198 34t-122.5 88.5t-53 126zM83.5 1099.5q1.5 -44.5 17 -87.5t44 -80t66.5 -64 q81 67 185 108t227 41q-61 0 -104 27.5t-69 72t-33 100.5t7 114q-42 9 -91 5t-110 -27q-51 -19 -82 -51.5t-45 -73t-12.5 -85zM456 496.5q1 -33.5 18 -62t47.5 -48t74.5 -19.5q42 0 77 12t63 30q5 41 -3.5 80t-27.5 69.5t-46.5 49t-60.5 18.5q-50 0 -82 -19.5t-46.5 -48 t-13.5 -62zM493 1319q43 -19 84.5 -44t85.5 -47t91 -37.5t103 -15.5q53 0 97.5 18.5t78 49t54 70t25.5 80.5t-7 79.5t-43.5 69.5t-84.5 50t-130 19q-79 0 -141 -25t-106.5 -66t-71 -93.5t-35.5 -107.5zM857 1830l143 -96l1 -12l-136 54z" />
<glyph unicode="&#xc9;" horiz-adv-x="850" d="M-1.5 412.5q-9.5 70.5 9 146t64 149.5t112.5 137q-45 25 -78.5 62.5t-52.5 81t-21 91t17 92.5t61 84.5t110 67.5q59 24 109.5 26.5t96.5 -8.5q14 54 46.5 104.5t84 90.5t123.5 63.5t165 23.5q87 0 149.5 -20.5t102 -54t57.5 -76.5t15.5 -87.5t-24.5 -86.5t-61.5 -73.5 t-96 -49t-128.5 -13.5q-64 3 -114.5 20t-93.5 39t-81 46t-78 41q-7 -54 3.5 -105t38.5 -91.5t74 -65t110 -24.5l4 -8q-75 0 -142 -12.5t-125.5 -35t-109 -53.5t-91.5 -69q47 -20 101.5 -20t117.5 28q25 11 47 25t40 31.5t30 37.5t16 43l3 -2q-2 -15 -10 -34t-23 -39 t-39 -40.5t-59 -36.5q-66 -31 -129.5 -32.5t-118.5 17.5q-61 -61 -99.5 -133t-53.5 -143.5t-4.5 -138t47 -117t100 -81t154.5 -30.5q89 0 153.5 18.5t108 49t67.5 68.5t31 79q-29 -16 -64.5 -26t-78.5 -10q-47 0 -81 21t-53.5 52.5t-21.5 68t14 68.5t53.5 53t97.5 21 q34 0 65.5 -16t56.5 -42.5t42.5 -62t21.5 -73.5q16 15 28 29t20 25q9 13 16 25l11 -7q-7 -14 -18 -29q-9 -13 -22.5 -28t-32.5 -31q2 -49 -17 -97.5t-67.5 -87t-129.5 -62t-202 -22.5q-119 1 -198 34t-122.5 88.5t-53 126zM83.5 1099.5q1.5 -44.5 17 -87.5t44 -80t66.5 -64 q81 67 185 108t227 41q-61 0 -104 27.5t-69 72t-33 100.5t7 114q-42 9 -91 5t-110 -27q-51 -19 -82 -51.5t-45 -73t-12.5 -85zM456 496.5q1 -33.5 18 -62t47.5 -48t74.5 -19.5q42 0 77 12t63 30q5 41 -3.5 80t-27.5 69.5t-46.5 49t-60.5 18.5q-50 0 -82 -19.5t-46.5 -48 t-13.5 -62zM493 1319q43 -19 84.5 -44t85.5 -47t91 -37.5t103 -15.5q53 0 97.5 18.5t78 49t54 70t25.5 80.5t-7 79.5t-43.5 69.5t-84.5 50t-130 19q-79 0 -141 -25t-106.5 -66t-71 -93.5t-35.5 -107.5zM922 1729l1 13l153 81l-13 -54z" />
<glyph unicode="&#xca;" horiz-adv-x="850" d="M-1.5 412.5q-9.5 70.5 9 146t64 149.5t112.5 137q-45 25 -78.5 62.5t-52.5 81t-21 91t17 92.5t61 84.5t110 67.5q59 24 109.5 26.5t96.5 -8.5q14 54 46.5 104.5t84 90.5t123.5 63.5t165 23.5q87 0 149.5 -20.5t102 -54t57.5 -76.5t15.5 -87.5t-24.5 -86.5t-61.5 -73.5 t-96 -49t-128.5 -13.5q-64 3 -114.5 20t-93.5 39t-81 46t-78 41q-7 -54 3.5 -105t38.5 -91.5t74 -65t110 -24.5l4 -8q-75 0 -142 -12.5t-125.5 -35t-109 -53.5t-91.5 -69q47 -20 101.5 -20t117.5 28q25 11 47 25t40 31.5t30 37.5t16 43l3 -2q-2 -15 -10 -34t-23 -39 t-39 -40.5t-59 -36.5q-66 -31 -129.5 -32.5t-118.5 17.5q-61 -61 -99.5 -133t-53.5 -143.5t-4.5 -138t47 -117t100 -81t154.5 -30.5q89 0 153.5 18.5t108 49t67.5 68.5t31 79q-29 -16 -64.5 -26t-78.5 -10q-47 0 -81 21t-53.5 52.5t-21.5 68t14 68.5t53.5 53t97.5 21 q34 0 65.5 -16t56.5 -42.5t42.5 -62t21.5 -73.5q16 15 28 29t20 25q9 13 16 25l11 -7q-7 -14 -18 -29q-9 -13 -22.5 -28t-32.5 -31q2 -49 -17 -97.5t-67.5 -87t-129.5 -62t-202 -22.5q-119 1 -198 34t-122.5 88.5t-53 126zM83.5 1099.5q1.5 -44.5 17 -87.5t44 -80t66.5 -64 q81 67 185 108t227 41q-61 0 -104 27.5t-69 72t-33 100.5t7 114q-42 9 -91 5t-110 -27q-51 -19 -82 -51.5t-45 -73t-12.5 -85zM456 496.5q1 -33.5 18 -62t47.5 -48t74.5 -19.5q42 0 77 12t63 30q5 41 -3.5 80t-27.5 69.5t-46.5 49t-60.5 18.5q-50 0 -82 -19.5t-46.5 -48 t-13.5 -62zM493 1319q43 -19 84.5 -44t85.5 -47t91 -37.5t103 -15.5q53 0 97.5 18.5t78 49t54 70t25.5 80.5t-7 79.5t-43.5 69.5t-84.5 50t-130 19q-79 0 -141 -25t-106.5 -66t-71 -93.5t-35.5 -107.5zM867 1742l122 89h15l51 -85h-42l-37 58l-95 -62h-14z" />
<glyph unicode="&#xcb;" horiz-adv-x="850" d="M-1.5 412.5q-9.5 70.5 9 146t64 149.5t112.5 137q-45 25 -78.5 62.5t-52.5 81t-21 91t17 92.5t61 84.5t110 67.5q59 24 109.5 26.5t96.5 -8.5q14 54 46.5 104.5t84 90.5t123.5 63.5t165 23.5q87 0 149.5 -20.5t102 -54t57.5 -76.5t15.5 -87.5t-24.5 -86.5t-61.5 -73.5 t-96 -49t-128.5 -13.5q-64 3 -114.5 20t-93.5 39t-81 46t-78 41q-7 -54 3.5 -105t38.5 -91.5t74 -65t110 -24.5l4 -8q-75 0 -142 -12.5t-125.5 -35t-109 -53.5t-91.5 -69q47 -20 101.5 -20t117.5 28q25 11 47 25t40 31.5t30 37.5t16 43l3 -2q-2 -15 -10 -34t-23 -39 t-39 -40.5t-59 -36.5q-66 -31 -129.5 -32.5t-118.5 17.5q-61 -61 -99.5 -133t-53.5 -143.5t-4.5 -138t47 -117t100 -81t154.5 -30.5q89 0 153.5 18.5t108 49t67.5 68.5t31 79q-29 -16 -64.5 -26t-78.5 -10q-47 0 -81 21t-53.5 52.5t-21.5 68t14 68.5t53.5 53t97.5 21 q34 0 65.5 -16t56.5 -42.5t42.5 -62t21.5 -73.5q16 15 28 29t20 25q9 13 16 25l11 -7q-7 -14 -18 -29q-9 -13 -22.5 -28t-32.5 -31q2 -49 -17 -97.5t-67.5 -87t-129.5 -62t-202 -22.5q-119 1 -198 34t-122.5 88.5t-53 126zM83.5 1099.5q1.5 -44.5 17 -87.5t44 -80t66.5 -64 q81 67 185 108t227 41q-61 0 -104 27.5t-69 72t-33 100.5t7 114q-42 9 -91 5t-110 -27q-51 -19 -82 -51.5t-45 -73t-12.5 -85zM456 496.5q1 -33.5 18 -62t47.5 -48t74.5 -19.5q42 0 77 12t63 30q5 41 -3.5 80t-27.5 69.5t-46.5 49t-60.5 18.5q-50 0 -82 -19.5t-46.5 -48 t-13.5 -62zM493 1319q43 -19 84.5 -44t85.5 -47t91 -37.5t103 -15.5q53 0 97.5 18.5t78 49t54 70t25.5 80.5t-7 79.5t-43.5 69.5t-84.5 50t-130 19q-79 0 -141 -25t-106.5 -66t-71 -93.5t-35.5 -107.5zM903 1772q4 15 15.5 24.5t25.5 9.5q13 0 20 -10t3 -24 q-4 -15 -15.5 -24.5t-25.5 -9.5q-13 0 -20 10t-3 24zM1006 1772q4 15 15.5 24.5t25.5 9.5q13 0 20 -10t3 -24q-4 -15 -15.5 -24.5t-25.5 -9.5q-13 0 -19.5 10t-3.5 24z" />
<glyph unicode="&#xcc;" horiz-adv-x="655" d="M-185 229q21 -18 51 -33q25 -12 62.5 -22t87.5 -10h9.5t9.5 1l1 -1q82 0 153 16t131 41.5t109 59t89 67.5q92 81 153 185l-2 16q-43 -66 -87.5 -117t-90 -89.5t-90 -65t-84.5 -44.5t-74.5 -28t-60.5 -15q86 29 152 86t118 134t92 168.5t75 189.5t66.5 197.5t65.5 192 t73 174t89 142.5h11q69 0 113 13.5t68 32t27.5 38.5t-9 32.5t-40.5 14t-67 -16.5q-40 -19 -75.5 -45.5t-66.5 -61.5q-127 -2 -227 -17.5t-165 -45t-91 -76t-4 -110.5q13 -39 38 -61t55 -29.5t61 -1.5t56 24.5t40 48.5t13 70l-7 -3q2 -37 -11.5 -63.5t-35.5 -41.5 t-49.5 -19.5t-53 3t-47.5 26t-32 49.5q-8 22 -8 47.5t13 51.5t43 50t82.5 43t131.5 31.5t191 15.5q-48 -56 -88 -126.5t-74.5 -150.5t-65.5 -166.5t-61.5 -173.5t-62.5 -171.5t-68.5 -160t-79 -140t-95 -111.5t-116 -73t-140.5 -26q-9 0 -35 2.5t-56.5 9.5t-59 18.5 t-44.5 31.5zM920 1482q24 27 50 49.5t55 38.5q32 18 54 18.5t31 -9t3.5 -26t-28 -32.5t-63 -27.5t-101.5 -11.5h-1zM954 1830l143 -96l1 -12l-136 54z" />
<glyph unicode="&#xcd;" horiz-adv-x="655" d="M-185 229l6 7q16 -20 44.5 -31.5t59 -18.5t56.5 -9.5t35 -2.5q78 0 141 26t115.5 73t95 111.5t79 140t68.5 160t62.5 171.5t61.5 173.5t65.5 166.5t74 150.5t88.5 126.5q-111 -2 -190.5 -15t-132 -32t-82.5 -43t-43 -50t-13 -51.5t8 -47.5q11 -31 32.5 -49.5t47 -26 t53 -3t49.5 19.5t35.5 42t11.5 63l7 3q2 -40 -13 -70t-40 -48.5t-56 -24.5t-61 1.5t-55 30t-38 60.5q-21 64 4.5 110.5t90.5 76t165 45t227 17.5q31 34 66.5 61t75.5 46q39 18 67 16.5t40.5 -14t9 -32.5t-27.5 -38.5t-68 -32t-113 -13.5h-11q-50 -61 -89 -142.5t-73 -174 t-65.5 -192t-66.5 -197.5t-75 -189.5t-92 -168.5t-118 -134t-152 -86q26 5 60.5 15t74.5 28t84.5 44.5t90 65t90.5 89.5t87 117l2 -16q-61 -104 -153 -185q-39 -34 -88.5 -67.5t-109.5 -59t-131 -41.5t-153 -16l-1 1q-5 -1 -9.5 -1h-9.5q-50 0 -87.5 10t-62.5 22 q-29 15 -51 33zM920 1482h1q61 0 101.5 11.5t63 27.5t28 32.5t-3.5 26t-31 9t-54 -18.5q-29 -16 -55 -38.5t-50 -49.5zM973 1729l2 13l152 81l-14 -54z" />
<glyph unicode="&#xce;" horiz-adv-x="655" d="M-185 229l6 7q16 -20 44.5 -31.5t59 -18.5t56.5 -9.5t35 -2.5q78 0 141 26t115.5 73t95 111.5t79 140t68.5 160t62.5 171.5t61.5 173.5t65.5 166.5t74 150.5t88.5 126.5q-111 -2 -190.5 -15t-132 -32t-82.5 -43t-43 -50t-13 -51.5t8 -47.5q11 -31 32.5 -49.5t47 -26 t53 -3t49.5 19.5t35.5 42t11.5 63l7 3q2 -40 -13 -70t-40 -48.5t-56 -24.5t-61 1.5t-55 30t-38 60.5q-21 64 4.5 110.5t90.5 76t165 45t227 17.5q31 34 66.5 61t75.5 46q39 18 67 16.5t40.5 -14t9 -32.5t-27.5 -38.5t-68 -32t-113 -13.5h-11q-50 -61 -89 -142.5t-73 -174 t-65.5 -192t-66.5 -197.5t-75 -189.5t-92 -168.5t-118 -134t-152 -86q26 5 60.5 15t74.5 28t84.5 44.5t90 65t90.5 89.5t87 117l2 -16q-61 -104 -153 -185q-39 -34 -88.5 -67.5t-109.5 -59t-131 -41.5t-153 -16l-1 1q-5 -1 -9.5 -1h-9.5q-50 0 -87.5 10t-62.5 22 q-29 15 -51 33zM920 1482h1q61 0 101.5 11.5t63 27.5t28 32.5t-3.5 26t-31 9t-54 -18.5q-29 -16 -55 -38.5t-50 -49.5zM970 1742l121 89h15l52 -85h-42l-38 58l-93 -62h-15z" />
<glyph unicode="&#xcf;" horiz-adv-x="655" d="M-185 229q21 -18 51 -33q25 -12 62.5 -22t87.5 -10h9.5t9.5 1l1 -1q82 0 153 16t131 41.5t109 59t89 67.5q92 81 153 185l-2 16q-43 -66 -87.5 -117t-90 -89.5t-90 -65t-84.5 -44.5t-74.5 -28t-60.5 -15q86 29 152 86t118 134t92 168.5t75 189.5t66.5 197.5t65.5 192 t73 174t89 142.5h11q69 0 113 13.5t68 32t27.5 38.5t-9 32.5t-40.5 14t-67 -16.5q-40 -19 -75.5 -45.5t-66.5 -61.5q-127 -2 -227 -17.5t-165 -45t-91 -76t-4 -110.5q13 -39 38 -61t55 -29.5t61 -1.5t56 24.5t40 48.5t13 70l-7 -3q2 -37 -11.5 -63.5t-35.5 -41.5 t-49.5 -19.5t-53 3t-47.5 26t-32 49.5q-8 22 -8 47.5t13 51.5t43 50t82.5 43t131.5 31.5t191 15.5q-48 -56 -88 -126.5t-74.5 -150.5t-65.5 -166.5t-61.5 -173.5t-62.5 -171.5t-68.5 -160t-79 -140t-95 -111.5t-116 -73t-140.5 -26q-9 0 -35 2.5t-56.5 9.5t-59 18.5 t-44.5 31.5zM920 1482q24 27 50 49.5t55 38.5q32 18 54 18.5t31 -9t3.5 -26t-28 -32.5t-63 -27.5t-101.5 -11.5h-1zM964 1772q4 15 15.5 24.5t25.5 9.5q13 0 20 -10t3 -24q-4 -15 -15.5 -24.5t-25.5 -9.5q-13 0 -19.5 10t-3.5 24zM1067 1772q4 15 15.5 24.5t25.5 9.5 q13 0 20 -10t3 -24q-4 -15 -15.5 -24.5t-25.5 -9.5q-13 0 -19.5 10t-3.5 24z" />
<glyph unicode="&#xd0;" horiz-adv-x="1708" d="M-1 537q3 70 35 137t90 119t140.5 84t186.5 32q65 0 114 -11.5t85 -29.5q11 43 42 85.5t76 83.5t101.5 80t118 76t125 71.5t122.5 67.5q34 69 71 128.5t73.5 97.5t72.5 49.5t69 -15.5q27 -22 20.5 -49t-38.5 -58t-84.5 -65.5t-116.5 -71.5q-14 -34 -29 -72t-30 -80 q20 29 45.5 58t58 51.5t72.5 36.5t88 14q69 0 116 -38t74 -102.5t34 -149t-6 -177.5t-45.5 -187.5t-84.5 -179.5t-124 -154t-162 -110q57 18 106 41t89.5 48.5t73.5 51.5t59 51q61 57 99 119l10 -5q-56 -82 -122 -140.5t-136 -99t-141.5 -64.5t-136.5 -37q-155 -30 -315 -14 l4 7q48 -4 91.5 -4t85.5 3l-1 1q8 0 16 0.5t16 1.5q7 1 14.5 1.5t13.5 1.5q79 11 148 50t126.5 96t104 130t80.5 152.5t55 162.5t29 160t2 145t-26.5 119t-56.5 80.5t-87 29.5q-56 0 -101 -16.5t-84 -54t-74 -99t-72 -150.5q-17 -47 -35 -96t-38 -101h279v-11h-283l-10 -31 q28 -12 45.5 -36t23.5 -54t-0.5 -61.5t-27.5 -58t-57 -45t-90 -21.5q-37 -79 -81.5 -142.5t-105.5 -109t-141.5 -70t-188.5 -24.5q-125 0 -216 32t-148 84t-83 119t-23 137zM39 538q0 -68 26 -133t79.5 -116t134.5 -82.5t191 -31.5q91 0 158 21t118.5 63.5t92 106 t77.5 149.5q-19 3 -45 10t-54 18.5t-56.5 29.5t-51.5 45q-25 -25 -63.5 -40t-90.5 -15t-82.5 11.5t-44.5 28.5t-15.5 38t5.5 40t20 32.5t25 18.5l1 -5q-11 -3 -21 -15t-15 -28t-3 -33.5t16 -32t43 -24.5t77 -10q42 0 75.5 15.5t55.5 40.5q-26 36 -39 85.5t-7 117.5l3 15 q-34 20 -82.5 31.5t-115.5 11.5q-102 0 -178.5 -31t-128.5 -82.5t-78.5 -116.5t-26.5 -133zM687 830q-6 -52 1 -93t21 -73q11 19 16 40.5t3 43t-12.5 42.5t-28.5 40zM689 844q28 -22 43.5 -49t19.5 -54t-3 -54t-24 -50q20 -30 45.5 -51.5t52.5 -35t51.5 -20.5t43.5 -11 q24 57 49.5 123.5t53.5 143.5q-40 -2 -66.5 -16.5t-42.5 -32.5q-19 -21 -30 -46l-3 1q8 26 27 48q16 19 43.5 35t73.5 20q2 6 4 11.5t4 11.5h-105v11h109l14 39q11 33 28 81.5t39 106t48 120.5t56 123q-58 -34 -118.5 -69t-117.5 -72t-108 -75.5t-91 -77.5t-65 -79.5 t-31 -81.5zM989 518q44 6 74.5 24t48.5 42.5t25 52.5t2.5 54.5t-17.5 48.5t-35 34q-24 -70 -48 -134t-50 -122zM1314 1375q55 30 100 58.5t73.5 54t37.5 47.5t-8 41q-24 25 -47 22.5t-48 -29.5t-52 -76.5t-56 -117.5z" />
<glyph unicode="&#xd1;" horiz-adv-x="1333" d="M-72.5 353.5q5.5 52.5 37 96.5t89 73.5t136.5 29.5q41 0 78.5 -11t73.5 -30.5t70 -45.5t66 -56q43 76 80 167t71.5 188.5t68 196t68.5 190t73 171t81.5 138t94 92.5t111.5 34v-7q-36 0 -68 -23t-62 -64t-58 -97t-55 -123q-33 -113 -51.5 -239.5t-25 -250t-1 -236t22 -198 t43 -136.5t61.5 -51q25 0 53 41t58.5 110.5t64 163t71.5 198.5t80.5 215.5t90.5 215.5t102 198.5t115 163t129 110.5t145 41q72 0 122.5 -18.5t81 -49t42.5 -69t7.5 -78.5t-25 -78.5t-55 -69t-81 -49t-104.5 -18.5q-47 0 -76.5 16t-45 38.5t-16 50t11 50.5t34.5 38.5 t56 15.5v-4q-29 0 -49 -14t-29 -35.5t-7 -47t15.5 -46.5t39 -35.5t64.5 -14.5q70 0 122.5 30t83.5 75.5t37.5 98t-15.5 97.5t-74.5 75t-138.5 30q-71 0 -133.5 -41t-117.5 -112t-103.5 -165.5t-91.5 -201t-82 -218t-75.5 -218t-72.5 -201t-71 -165t-72 -112t-76 -41.5 q-35 0 -61.5 27t-46 75t-31.5 112.5t-17.5 140t-5.5 158t5 166.5t14.5 164.5t22.5 151.5q-34 -93 -69 -193t-73.5 -198t-82.5 -189t-94 -166q51 -50 101 -102t101.5 -94.5t106.5 -69.5t116 -27q50 0 94.5 29.5t83.5 73.5t72.5 95.5t60.5 96.5q27 44 46 75t31 52q15 24 24 39 l8 -8q-8 -14 -22 -37q-11 -20 -30 -51t-48 -77q-20 -30 -41.5 -64t-45.5 -67.5t-50 -63t-54.5 -52.5t-59 -36.5t-63.5 -13.5q-70 0 -128.5 27t-111.5 69t-102 93t-99 99q-34 -48 -70.5 -87t-78 -67.5t-87 -43.5t-96.5 -15q-88 0 -141.5 29.5t-78 73.5t-19 96.5zM-44.5 343 q-10.5 -46 7.5 -86.5t67.5 -67t137.5 -26.5q47 0 88.5 17t79 47t70.5 72.5t63 94.5q-30 27 -62.5 50.5t-66.5 41t-71.5 27.5t-79.5 10q-61 0 -110.5 -27t-81 -67t-42 -86zM1294 1757q12 14 31 22q16 7 39.5 7.5t54.5 -12.5q31 -14 51.5 -16t33.5 2q15 4 24 14l5 -2 q-11 -17 -31 -26q-16 -8 -40.5 -10t-59.5 13q-35 14 -55.5 16.5t-30.5 -0.5q-12 -3 -17 -11z" />
<glyph unicode="&#xd2;" horiz-adv-x="778" d="M-22 400q-2 -94 18.5 -164.5t65 -109.5t116.5 -36q42 2 86 21t89.5 52.5t92 80t90.5 102.5q4 -2 13 -2q23 0 46.5 8.5t46 23t43 33t39.5 37.5q43 45 83 104l-8 7q-40 -57 -82 -102q-18 -19 -38.5 -37.5t-42 -33t-43.5 -23t-43 -8.5q-5 0 -8 1q65 82 125 179t110 200 t88.5 208t60 201.5t23.5 179.5t-20 143.5t-71 93.5t-129 30q-86 -4 -167.5 -49t-155.5 -119t-139 -171t-117.5 -205.5t-90.5 -222.5t-58.5 -221t-22.5 -201zM41 436q3 92 23 196t56 213.5t83.5 213.5t105 196.5t122.5 161.5t136.5 109.5t145.5 40.5t116.5 -39t59.5 -105.5 t10.5 -156t-31 -190t-65 -208.5t-92.5 -210q3 18 3.5 35t-5 30.5t-18.5 22t-36 8.5q-43 0 -77 -27t-59 -68t-38.5 -90t-14.5 -93.5t12.5 -79.5t42.5 -46q-39 -51 -79.5 -92.5t-80 -71t-78 -45.5t-74.5 -16q-62 0 -100.5 40.5t-54.5 109.5t-13 161zM497 478q4 42 17 87.5 t33.5 83t47.5 62.5t59 25q30 0 41 -15t10.5 -36t-9 -45t-16.5 -41q-36 -66 -73.5 -126.5t-78.5 -113.5q-20 12 -27.5 44.5t-3.5 74.5zM728 1830l144 -96v-12l-136 54z" />
<glyph unicode="&#xd3;" horiz-adv-x="778" d="M-22 400q2 94 22.5 201t58.5 221t90.5 222.5t117.5 205.5t139 171t155.5 119t167.5 49q80 3 129 -30t71 -93.5t20 -143.5t-23.5 -179.5t-60 -201.5t-88.5 -208t-110 -200t-125 -179q2 -1 8 -1q21 0 43 8.5t43.5 23t42 33t38.5 37.5q42 45 82 102l8 -7q-39 -58 -83 -104 q-19 -20 -39.5 -38t-43 -32.5t-46 -23t-46.5 -8.5q-9 0 -13 2q-44 -56 -90.5 -102.5t-92 -80t-89.5 -52.5t-86 -21q-71 -3 -116 36t-65.5 109.5t-18.5 164.5zM41 436q-3 -92 13 -161t54.5 -109.5t100.5 -40.5q36 0 74.5 16t78 45.5t80 71t79.5 92.5q-29 11 -42.5 46 t-12.5 79.5t14.5 93.5t38.5 90t59 68t77 27q23 0 36 -8.5t18.5 -22t5 -30.5t-3.5 -35q52 102 92.5 210t65 208.5t31 190t-10.5 156t-60 105.5t-116 39q-74 0 -145.5 -40.5t-136.5 -109.5t-122.5 -161.5t-105 -196.5t-83.5 -213.5t-56 -213.5t-23 -196zM497 478 q-4 -42 3.5 -74.5t27.5 -44.5q41 53 78.5 113t73.5 127q8 17 16.5 41t9 45t-10.5 36t-41 15q-32 0 -59 -25t-47.5 -62.5t-33.5 -83t-17 -87.5zM773 1729l2 13l153 81l-15 -54z" />
<glyph unicode="&#xd4;" horiz-adv-x="778" d="M-22 400q2 94 22.5 201t58.5 221t90.5 222.5t117.5 205.5t139 171t155.5 119t167.5 49q80 3 129 -30t71 -93.5t20 -143.5t-23.5 -179.5t-60 -201.5t-88.5 -208t-110 -200t-125 -179q2 -1 8 -1q21 0 43 8.5t43.5 23t42 33t38.5 37.5q42 45 82 102l8 -7q-39 -58 -83 -104 q-19 -20 -39.5 -38t-43 -32.5t-46 -23t-46.5 -8.5q-9 0 -13 2q-44 -56 -90.5 -102.5t-92 -80t-89.5 -52.5t-86 -21q-71 -3 -116 36t-65.5 109.5t-18.5 164.5zM41 436q-3 -92 13 -161t54.5 -109.5t100.5 -40.5q36 0 74.5 16t78 45.5t80 71t79.5 92.5q-29 11 -42.5 46 t-12.5 79.5t14.5 93.5t38.5 90t59 68t77 27q23 0 36 -8.5t18.5 -22t5 -30.5t-3.5 -35q52 102 92.5 210t65 208.5t31 190t-10.5 156t-60 105.5t-116 39q-74 0 -145.5 -40.5t-136.5 -109.5t-122.5 -161.5t-105 -196.5t-83.5 -213.5t-56 -213.5t-23 -196zM497 478 q-4 -42 3.5 -74.5t27.5 -44.5q41 53 78.5 113t73.5 127q8 17 16.5 41t9 45t-10.5 36t-41 15q-32 0 -59 -25t-47.5 -62.5t-33.5 -83t-17 -87.5zM767 1742l121 89h15l51 -85h-41l-37 58l-94 -62h-15z" />
<glyph unicode="&#xd5;" horiz-adv-x="778" d="M-22 400q-2 -94 18.5 -164.5t65 -109.5t116.5 -36q42 2 86 21t89.5 52.5t92 80t90.5 102.5q4 -2 13 -2q23 0 46.5 8.5t46 23t43 33t39.5 37.5q43 45 83 104l-8 7q-40 -57 -82 -102q-18 -19 -38.5 -37.5t-42 -33t-43.5 -23t-43 -8.5q-5 0 -8 1q65 82 125 179t110 200 t88.5 208t60 201.5t23.5 179.5t-20 143.5t-71 93.5t-129 30q-86 -4 -167.5 -49t-155.5 -119t-139 -171t-117.5 -205.5t-90.5 -222.5t-58.5 -221t-22.5 -201zM41 436q3 92 23 196t56 213.5t83.5 213.5t105 196.5t122.5 161.5t136.5 109.5t145.5 40.5t116.5 -39t59.5 -105.5 t10.5 -156t-31 -190t-65 -208.5t-92.5 -210q3 18 3.5 35t-5 30.5t-18.5 22t-36 8.5q-43 0 -77 -27t-59 -68t-38.5 -90t-14.5 -93.5t12.5 -79.5t42.5 -46q-39 -51 -79.5 -92.5t-80 -71t-78 -45.5t-74.5 -16q-62 0 -100.5 40.5t-54.5 109.5t-13 161zM497 478q4 42 17 87.5 t33.5 83t47.5 62.5t59 25q30 0 41 -15t10.5 -36t-9 -45t-16.5 -41q-36 -66 -73.5 -126.5t-78.5 -113.5q-20 12 -27.5 44.5t-3.5 74.5zM750 1757q12 14 31 22q16 7 39 7.5t54 -12.5q31 -14 51 -16t33 2q15 4 24 14l6 -2q-12 -17 -31 -26q-16 -8 -41 -10t-59 13 q-35 14 -55 16.5t-31 -0.5q-12 -3 -17 -11z" />
<glyph unicode="&#xd6;" horiz-adv-x="778" d="M-22 400q-2 -94 18.5 -164.5t65 -109.5t116.5 -36q42 2 86 21t89.5 52.5t92 80t90.5 102.5q4 -2 13 -2q23 0 46.5 8.5t46 23t43 33t39.5 37.5q43 45 83 104l-8 7q-40 -57 -82 -102q-18 -19 -38.5 -37.5t-42 -33t-43.5 -23t-43 -8.5q-5 0 -8 1q65 82 125 179t110 200 t88.5 208t60 201.5t23.5 179.5t-20 143.5t-71 93.5t-129 30q-86 -4 -167.5 -49t-155.5 -119t-139 -171t-117.5 -205.5t-90.5 -222.5t-58.5 -221t-22.5 -201zM41 436q3 92 23 196t56 213.5t83.5 213.5t105 196.5t122.5 161.5t136.5 109.5t145.5 40.5t116.5 -39t59.5 -105.5 t10.5 -156t-31 -190t-65 -208.5t-92.5 -210q3 18 3.5 35t-5 30.5t-18.5 22t-36 8.5q-43 0 -77 -27t-59 -68t-38.5 -90t-14.5 -93.5t12.5 -79.5t42.5 -46q-39 -51 -79.5 -92.5t-80 -71t-78 -45.5t-74.5 -16q-62 0 -100.5 40.5t-54.5 109.5t-13 161zM497 478q4 42 17 87.5 t33.5 83t47.5 62.5t59 25q30 0 41 -15t10.5 -36t-9 -45t-16.5 -41q-36 -66 -73.5 -126.5t-78.5 -113.5q-20 12 -27.5 44.5t-3.5 74.5zM765 1772q4 15 15.5 24.5t24.5 9.5t20 -10t4 -24q-4 -15 -16 -24.5t-25 -9.5t-20 10t-3 24zM868 1772q4 15 15.5 24.5t24.5 9.5t20 -10 t4 -24q-4 -15 -16 -24.5t-25 -9.5t-20 10t-3 24z" />
<glyph unicode="&#xd7;" horiz-adv-x="234" d="M43 455l64 63l-64 64l9 8l64 -64l63 64l9 -8l-64 -64l64 -63l-9 -9l-63 64l-64 -64z" />
<glyph unicode="&#xd8;" horiz-adv-x="778" d="M-108 117l101 133q-18 71 -14 166t25.5 201t60 218.5t90.5 219.5t116.5 202t138 167.5t154 116.5t165.5 48q77 3 124 -27t71 -87l98 130h33l-120 -158q18 -62 13 -146t-27.5 -178.5t-60.5 -197t-87.5 -202.5t-108.5 -195t-122 -174q2 -1 8 -1q21 0 43 8.5t43.5 23t42 33 t38.5 37.5q42 45 82 102l8 -7q-39 -58 -83 -104q-19 -20 -39.5 -38t-43 -32.5t-46 -23t-46.5 -8.5q-9 0 -13 2q-44 -56 -90.5 -102.5t-92 -80t-89.5 -52.5t-86 -21q-68 -3 -111 32t-65 98l-78 -103h-32zM44 486q-8 -93 2 -167l842 1109q-18 65 -60 102t-115 37 q-70 0 -139 -37t-132.5 -102t-120 -152t-103.5 -185t-83.5 -203.5t-59.5 -207t-31 -194.5zM52 286q16 -75 53.5 -118t103.5 -43q36 0 74.5 16t78 45.5t80 71t79.5 92.5q-29 11 -42.5 46t-12.5 79.5t14.5 93.5t38.5 90t59 68t77 27q23 0 36 -8.5t18.5 -22t5 -30.5t-3.5 -35 q48 97 87 199t64.5 199t34.5 183.5t-2 154.5zM497 478q-4 -42 3.5 -74.5t27.5 -44.5q41 53 78.5 113t73.5 127q8 17 16.5 41t9 45t-10.5 36t-41 15q-32 0 -59 -25t-47.5 -62.5t-33.5 -83t-17 -87.5z" />
<glyph unicode="&#xd9;" horiz-adv-x="1032" d="M-69 1011q-4 74 12.5 149.5t52 147.5t88.5 127t121.5 88.5t150.5 33.5q78 0 129.5 -18t79.5 -50.5t36.5 -78t2 -101t-25 -118t-45.5 -129.5q8 -34 3.5 -72t-20 -75.5t-42.5 -71.5t-64 -61q-35 -77 -67 -149.5t-54 -138t-31 -120t2.5 -94t46.5 -61.5t99 -22q44 0 92 31 t98 85t101 127.5t101 158.5t98 177.5t91 185.5q25 62 50.5 123t50 119t47.5 110t44 97q6 13 9 23h1q16 34 29.5 62.5l22.5 47.5q11 23 20 42l59 1q-155 -342 -262 -610q-30 -76 -58 -150.5t-51 -142.5t-39.5 -125.5t-23.5 -100t-2.5 -66t22.5 -23.5q6 0 15.5 8t21 21 t23.5 30t24 35q27 41 59 94l7 -6q-39 -64 -72 -114l-30 -42t-29.5 -37t-27 -25.5t-21.5 -9.5q-35 0 -45 37.5t-0.5 102t34 149.5t58.5 180q-42 -80 -85.5 -156t-88 -143.5t-89.5 -123.5t-88.5 -97t-85 -63.5t-80.5 -22.5q-76 0 -121.5 20.5t-66.5 57.5t-21 87.5t15 111.5 t42 130t60 142q-34 -10 -72.5 -13.5t-81.5 3.5q-75 10 -124 51t-75 101t-30 134zM-36.5 1016.5q2.5 -71.5 25 -130.5t64.5 -98t106 -47q47 -7 87 -3.5t75 14.5q43 94 88 188t81 182q-21 26 -55 42t-80 16l-2 7q49 0 84 -14.5t58 -37.5q23 57 39 110t21.5 99t-1 84t-29 64.5 t-63 41t-102.5 14.5q-78 0 -142 -32.5t-112.5 -86.5t-81.5 -124t-48 -143.5t-12.5 -145zM421 805q29 23 50 51.5t34 59t17.5 62.5t1.5 61q-24 -58 -50.5 -117t-52.5 -117zM877 1830l143 -96l1 -12l-136 54z" />
<glyph unicode="&#xda;" horiz-adv-x="1032" d="M-69 1011q-4 74 12.5 149.5t52 147.5t88.5 127t121.5 88.5t150.5 33.5q78 0 129.5 -18t79.5 -50.5t36.5 -78t2 -101t-25 -118t-45.5 -129.5q8 -34 3.5 -72t-20 -75.5t-42.5 -71.5t-64 -61q-35 -77 -67 -149.5t-54 -138t-31 -120t2.5 -94t46.5 -61.5t99 -22q44 0 92 31 t98 85t101 127.5t101 158.5t98 177.5t91 185.5q25 62 50.5 123t50 119t47.5 110t44 97q6 13 9 23h1q16 34 29.5 62.5l22.5 47.5q11 23 20 42l59 1q-155 -342 -262 -610q-30 -76 -58 -150.5t-51 -142.5t-39.5 -125.5t-23.5 -100t-2.5 -66t22.5 -23.5q6 0 15.5 8t21 21 t23.5 30t24 35q27 41 59 94l7 -6q-39 -64 -72 -114l-30 -42t-29.5 -37t-27 -25.5t-21.5 -9.5q-35 0 -45 37.5t-0.5 102t34 149.5t58.5 180q-42 -80 -85.5 -156t-88 -143.5t-89.5 -123.5t-88.5 -97t-85 -63.5t-80.5 -22.5q-76 0 -121.5 20.5t-66.5 57.5t-21 87.5t15 111.5 t42 130t60 142q-34 -10 -72.5 -13.5t-81.5 3.5q-75 10 -124 51t-75 101t-30 134zM-36.5 1016.5q2.5 -71.5 25 -130.5t64.5 -98t106 -47q47 -7 87 -3.5t75 14.5q43 94 88 188t81 182q-21 26 -55 42t-80 16l-2 7q49 0 84 -14.5t58 -37.5q23 57 39 110t21.5 99t-1 84t-29 64.5 t-63 41t-102.5 14.5q-78 0 -142 -32.5t-112.5 -86.5t-81.5 -124t-48 -143.5t-12.5 -145zM421 805q29 23 50 51.5t34 59t17.5 62.5t1.5 61q-24 -58 -50.5 -117t-52.5 -117zM933 1729l2 13l152 81l-14 -54z" />
<glyph unicode="&#xdb;" horiz-adv-x="1032" d="M-69 1011q-4 74 12.5 149.5t52 147.5t88.5 127t121.5 88.5t150.5 33.5q78 0 129.5 -18t79.5 -50.5t36.5 -78t2 -101t-25 -118t-45.5 -129.5q8 -34 3.5 -72t-20 -75.5t-42.5 -71.5t-64 -61q-35 -77 -67 -149.5t-54 -138t-31 -120t2.5 -94t46.5 -61.5t99 -22q44 0 92 31 t98 85t101 127.5t101 158.5t98 177.5t91 185.5q25 62 50.5 123t50 119t47.5 110t44 97q6 13 9 23h1q16 34 29.5 62.5l22.5 47.5q11 23 20 42l59 1q-155 -342 -262 -610q-30 -76 -58 -150.5t-51 -142.5t-39.5 -125.5t-23.5 -100t-2.5 -66t22.5 -23.5q6 0 15.5 8t21 21 t23.5 30t24 35q27 41 59 94l7 -6q-39 -64 -72 -114l-30 -42t-29.5 -37t-27 -25.5t-21.5 -9.5q-35 0 -45 37.5t-0.5 102t34 149.5t58.5 180q-42 -80 -85.5 -156t-88 -143.5t-89.5 -123.5t-88.5 -97t-85 -63.5t-80.5 -22.5q-76 0 -121.5 20.5t-66.5 57.5t-21 87.5t15 111.5 t42 130t60 142q-34 -10 -72.5 -13.5t-81.5 3.5q-75 10 -124 51t-75 101t-30 134zM-36.5 1016.5q2.5 -71.5 25 -130.5t64.5 -98t106 -47q47 -7 87 -3.5t75 14.5q43 94 88 188t81 182q-21 26 -55 42t-80 16l-2 7q49 0 84 -14.5t58 -37.5q23 57 39 110t21.5 99t-1 84t-29 64.5 t-63 41t-102.5 14.5q-78 0 -142 -32.5t-112.5 -86.5t-81.5 -124t-48 -143.5t-12.5 -145zM421 805q29 23 50 51.5t34 59t17.5 62.5t1.5 61q-24 -58 -50.5 -117t-52.5 -117zM912 1742l121 89h15l51 -85h-41l-37 58l-94 -62h-15z" />
<glyph unicode="&#xdc;" horiz-adv-x="1032" d="M-69 1011q-4 74 12.5 149.5t52 147.5t88.5 127t121.5 88.5t150.5 33.5q78 0 129.5 -18t79.5 -50.5t36.5 -78t2 -101t-25 -118t-45.5 -129.5q8 -34 3.5 -72t-20 -75.5t-42.5 -71.5t-64 -61q-35 -77 -67 -149.5t-54 -138t-31 -120t2.5 -94t46.5 -61.5t99 -22q44 0 92 31 t98 85t101 127.5t101 158.5t98 177.5t91 185.5q25 62 50.5 123t50 119t47.5 110t44 97q6 13 9 23h1q16 34 29.5 62.5l22.5 47.5q11 23 20 42l59 1q-155 -342 -262 -610q-30 -76 -58 -150.5t-51 -142.5t-39.5 -125.5t-23.5 -100t-2.5 -66t22.5 -23.5q6 0 15.5 8t21 21 t23.5 30t24 35q27 41 59 94l7 -6q-39 -64 -72 -114l-30 -42t-29.5 -37t-27 -25.5t-21.5 -9.5q-35 0 -45 37.5t-0.5 102t34 149.5t58.5 180q-42 -80 -85.5 -156t-88 -143.5t-89.5 -123.5t-88.5 -97t-85 -63.5t-80.5 -22.5q-76 0 -121.5 20.5t-66.5 57.5t-21 87.5t15 111.5 t42 130t60 142q-34 -10 -72.5 -13.5t-81.5 3.5q-75 10 -124 51t-75 101t-30 134zM-36.5 1016.5q2.5 -71.5 25 -130.5t64.5 -98t106 -47q47 -7 87 -3.5t75 14.5q43 94 88 188t81 182q-21 26 -55 42t-80 16l-2 7q49 0 84 -14.5t58 -37.5q23 57 39 110t21.5 99t-1 84t-29 64.5 t-63 41t-102.5 14.5q-78 0 -142 -32.5t-112.5 -86.5t-81.5 -124t-48 -143.5t-12.5 -145zM421 805q29 23 50 51.5t34 59t17.5 62.5t1.5 61q-24 -58 -50.5 -117t-52.5 -117zM937 1772q4 15 15.5 24.5t25.5 9.5q13 0 20 -10t3 -24q-4 -15 -15.5 -24.5t-25.5 -9.5 q-13 0 -19.5 10t-3.5 24zM1040 1772q4 15 15.5 24.5t25.5 9.5q13 0 20 -10t3 -24q-4 -15 -15.5 -24.5t-25.5 -9.5q-13 0 -19.5 10t-3.5 24z" />
<glyph unicode="&#xdd;" horiz-adv-x="898" d="M-176 1068.5q-4 69.5 12 140.5t50.5 138t87 119t120.5 83.5t151 31.5q90 0 147.5 -17t89 -47t41 -72t3 -91.5t-25.5 -104.5t-43 -112q13 -29 11 -64.5t-16.5 -72t-42.5 -71.5t-67 -63q-20 -57 -27.5 -104.5t6 -83.5t52.5 -56t113 -20q66 0 125.5 38t113.5 103t103 150.5 t92.5 180.5t83 193.5t73.5 189.5h69q-72 -211 -159 -422q-37 -90 -80.5 -187.5t-93 -197t-103.5 -195t-110 -179.5q34 -2 69 10.5t73 43.5t79.5 84t88.5 133l6 -7q-48 -85 -91 -140t-83.5 -86t-77 -42t-73.5 -9q-50 -73 -102 -134.5t-104.5 -105.5t-106 -69t-105.5 -25 q-73 0 -125 20.5t-84.5 54t-46 76.5t-10 88t23 88t53.5 76.5t81 54t106 20.5q58 0 108 -14.5t95 -34.5t86 -40.5t81 -32.5q46 73 90.5 154t86.5 166t81 170t74 166q-42 -76 -86.5 -140t-92.5 -110.5t-100 -73t-108 -26.5q-82 0 -132 17.5t-75.5 47.5t-29 72t7.5 91 q-44 -17 -94.5 -23.5t-108.5 0.5q-75 10 -124.5 49t-75.5 96.5t-30 127zM-143.5 1072.5q3.5 -67.5 26 -122.5t64.5 -92t106 -45q61 -9 112.5 -2t95.5 24q10 39 26.5 82t36 87.5t41 89.5t40.5 89q-38 28 -104 28l-1 7q34 0 61 -7t48 -19q22 51 38.5 99t23 90t-0.5 77 t-32 60.5t-71 39.5t-118 14q-78 0 -142 -30.5t-112 -81.5t-80.5 -116.5t-47 -134.5t-11 -136.5zM-42.5 169q-3.5 -43 7 -84t36 -73t67.5 -51.5t101 -19.5q43 0 88 25t91.5 69t93 105.5t93.5 133.5q-41 12 -82 33t-85.5 41t-93.5 34.5t-105 14.5q-47 0 -84 -19.5t-64.5 -51.5 t-43.5 -73t-19.5 -84zM350 886q31 25 53.5 55t35 60.5t15.5 61.5t-4 57q-25 -61 -52 -120t-48 -114zM822 1729l2 13l152 81l-13 -54z" />
<glyph unicode="&#xde;" horiz-adv-x="1490" d="M1 537q3 70 35 137t90 119t140 84t187 32v-4q-102 0 -179 -31.5t-129 -82.5t-78.5 -116.5t-27 -134t26.5 -134t80.5 -117t134.5 -83t191 -31.5q97 0 167.5 24.5t124 73.5t95 123t81.5 174q-14 -2 -28 -2.5t-31 -0.5q-96 0 -168 32.5t-119 85t-67 120t-11 137.5 q9 68 50.5 125.5t104 106.5t141.5 90.5t163 76t167.5 64t155.5 56.5q29 50 59 89t59 62t57.5 27t54.5 -17q23 -19 19 -38t-29 -38t-68 -39t-98 -42q-25 -52 -51 -117t-54.5 -141.5t-59.5 -162t-66 -176.5q27 47 63 93.5t81.5 85t100 62.5t120.5 24q58 0 95 -30.5t54 -79 t14.5 -109.5t-24 -122t-60 -116.5t-94 -93t-127 -51t-158.5 9.5l3 5q68 -18 128.5 -2t111 53t89 90.5t62 112.5t32 117.5t-2 104.5t-41 75t-83.5 29q-63 0 -116.5 -27t-98.5 -68t-81 -92t-63 -99q14 -34 16.5 -71.5t-9.5 -71t-39 -62.5t-73 -46q-24 -60 -50.5 -113 t-58 -98.5t-70 -83t-86.5 -64.5q39 13 86.5 27.5t100.5 28t109.5 25t112.5 18.5t109 8t101 -5q43 90 126 211l9 -2q-83 -120 -126 -212q54 -9 94 -30q44 -24 66 -51.5t27 -53.5t-5 -50t-30 -42t-48.5 -27t-59.5 -6q-37 3 -61 20t-33 46.5t-2 73.5t34 103q-50 9 -109 8 t-120.5 -9t-123 -21t-117.5 -27.5t-103.5 -28.5t-80.5 -25q-50 -21 -109.5 -32.5t-132.5 -11.5q-125 0 -215.5 32t-148 84t-83 119t-22.5 137zM558 940q-13 -87 12.5 -155t73.5 -115t111 -72t126 -25q34 0 64 5q24 61 49 131t54 149q4 12 8 25.5t10 30.5q-24 29 -57 46 t-72 17q-25 0 -44 -4.5t-33 -11.5t-23.5 -16t-16.5 -19q-15 -23 -18 -52l-2 1q2 30 16 55q7 11 16.5 20.5t24 17.5t34.5 12.5t46 4.5q38 0 72 -16t61 -43q17 49 40 113t51 132.5t60 138t65 129.5q-70 -27 -148.5 -57t-156.5 -64.5t-150 -74.5t-130 -87t-96 -100.5 t-47 -115.5zM1029 609q29 17 47.5 40.5t28.5 50.5t11.5 56.5t-4.5 57.5q-13 -25 -22.5 -47.5t-17.5 -40.5q-11 -31 -21.5 -59.5t-21.5 -57.5zM1340.5 146.5q12.5 -58.5 84.5 -67.5q25 -3 48 4t39 21.5t24 34.5t3.5 43t-22.5 47t-53 47q-37 24 -89 34q-47 -105 -34.5 -163.5z M1362 1484q45 17 81 32.5t58 30.5t28.5 29.5t-5.5 29.5q-19 21 -38 22t-39 -15t-41.5 -49.5t-43.5 -79.5z" />
<glyph unicode="&#xdf;" horiz-adv-x="477" d="M-65 161q0 10 7.5 17.5t18.5 7.5t18 -7.5t7 -17.5q0 -4 -2 -9q16 2 42 6t57 12.5t64 21.5t62 32.5t51.5 46t32.5 61.5q8 30 6.5 56t-10 46.5t-22.5 36.5t-29 29q-38 29 -91 44l19 23q18 7 47 33.5t61.5 65.5t66 87.5t62.5 97.5t48.5 95.5t24.5 82.5t-8 57.5t-49 21.5 q-43 0 -83.5 -33.5t-78 -88t-71 -124.5t-61.5 -143q-67 -171 -124 -388h-57q8 34 22.5 85.5t34.5 113t45 129t55.5 133t65.5 124.5t74 103.5t82.5 71t90.5 26.5q63 0 88.5 -24t22 -65.5t-31.5 -96t-71.5 -114.5t-99 -122.5t-114.5 -120.5q51 -19 86 -51q15 -14 28.5 -32 t22 -41.5t11 -51.5t-4.5 -61l-3 -8l153 231l7 -5l-170 -254q-14 -28 -37.5 -49.5t-52.5 -38t-61 -29.5t-64 -21q-75 -20 -160 -27h-2q-11 0 -18.5 7.5t-7.5 17.5z" />
<glyph unicode="&#xe0;" horiz-adv-x="308" d="M-30.5 378q3.5 -23 14 -36.5t28.5 -13.5q26 0 56 28t56 73q-7 -31 -7.5 -51.5t3.5 -32.5t13 -15.5t21 -1.5q10 2 22.5 10.5t25.5 22.5t27 31.5t27 35.5q29 42 59 93q6 10 22.5 34.5t41.5 57t57.5 69t72 69.5t84.5 59t94.5 37t102 4t107.5 -40l2 2q-58 37 -115 45t-109 -5 t-99.5 -42t-88.5 -66q-96 -84 -178 -217q-1 -2 -9.5 -16t-20.5 -33t-26.5 -40.5t-28 -38.5t-24.5 -24.5t-15 -0.5q-4 6 -2 21.5t7.5 37t13.5 48t17 52.5q21 62 51 137h-67q-9 -21 -16.5 -41.5t-14.5 -38.5q2 37 -9.5 58.5t-34.5 21.5q-17 0 -37 -13.5t-39.5 -36.5t-37 -54.5 t-29.5 -66.5q-12 -36 -16.5 -67.5t-1 -54.5zM29 396.5q2 19.5 8.5 46t17.5 57.5q11 30 22 56.5t23 46.5t23 31.5t20 11.5q14 0 20 -23.5t1 -60.5q-11 -31 -19 -57.5t-14 -48.5q-11 -22 -23 -41t-24 -32.5t-23 -21t-18 -7.5q-10 0 -13 11.5t-1 31zM142 872l143 -96l1 -13 l-136 55z" />
<glyph unicode="&#xe1;" horiz-adv-x="308" d="M-30.5 378q-3.5 23 1 54.5t16.5 67.5q12 35 29.5 66.5t37 54.5t39.5 36.5t37 13.5q23 0 34 -21.5t10 -58.5q7 19 14.5 39t16.5 41h67q-29 -75 -51 -137q-9 -26 -17 -52.5t-13.5 -48t-7.5 -37t2 -21.5q4 -7 15 0.5t24.5 24.5t28 38.5t26.5 40.5t20.5 33.5t9.5 15.5 q83 133 178 217q41 36 88.5 65.5t99.5 42.5t108.5 5t115.5 -45l-2 -2q-55 33 -107.5 40t-102 -4t-94.5 -37t-84.5 -59t-72 -69.5t-57.5 -69t-41.5 -57t-22.5 -34.5q-30 -52 -59 -93q-12 -18 -26.5 -35.5t-27.5 -31.5t-25.5 -23t-22.5 -10q-12 -2 -21 1.5t-13 15.5t-3.5 32.5 t7.5 51.5q-25 -45 -55 -73t-57 -28q-18 0 -28.5 13.5t-14 36.5zM29 396.5q-2 -19.5 1 -31t13 -11.5q7 0 18 7.5t23 21t24 32.5t23 41q6 22 13.5 48.5t19.5 57.5q5 37 -1 60.5t-20 23.5q-9 0 -20 -11.5t-23 -31.5t-23 -46.5t-22 -56.5t-17.5 -57t-8.5 -46.5zM168 771l1 12 l153 81l-14 -53z" />
<glyph unicode="&#xe2;" horiz-adv-x="308" d="M-30.5 378q-3.5 23 1 54.5t16.5 67.5q12 35 29.5 66.5t37 54.5t39.5 36.5t37 13.5q23 0 34 -21.5t10 -58.5q7 19 14.5 39t16.5 41h67q-29 -75 -51 -137q-9 -26 -17 -52.5t-13.5 -48t-7.5 -37t2 -21.5q4 -7 15 0.5t24.5 24.5t28 38.5t26.5 40.5t20.5 33.5t9.5 15.5 q83 133 178 217q41 36 88.5 65.5t99.5 42.5t108.5 5t115.5 -45l-2 -2q-55 33 -107.5 40t-102 -4t-94.5 -37t-84.5 -59t-72 -69.5t-57.5 -69t-41.5 -57t-22.5 -34.5q-30 -52 -59 -93q-12 -18 -26.5 -35.5t-27.5 -31.5t-25.5 -23t-22.5 -10q-12 -2 -21 1.5t-13 15.5t-3.5 32.5 t7.5 51.5q-25 -45 -55 -73t-57 -28q-18 0 -28.5 13.5t-14 36.5zM29 396.5q-2 -19.5 1 -31t13 -11.5q7 0 18 7.5t23 21t24 32.5t23 41q6 22 13.5 48.5t19.5 57.5q5 37 -1 60.5t-20 23.5q-9 0 -20 -11.5t-23 -31.5t-23 -46.5t-22 -56.5t-17.5 -57t-8.5 -46.5zM123 783l121 89 h15l51 -85h-41l-37 58l-94 -62h-15z" />
<glyph unicode="&#xe3;" horiz-adv-x="308" d="M-30.5 378q-3.5 23 1 54.5t16.5 67.5q12 35 29.5 66.5t37 54.5t39.5 36.5t37 13.5q23 0 34 -21.5t10 -58.5q7 19 14.5 39t16.5 41h67q-29 -75 -51 -137q-9 -26 -17 -52.5t-13.5 -48t-7.5 -37t2 -21.5q4 -7 15 0.5t24.5 24.5t28 38.5t26.5 40.5t20.5 33.5t9.5 15.5 q83 133 178 217q41 36 88.5 65.5t99.5 42.5t108.5 5t115.5 -45l-2 -2q-55 33 -107.5 40t-102 -4t-94.5 -37t-84.5 -59t-72 -69.5t-57.5 -69t-41.5 -57t-22.5 -34.5q-30 -52 -59 -93q-12 -18 -26.5 -35.5t-27.5 -31.5t-25.5 -23t-22.5 -10q-12 -2 -21 1.5t-13 15.5t-3.5 32.5 t7.5 51.5q-25 -45 -55 -73t-57 -28q-18 0 -28.5 13.5t-14 36.5zM29 396.5q-2 -19.5 1 -31t13 -11.5q7 0 18 7.5t23 21t24 32.5t23 41q6 22 13.5 48.5t19.5 57.5q5 37 -1 60.5t-20 23.5q-9 0 -20 -11.5t-23 -31.5t-23 -46.5t-22 -56.5t-17.5 -57t-8.5 -46.5zM90 799 q13 14 31 22q16 7 39.5 7.5t54.5 -13.5t51 -16t33 2q15 4 24 14l5 -2q-12 -17 -31 -26q-16 -8 -40.5 -9.5t-59.5 13.5q-35 14 -55 16t-31 0q-12 -3 -17 -12z" />
<glyph unicode="&#xe4;" horiz-adv-x="308" d="M-30.5 378q-3.5 23 1 54.5t16.5 67.5q12 35 29.5 66.5t37 54.5t39.5 36.5t37 13.5q23 0 34 -21.5t10 -58.5q7 19 14.5 39t16.5 41h67q-29 -75 -51 -137q-9 -26 -17 -52.5t-13.5 -48t-7.5 -37t2 -21.5q4 -7 15 0.5t24.5 24.5t28 38.5t26.5 40.5t20.5 33.5t9.5 15.5 q83 133 178 217q41 36 88.5 65.5t99.5 42.5t108.5 5t115.5 -45l-2 -2q-55 33 -107.5 40t-102 -4t-94.5 -37t-84.5 -59t-72 -69.5t-57.5 -69t-41.5 -57t-22.5 -34.5q-30 -52 -59 -93q-12 -18 -26.5 -35.5t-27.5 -31.5t-25.5 -23t-22.5 -10q-12 -2 -21 1.5t-13 15.5t-3.5 32.5 t7.5 51.5q-25 -45 -55 -73t-57 -28q-18 0 -28.5 13.5t-14 36.5zM29 396.5q-2 -19.5 1 -31t13 -11.5q7 0 18 7.5t23 21t24 32.5t23 41q6 22 13.5 48.5t19.5 57.5q5 37 -1 60.5t-20 23.5q-9 0 -20 -11.5t-23 -31.5t-23 -46.5t-22 -56.5t-17.5 -57t-8.5 -46.5zM137 813 q4 15 15.5 25t25.5 10q13 0 19.5 -10.5t3.5 -24.5q-4 -15 -15.5 -24.5t-25.5 -9.5q-13 0 -20 10.5t-3 23.5zM240 813q4 15 15.5 25t25.5 10q13 0 19.5 -10.5t3.5 -24.5q-4 -15 -15.5 -24.5t-25.5 -9.5q-13 0 -20 10.5t-3 23.5z" />
<glyph unicode="&#xe5;" horiz-adv-x="308" d="M-30.5 378q-3.5 23 1 54.5t16.5 67.5q12 35 29.5 66.5t37 54.5t39.5 36.5t37 13.5q23 0 34 -21.5t10 -58.5q7 19 14.5 39t16.5 41h67q-29 -75 -51 -137q-9 -26 -17 -52.5t-13.5 -48t-7.5 -37t2 -21.5q4 -7 15 0.5t24.5 24.5t28 38.5t26.5 40.5t20.5 33.5t9.5 15.5 q83 133 178 217q41 36 88.5 65.5t99.5 42.5t108.5 5t115.5 -45l-2 -2q-55 33 -107.5 40t-102 -4t-94.5 -37t-84.5 -59t-72 -69.5t-57.5 -69t-41.5 -57t-22.5 -34.5q-30 -52 -59 -93q-12 -18 -26.5 -35.5t-27.5 -31.5t-25.5 -23t-22.5 -10q-12 -2 -21 1.5t-13 15.5t-3.5 32.5 t7.5 51.5q-25 -45 -55 -73t-57 -28q-18 0 -28.5 13.5t-14 36.5zM29 396.5q-2 -19.5 1 -31t13 -11.5q7 0 18 7.5t23 21t24 32.5t23 41q6 22 13.5 48.5t19.5 57.5q5 37 -1 60.5t-20 23.5q-9 0 -20 -11.5t-23 -31.5t-23 -46.5t-22 -56.5t-17.5 -57t-8.5 -46.5zM185 813 q4 16 17.5 28.5t29.5 12.5q15 0 22 -12t3 -29q-4 -16 -17 -27.5t-29 -11.5t-23 11.5t-3 27.5zM195 814q-3 -12 2.5 -20.5t17.5 -8.5q11 0 21 8.5t13 19.5q3 12 -2.5 21t-17.5 9q-11 0 -20.5 -8.5t-13.5 -20.5z" />
<glyph unicode="&#xe6;" horiz-adv-x="412" d="M-30.5 378q-3.5 23 1 54.5t16.5 67.5q12 35 29.5 66.5t37 54.5t39.5 36.5t37 13.5q29 0 39 -34t0 -87q18 29 42 55t49.5 42.5t51 23t46.5 -3.5q23 -11 25.5 -32t-9 -46.5t-33 -50t-46.5 -41.5t-49.5 -22t-42.5 10q-7 -26 -11 -50.5t-1.5 -43t11.5 -30t25 -12.5 q15 -1 33.5 10t37.5 29t38 40.5t35 43t29 38.5t19 27q87 131 186 213q42 34 90 62t101 39t109 2t113 -49l-1 -1q-52 33 -102.5 42t-98 1t-92 -30t-84.5 -51.5t-74 -63t-60.5 -65t-45.5 -58t-28 -40.5q-1 -2 -3 -4t-3 -4t-2 -5q-1 -1 -1 -2l-27.5 -38.5t-41 -51.5t-50 -52 t-53.5 -39.5t-53 -14t-46 25.5q-15 16 -20.5 38t-2.5 46q-13 -24 -28 -44t-30 -34.5t-30.5 -22.5t-28.5 -8q-18 0 -28.5 13.5t-14 36.5zM29 396.5q-2 -19.5 1 -31t13 -11.5q7 0 18 7.5t23 21t24 33t23 41.5q7 35 25 71q7 25 8.5 46.5t0 37.5t-7 25t-14.5 9t-20 -11.5 t-23 -31.5t-23 -46.5t-22 -56.5t-17.5 -57t-8.5 -46.5zM208 499q14 -17 33 -12.5t37.5 20.5t34 41t25 48.5t8.5 41.5t-15 23q-15 4 -32 -8.5t-34 -36t-31.5 -54.5t-25.5 -63z" />
<glyph unicode="&#xe7;" horiz-adv-x="251" d="M-66 233l9 5q28 -13 51 -18q20 -4 38.5 -2t24.5 20q7 18 -0.5 26.5t-18.5 12.5q-14 4 -34 4l13 50q-29 8 -40 36.5t-6.5 66.5t21.5 80t44.5 77.5t62.5 58.5t75 23q19 0 27 -10.5t9 -25.5t-4.5 -33.5t-14.5 -35.5t-19.5 -30.5t-20.5 -17.5q-5 -2 -10 -2q-9 0 -16 7t-7 16 t7 15.5t16 6.5q12 0 19 -11q7 4 15.5 14.5t14.5 22t9.5 25t2 24t-9.5 17.5t-25 7t-38 -19t-40 -48t-35 -64.5t-24.5 -69.5t-6.5 -62t17 -41q13 -11 31 -6.5t38 18.5t41 36t40 44.5t34.5 43t24.5 34.5q83 133 179 217q41 36 88.5 65.5t99.5 42.5t108.5 5t114.5 -45l-2 -2 q-51 30 -99.5 38.5t-94.5 0.5t-89 -29t-81 -50.5t-71 -62.5t-59 -65t-45.5 -60t-30.5 -45l-2 -5q-2 -2 -4 -5t-5 -7q-2 -2 -2 -2.5t-1 -1.5t-1 -2q-13 -19 -35 -48.5t-49 -58.5t-56.5 -51.5t-58.5 -27.5l-15 -42q19 -2 32 -8q11 -5 19 -15t3 -28q-5 -14 -14 -21.5t-21.5 -10 t-26.5 -2t-27 3.5q-33 7 -69 27z" />
<glyph unicode="&#xe8;" horiz-adv-x="254" d="M-32 417q1 -37 24 -64q20 -25 46 -25.5t53 14t53.5 39.5t50 52t41.5 52t27 38q0 1 1 2q2 2 3 4.5t3 4.5t2 4q9 14 28 40.5t46 58t61 65t73.5 63t84 51.5t92.5 30t98 -1t102 -42l2 1q-57 39 -113.5 48.5t-109.5 -1.5t-101 -39t-90 -62q-98 -82 -185 -213q-7 -9 -19.5 -27 t-29 -38.5t-35.5 -43t-38 -40.5t-37.5 -29t-33.5 -10q-16 1 -24.5 12.5t-11 30t1 43t10.5 50.5q18 -15 43 -10t50 22t46 41.5t32.5 50t9 46.5t-25.5 32q-26 11 -57.5 0t-62 -36.5t-56.5 -62t-40.5 -75.5t-13.5 -76zM48 499q11 32 25.5 63t31.5 54.5t34 36t32 8.5 q14 -5 15 -23t-8 -41.5t-25 -48.5t-34.5 -41t-37.5 -20.5t-33 12.5zM109 872l143 -96v-13l-135 55z" />
<glyph unicode="&#xe9;" horiz-adv-x="254" d="M-32 417q-1 37 13.5 76t40.5 75.5t56.5 62t62 36.5t57.5 0q23 -11 25.5 -32t-9 -46.5t-32.5 -50t-46 -41.5t-50 -22t-43 10q-7 -26 -10.5 -50.5t-1 -43t11 -30t24.5 -12.5q15 -1 33.5 10t37.5 29t38 40.5t35.5 43t29 38.5t19.5 27q87 131 185 213q42 34 90 62t101 39 t109 2t114 -49l-2 -1q-52 33 -102 42t-98 1t-92.5 -30t-84 -51.5t-73.5 -63t-61 -65t-46 -58t-28 -40.5l-2 -4q-2 -2 -3.5 -4t-2.5 -5q-1 -1 -1 -2q-9 -14 -27 -38.5t-41.5 -51.5t-50 -52t-53.5 -39.5t-53 -14t-46 25.5q-23 27 -24 64zM48 499q14 -17 33 -12.5t37.5 20.5 t34.5 41t25 48.5t8 41.5t-15 23q-15 4 -32 -8.5t-34 -36t-31.5 -54.5t-25.5 -63zM147 771l2 12l152 81l-13 -53z" />
<glyph unicode="&#xea;" horiz-adv-x="254" d="M-32 417q-1 37 13.5 76t40.5 75.5t56.5 62t62 36.5t57.5 0q23 -11 25.5 -32t-9 -46.5t-32.5 -50t-46 -41.5t-50 -22t-43 10q-7 -26 -10.5 -50.5t-1 -43t11 -30t24.5 -12.5q15 -1 33.5 10t37.5 29t38 40.5t35.5 43t29 38.5t19.5 27q87 131 185 213q42 34 90 62t101 39 t109 2t114 -49l-2 -1q-52 33 -102 42t-98 1t-92.5 -30t-84 -51.5t-73.5 -63t-61 -65t-46 -58t-28 -40.5l-2 -4q-2 -2 -3.5 -4t-2.5 -5q-1 -1 -1 -2q-9 -14 -27 -38.5t-41.5 -51.5t-50 -52t-53.5 -39.5t-53 -14t-46 25.5q-23 27 -24 64zM48 499q14 -17 33 -12.5t37.5 20.5 t34.5 41t25 48.5t8 41.5t-15 23q-15 4 -32 -8.5t-34 -36t-31.5 -54.5t-25.5 -63zM113 783l121 89h15l52 -85h-42l-37 58l-94 -62h-15z" />
<glyph unicode="&#xeb;" horiz-adv-x="254" d="M-32 417q-1 37 13.5 76t40.5 75.5t56.5 62t62 36.5t57.5 0q23 -11 25.5 -32t-9 -46.5t-32.5 -50t-46 -41.5t-50 -22t-43 10q-7 -26 -10.5 -50.5t-1 -43t11 -30t24.5 -12.5q15 -1 33.5 10t37.5 29t38 40.5t35.5 43t29 38.5t19.5 27q87 131 185 213q42 34 90 62t101 39 t109 2t114 -49l-2 -1q-52 33 -102 42t-98 1t-92.5 -30t-84 -51.5t-73.5 -63t-61 -65t-46 -58t-28 -40.5l-2 -4q-2 -2 -3.5 -4t-2.5 -5q-1 -1 -1 -2q-9 -14 -27 -38.5t-41.5 -51.5t-50 -52t-53.5 -39.5t-53 -14t-46 25.5q-23 27 -24 64zM48 499q14 -17 33 -12.5t37.5 20.5 t34.5 41t25 48.5t8 41.5t-15 23q-15 4 -32 -8.5t-34 -36t-31.5 -54.5t-25.5 -63zM119 813q4 15 15.5 25t24.5 10t20 -10.5t4 -24.5q-4 -15 -16 -24.5t-25 -9.5t-20 10.5t-3 23.5zM222 813q4 15 15.5 25t24.5 10t20 -10.5t4 -24.5q-4 -15 -16 -24.5t-25 -9.5t-20 10.5 t-3 23.5z" />
<glyph unicode="&#xec;" horiz-adv-x="200" d="M-5.5 378.5q1.5 31.5 16.5 88t48 144.5l-57 -97l-6 9l87 148h67q-29 -75 -51 -137q-9 -26 -17.5 -52.5t-14 -48t-7.5 -37t2 -21.5q3 -6 11 -2.5t18.5 13.5t23 24t24.5 31q29 38 63 88l6 -8q-34 -52 -67 -93q-14 -18 -29 -35.5t-29.5 -31.5t-27.5 -23t-23 -10 q-19 -2 -29 8.5t-8.5 42zM92 892l143 -96v-13l-135 55z" />
<glyph unicode="&#xed;" horiz-adv-x="200" d="M-5.5 378.5q1.5 31.5 16.5 88t48 144.5l-57 -97l-6 9l87 148h67q-29 -75 -51 -137q-9 -26 -17.5 -52.5t-14 -48t-7.5 -37t2 -21.5q3 -6 11 -2.5t18.5 13.5t23 24t24.5 31q29 38 63 88l6 -8q-34 -52 -67 -93q-14 -18 -29 -35.5t-29.5 -31.5t-27.5 -23t-23 -10 q-19 -2 -29 8.5t-8.5 42zM110 804l1 12l153 81l-14 -52z" />
<glyph unicode="&#xee;" horiz-adv-x="200" d="M-5.5 378.5q1.5 31.5 16.5 88t48 144.5l-57 -97l-6 9l87 148h67q-29 -75 -51 -137q-9 -26 -17.5 -52.5t-14 -48t-7.5 -37t2 -21.5q3 -6 11 -2.5t18.5 13.5t23 24t24.5 31q29 38 63 88l6 -8q-34 -52 -67 -93q-14 -18 -29 -35.5t-29.5 -31.5t-27.5 -23t-23 -10 q-19 -2 -29 8.5t-8.5 42zM70 816l121 90h15l51 -85h-42l-37 58l-94 -63h-14z" />
<glyph unicode="&#xef;" horiz-adv-x="200" d="M-5.5 378.5q1.5 31.5 16.5 88t48 144.5l-57 -97l-6 9l87 148h67q-29 -75 -51 -137q-9 -26 -17.5 -52.5t-14 -48t-7.5 -37t2 -21.5q3 -6 11 -2.5t18.5 13.5t23 24t24.5 31q29 38 63 88l6 -8q-34 -52 -67 -93q-14 -18 -29 -35.5t-29.5 -31.5t-27.5 -23t-23 -10 q-19 -2 -29 8.5t-8.5 42zM112 880q4 15 16 24.5t25 9.5t20 -10t3 -24q-4 -15 -15.5 -25t-24.5 -10t-20 10.5t-4 24.5zM215 880q4 15 16 24.5t25 9.5t20 -10t3 -24q-4 -15 -15.5 -25t-24.5 -10t-20 10.5t-4 24.5z" />
<glyph unicode="&#xf0;" horiz-adv-x="252" d="M-19.5 432q0.5 31 10.5 67t28 67.5t39.5 55.5t46 37.5t47.5 13.5q29 0 49 -25q7 56 1.5 97t-15.5 73l-53 -41l-15 5l64 48q-13 31 -30 50t-33 29q-18 12 -36 18l1 7q6 1 20.5 -2t32.5 -11.5t37.5 -25.5t35.5 -45l54 41l16 -2l-64 -49q11 -21 18 -49t8.5 -64t-3.5 -81 t-18 -99q-2 -23 -10 -48q-2 -7 -4 -12t-3 -12q13 13 23.5 26t18.5 23q9 12 15 24l8 -4q-9 -16 -20 -30q-10 -13 -24 -29t-30 -30q-12 -28 -29 -51.5t-36.5 -40.5t-39.5 -27t-39 -10q-23 0 -39 13.5t-24.5 37.5t-8 55zM-10.5 435q-0.5 -27 5 -47t17 -32.5t27.5 -12.5 q21 0 45 20.5t43 55.5q-26 -5 -41.5 6t-19 27.5t4 34.5t26.5 26q5 5 14 5t16 -7t7 -16t-7 -16t-16 -7q-12 0 -20 11q-7 -10 -8 -21t3.5 -20t15 -13.5t27.5 -0.5l4 1q14 26 22 55q10 35 12.5 64.5t-2 51t-14.5 34t-26 12.5q-18 0 -36.5 -12t-35 -33t-31 -49.5t-24.5 -60.5 q-8 -29 -8.5 -56z" />
<glyph unicode="&#xf1;" horiz-adv-x="316" d="M-72 328l118 343h67l-33 -94q26 42 56.5 68t56.5 26q17 0 30 -7.5t18 -26.5t0 -52.5t-23 -84.5q-4 -13 -11.5 -31.5t-13 -37t-7.5 -34.5t5 -24q3 -4 10.5 0.5t17 14.5t20 24.5t22.5 29.5q25 37 55 87v-1q2 5 16 28.5t37 56.5t55 72t71 74.5t85 65t96.5 43t105 7 t113.5 -40.5l-2 -2q-56 30 -108.5 35.5t-101.5 -7.5t-93 -40.5t-82.5 -62t-70 -71.5t-55 -70.5t-39 -59t-20.5 -35.5q-32 -55 -64 -97q-14 -18 -28.5 -36t-28.5 -31.5t-27.5 -21.5t-25.5 -8q-11 0 -17.5 7.5t-8.5 19t-0.5 27t4.5 32.5q7 39 23 87q11 30 17.5 56.5t8.5 46.5 t-1.5 31.5t-13.5 11.5q-7 0 -18.5 -8.5t-24.5 -23t-26 -34.5t-25 -43l-73 -209h-66zM85 799q13 14 31 22q16 7 39.5 7.5t54.5 -13.5t51 -16t33 2q15 4 24 14l6 -2q-12 -17 -32 -26q-16 -8 -40.5 -9.5t-58.5 13.5q-35 14 -55.5 16t-31.5 0q-12 -3 -17 -12z" />
<glyph unicode="&#xf2;" horiz-adv-x="265" d="M-22.5 432q-0.5 -31 8 -55t24.5 -37.5t39 -13.5t47 13.5t46 37.5t40 55t28 67t10 67.5t-8 55.5t-24.5 37.5t-39.5 13.5t-46.5 -13.5t-45.5 -37.5t-40 -55.5t-27 -67.5q-11 -36 -11.5 -67zM33 448.5q3 29.5 13 65.5q8 29 21.5 55t29 45t33 30t32.5 11q16 0 27.5 -12 t17 -32t5 -47t-9.5 -56q-10 -33 -24 -61t-31.5 -49t-36 -33t-35.5 -12q-16 0 -26 12t-14.5 33t-1.5 50.5zM90 872l144 -96v-13l-135 55z" />
<glyph unicode="&#xf3;" horiz-adv-x="265" d="M-22.5 432q0.5 31 11.5 67q10 36 27.5 67.5t39.5 55.5t45.5 37.5t46.5 13.5t39.5 -13.5t24.5 -37.5t8 -55.5t-10 -67.5t-28 -67t-40 -55t-46 -37.5t-47 -13.5t-39 13.5t-24.5 37.5t-8 55zM33 449q-3 -30 1.5 -51t14.5 -33t26 -12q17 0 35.5 12t36 33t32 49t23.5 61 q8 29 9 56t-4.5 47t-17 32t-27.5 12t-33 -11t-32.5 -30t-29 -45t-21.5 -55q-10 -35 -13 -65zM98 771l2 12l152 81l-14 -53z" />
<glyph unicode="&#xf4;" horiz-adv-x="265" d="M-22.5 432q0.5 31 11.5 67q10 36 27.5 67.5t39.5 55.5t45.5 37.5t46.5 13.5t39.5 -13.5t24.5 -37.5t8 -55.5t-10 -67.5t-28 -67t-40 -55t-46 -37.5t-47 -13.5t-39 13.5t-24.5 37.5t-8 55zM33 449q-3 -30 1.5 -51t14.5 -33t26 -12q17 0 35.5 12t36 33t32 49t23.5 61 q8 29 9 56t-4.5 47t-17 32t-27.5 12t-33 -11t-32.5 -30t-29 -45t-21.5 -55q-10 -35 -13 -65zM75 783l122 89h14l52 -85h-42l-37 58l-94 -62h-15z" />
<glyph unicode="&#xf5;" horiz-adv-x="265" d="M-22.5 432q-0.5 -31 8 -55t24.5 -37.5t39 -13.5t47 13.5t46 37.5t40 55t28 67t10 67.5t-8 55.5t-24.5 37.5t-39.5 13.5t-46.5 -13.5t-45.5 -37.5t-40 -55.5t-27 -67.5q-11 -36 -11.5 -67zM33 448.5q3 29.5 13 65.5q8 29 21.5 55t29 45t33 30t32.5 11q16 0 27.5 -12 t17 -32t5 -47t-9.5 -56q-10 -33 -24 -61t-31.5 -49t-36 -33t-35.5 -12q-16 0 -26 12t-14.5 33t-1.5 50.5zM50 799q13 14 31 22q16 7 39 7.5t54 -13.5t51.5 -16t33.5 2q15 4 24 14l5 -2q-12 -17 -31 -26q-16 -8 -40.5 -9.5t-59.5 13.5q-35 14 -55 16t-31 0q-12 -3 -17 -12z " />
<glyph unicode="&#xf6;" horiz-adv-x="265" d="M-22.5 432q-0.5 -31 8 -55t24.5 -37.5t39 -13.5t47 13.5t46 37.5t40 55t28 67t10 67.5t-8 55.5t-24.5 37.5t-39.5 13.5t-46.5 -13.5t-45.5 -37.5t-40 -55.5t-27 -67.5q-11 -36 -11.5 -67zM33 448.5q3 29.5 13 65.5q8 29 21.5 55t29 45t33 30t32.5 11q16 0 27.5 -12 t17 -32t5 -47t-9.5 -56q-10 -33 -24 -61t-31.5 -49t-36 -33t-35.5 -12q-16 0 -26 12t-14.5 33t-1.5 50.5zM107 813q4 15 15.5 25t25.5 10q13 0 19.5 -10.5t3.5 -24.5q-4 -15 -15.5 -24.5t-25.5 -9.5q-13 0 -20 10.5t-3 23.5zM211 813q4 15 15.5 25t24.5 10t19.5 -10.5 t3.5 -24.5q-4 -15 -15.5 -24.5t-25.5 -9.5q-13 0 -20 10.5t-2 23.5z" />
<glyph unicode="&#xf7;" horiz-adv-x="209" d="M-1 490h193v11h-193v-11zM25 395q4 15 15.5 24.5t25.5 9.5q13 0 20 -10t3 -24q-4 -15 -15.5 -25t-25.5 -10q-13 0 -19.5 10.5t-3.5 24.5zM89 591q4 15 15.5 25t25.5 10q13 0 20 -10.5t3 -24.5q-4 -15 -15.5 -24.5t-25.5 -9.5q-13 0 -19.5 10.5t-3.5 23.5z" />
<glyph unicode="&#xf8;" horiz-adv-x="265" d="M-83 174l99 162q-27 17 -35.5 61.5t8.5 101.5q10 36 27.5 67.5t39.5 55.5t45.5 37.5t46.5 13.5q18 0 32 -9t23 -23l80 129h11l-86 -139q11 -24 12 -58t-10 -74q-10 -36 -28 -67t-40 -55t-46 -37.5t-47 -13.5q-12 0 -25 6l-97 -158h-10zM32 433.5q-1 -35.5 9 -56.5 l156 255q-13 24 -35 23q-16 0 -33 -11t-32.5 -30t-29 -45t-21.5 -55q-13 -45 -14 -80.5zM46 368q10 -15 29 -15q17 0 35.5 12t36 33t32 49t23.5 61q9 34 9 63t-9 51z" />
<glyph unicode="&#xf9;" horiz-adv-x="308" d="M-30.5 377.5q-3.5 23.5 1 54.5t16.5 68t25.5 68t25.5 54q13 27 25 49h64q-13 -28 -26 -57q-11 -25 -24 -55.5t-22 -58.5q-9 -29 -15.5 -55t-9 -46.5t0.5 -32.5t12 -12q16 0 41 28.5t47 73.5q10 39 28.5 92t46.5 123h67q-29 -75 -51 -137q-9 -26 -17.5 -52.5t-14 -48 t-7.5 -37t2 -21.5q3 -6 10.5 -2.5t16.5 13.5t20 24t22 31q25 38 55 88v-1q2 5 14 25t32.5 50t48 65.5t62 70t74.5 64t84.5 49t94 24.5t100.5 -12l-9 -2q-66 16 -126 0t-112.5 -49.5t-96.5 -79t-77 -88.5t-54.5 -77.5t-28.5 -46.5h1q-31 -52 -60 -93q-12 -18 -26.5 -35.5 t-27.5 -31.5t-25.5 -23t-22.5 -10q-12 -2 -20.5 1.5t-13 15.5t-4 32.5t8.5 51.5q-26 -45 -56 -73t-57 -28q-17 0 -28 13t-14.5 36.5zM112 872l144 -96v-13l-135 55zM468 528l4 -13q43 79 99 148q23 29 51 58.5t60.5 56t68.5 47t76 32.5q-4 2 -8.5 2.5t-8.5 2.5 q-38 -12 -72.5 -33t-65.5 -47t-58 -55t-50 -57q-53 -66 -96 -142zM819 864l15 -5q49 14 101.5 9t109.5 -36l2 2q-61 36 -118 41.5t-110 -11.5zM827 857l7 2q25 -9 54 -25l-2 -2q-31 16 -59 25z" />
<glyph unicode="&#xfa;" horiz-adv-x="308" d="M-30.5 377.5q-3.5 23.5 1 54.5t16.5 68t25.5 68t25.5 54q13 27 25 49h64q-13 -28 -26 -57q-11 -25 -24 -55.5t-22 -58.5q-9 -29 -15.5 -55t-9 -46.5t0.5 -32.5t12 -12q16 0 41 28.5t47 73.5q10 39 28.5 92t46.5 123h67q-29 -75 -51 -137q-9 -26 -17.5 -52.5t-14 -48 t-7.5 -37t2 -21.5q3 -6 10.5 -2.5t16.5 13.5t20 24t22 31q25 38 55 88v-1q2 5 14 25t32.5 50t48 65.5t62 70t74.5 64t84.5 49t94 24.5t100.5 -12l-9 -2q-66 16 -126 0t-112.5 -49.5t-96.5 -79t-77 -88.5t-54.5 -77.5t-28.5 -46.5h1q-31 -52 -60 -93q-12 -18 -26.5 -35.5 t-27.5 -31.5t-25.5 -23t-22.5 -10q-12 -2 -20.5 1.5t-13 15.5t-4 32.5t8.5 51.5q-26 -45 -56 -73t-57 -28q-17 0 -28 13t-14.5 36.5zM129 771l140 40l14 53l-153 -81zM468 528l4 -13q43 79 99 148q23 29 51 58.5t60.5 56t68.5 47t76 32.5q-4 2 -8.5 2.5t-8.5 2.5 q-38 -12 -72.5 -33t-65.5 -47t-58 -55t-50 -57q-53 -66 -96 -142zM819 864l15 -5q49 14 101.5 9t109.5 -36l2 2q-61 36 -118 41.5t-110 -11.5zM827 857l7 2q25 -9 54 -25l-2 -2q-31 16 -59 25z" />
<glyph unicode="&#xfb;" horiz-adv-x="308" d="M-30.5 377.5q-3.5 23.5 1 54.5t16.5 68t25.5 68t25.5 54q13 27 25 49h64q-13 -28 -26 -57q-11 -25 -24 -55.5t-22 -58.5q-9 -29 -15.5 -55t-9 -46.5t0.5 -32.5t12 -12q16 0 41 28.5t47 73.5q10 39 28.5 92t46.5 123h67q-29 -75 -51 -137q-9 -26 -17.5 -52.5t-14 -48 t-7.5 -37t2 -21.5q3 -6 10.5 -2.5t16.5 13.5t20 24t22 31q25 38 55 88v-1q2 5 14 25t32.5 50t48 65.5t62 70t74.5 64t84.5 49t94 24.5t100.5 -12l-9 -2q-66 16 -126 0t-112.5 -49.5t-96.5 -79t-77 -88.5t-54.5 -77.5t-28.5 -46.5h1q-31 -52 -60 -93q-12 -18 -26.5 -35.5 t-27.5 -31.5t-25.5 -23t-22.5 -10q-12 -2 -20.5 1.5t-13 15.5t-4 32.5t8.5 51.5q-26 -45 -56 -73t-57 -28q-17 0 -28 13t-14.5 36.5zM103 783h15l94 62l37 -58h42l-52 85h-15zM468 528l4 -13q43 79 99 148q23 29 51 58.5t60.5 56t68.5 47t76 32.5q-4 2 -8.5 2.5t-8.5 2.5 q-38 -12 -72.5 -33t-65.5 -47t-58 -55t-50 -57q-53 -66 -96 -142zM819 864l15 -5q49 14 101.5 9t109.5 -36l2 2q-61 36 -118 41.5t-110 -11.5zM827 857l7 2q25 -9 54 -25l-2 -2q-31 16 -59 25z" />
<glyph unicode="&#xfc;" horiz-adv-x="308" d="M-30.5 377.5q-3.5 23.5 1 54.5t16.5 68t25.5 68t25.5 54q13 27 25 49h64q-13 -28 -26 -57q-11 -25 -24 -55.5t-22 -58.5q-9 -29 -15.5 -55t-9 -46.5t0.5 -32.5t12 -12q16 0 41 28.5t47 73.5q10 39 28.5 92t46.5 123h67q-29 -75 -51 -137q-9 -26 -17.5 -52.5t-14 -48 t-7.5 -37t2 -21.5q3 -6 10.5 -2.5t16.5 13.5t20 24t22 31q25 38 55 88v-1q2 5 14 25t32.5 50t48 65.5t62 70t74.5 64t84.5 49t94 24.5t100.5 -12l-9 -2q-66 16 -126 0t-112.5 -49.5t-96.5 -79t-77 -88.5t-54.5 -77.5t-28.5 -46.5h1q-31 -52 -60 -93q-12 -18 -26.5 -35.5 t-27.5 -31.5t-25.5 -23t-22.5 -10q-12 -2 -20.5 1.5t-13 15.5t-4 32.5t8.5 51.5q-26 -45 -56 -73t-57 -28q-17 0 -28 13t-14.5 36.5zM120 813q4 15 15.5 25t25.5 10q13 0 19.5 -10.5t3.5 -24.5q-4 -15 -15.5 -24.5t-25.5 -9.5q-13 0 -19.5 10.5t-3.5 23.5zM224 813 q4 15 15.5 25t25.5 10q13 0 19.5 -10.5t3.5 -24.5q-4 -15 -15.5 -24.5t-25.5 -9.5q-13 0 -20 10.5t-3 23.5zM468 528l4 -13q43 79 99 148q23 29 51 58.5t60.5 56t68.5 47t76 32.5q-4 2 -8.5 2.5t-8.5 2.5q-38 -12 -72.5 -33t-65.5 -47t-58 -55t-50 -57q-53 -66 -96 -142z M819 864l15 -5q49 14 101.5 9t109.5 -36l2 2q-61 36 -118 41.5t-110 -11.5zM827 857l7 2q25 -9 54 -25l-2 -2q-31 16 -59 25z" />
<glyph unicode="&#xfd;" horiz-adv-x="303" d="M-156.5 -358q3.5 28 13.5 65t24 78t30 83.5t30 81.5q9 26 24 66l33 88t38.5 102.5t40.5 108.5t40 106t37 98q-20 -34 -43 -68.5t-45 -61.5t-41.5 -44t-32.5 -17q-17 0 -25 13t-8 36.5t7.5 54.5t19.5 68q13 37 26.5 68t25.5 54q13 27 25 49h64q-15 -28 -30 -57 q-12 -25 -25 -55.5t-22 -58.5q-10 -29 -18 -55t-13 -45.5t-5.5 -31t6.5 -11.5t26.5 22.5t43.5 56.5t48 73t40 71q8 21 14 38t11 29q5 15 10 26h66q-16 -38 -42.5 -103t-60 -146.5t-70 -172t-70.5 -180.5t-64.5 -171.5t-51 -144t-28.5 -99.5t2 -37q9 0 39.5 67t82 188 t123 288t164.5 366l9 22q9 23 26.5 58.5t43 79.5t59.5 86t76 79t91.5 59t106 24t120.5 -25l-1 -2q-64 25 -119.5 21.5t-104 -26.5t-89 -59t-73.5 -78q-77 -98 -133 -239l-375 -859q-10 -25 -20 -44q-9 -16 -22 -30t-27 -14q-19 0 -25 16.5t-2.5 44.5zM134 771l140 40l14 53 l-152 -81z" />
<glyph unicode="&#xfe;" horiz-adv-x="274" d="M-210 -146q130 457 252 810q34 100 70 197t72 184.5t71 161t68 124.5t62 76.5t53 17.5q20 -7 23 -31t-6.5 -62.5t-30 -88t-48.5 -106t-61.5 -117.5t-69 -121.5t-71.5 -119.5t-69 -111l-29 -87q25 41 53 65.5t53 24.5q17 0 28 -13.5t14.5 -36.5t-0.5 -54.5t-17 -66.5 q-15 -43 -36.5 -79t-45.5 -60q29 18 55.5 47t48.5 56q25 32 45 65l7 -8q-48 -75 -87.5 -115t-67.5 -57q-33 -20 -59 -21h-3q-22 0 -33.5 20.5t-10.5 55.5q-2 -9 -11.5 -37.5t-22 -69t-28 -88.5t-30.5 -98q-37 -116 -81 -257h-57zM29 436q-5 -37 1.5 -59.5t20.5 -22.5 q9 0 20 11.5t23 31t23.5 46t21.5 57.5q10 30 17 56.5t8.5 46.5t-1 31.5t-12.5 11.5q-7 0 -17.5 -7.5t-22.5 -20.5t-24 -31t-22 -40zM117 705q42 67 86.5 142.5t85.5 150t76 143.5t56 124.5t26.5 93t-11.5 48.5q-15 9 -36.5 -17.5t-48 -77t-56.5 -121t-60 -152t-60.5 -167.5 t-57.5 -167z" />
<glyph unicode="&#xff;" horiz-adv-x="303" d="M-156.5 -358q3.5 28 13.5 65t24 78t30 83.5t30 81.5q9 26 24 66l33 88t38.5 102.5t40.5 108.5t40 106t37 98q-20 -34 -43 -68.5t-45 -61.5t-41.5 -44t-32.5 -17q-17 0 -25 13t-8 36.5t7.5 54.5t19.5 68q13 37 26.5 68t25.5 54q13 27 25 49h64q-15 -28 -30 -57 q-12 -25 -25 -55.5t-22 -58.5q-10 -29 -18 -55t-13 -45.5t-5.5 -31t6.5 -11.5t26.5 22.5t43.5 56.5t48 73t40 71q8 21 14 38t11 29q5 15 10 26h66q-16 -38 -42.5 -103t-60 -146.5t-70 -172t-70.5 -180.5t-64.5 -171.5t-51 -144t-28.5 -99.5t2 -37q9 0 39.5 67t82 188 t123 288t164.5 366l9 22q9 23 26.5 58.5t43 79.5t59.5 86t76 79t91.5 59t106 24t120.5 -25l-1 -2q-64 25 -119.5 21.5t-104 -26.5t-89 -59t-73.5 -78q-77 -98 -133 -239l-375 -859q-10 -25 -20 -44q-9 -16 -22 -30t-27 -14q-19 0 -25 16.5t-2.5 44.5zM124 813q4 15 15.5 25 t24.5 10t20 -10.5t4 -24.5q-4 -15 -16 -24.5t-25 -9.5t-20 10.5t-3 23.5zM227 813q4 15 15.5 25t24.5 10t20 -10.5t4 -24.5q-4 -15 -16 -24.5t-25 -9.5t-20 10.5t-3 23.5z" />
<glyph unicode="&#x152;" horiz-adv-x="1315" d="M-22 400q2 94 22.5 201t58.5 221t90.5 222.5t117.5 205.5t139 171t155.5 119t167.5 49q87 3 137.5 -36t69.5 -110q24 39 59 71.5t81.5 57.5t105 38.5t130.5 13.5q87 0 149 -20.5t101.5 -54t57.5 -76.5t15.5 -87.5t-24.5 -86.5t-61.5 -73.5t-96.5 -49t-129 -13.5 q-64 3 -114.5 20t-93 39t-80.5 46t-78 41q-7 -54 3.5 -105t38.5 -91.5t74.5 -65t110.5 -24.5l3 -8q-93 0 -173 -18.5t-148 -51.5q-11 -29 -22.5 -59t-24.5 -60q28 0 58 6.5t62 20.5q25 11 46.5 25t39.5 31.5t30 37.5t16 43l4 -2q-2 -15 -10 -34t-23.5 -39t-39.5 -40.5 t-59 -36.5q-68 -31 -133 -33q-53 -120 -120 -233.5t-141 -208.5q13 -40 37 -73.5t60 -58t84 -38t109 -13.5q89 0 153.5 18.5t107.5 49t67 68.5t32 79q-29 -16 -64.5 -26t-77.5 -10q-48 0 -82 21t-53 52.5t-21.5 68t13.5 68.5t53.5 53t97.5 21q34 0 65 -16t56.5 -42.5t43 -62 t22.5 -73.5q16 15 27.5 29t19.5 25q9 13 16 25l11 -7q-7 -14 -18 -29q-9 -13 -22.5 -28t-32.5 -31q2 -49 -17 -97.5t-67.5 -87t-130 -62t-202.5 -22.5q-129 1 -211.5 40t-122.5 102q-83 -96 -166 -154t-159 -62q-71 -3 -116 36t-65.5 109.5t-18.5 164.5zM41 436 q-3 -92 13 -161t54.5 -109.5t100.5 -40.5q33 0 68.5 13.5t72 38.5t73.5 61t73 81q-31 56 -34.5 123.5t18 137.5t64.5 138t106 127q-45 25 -78.5 62.5t-52.5 81t-21 91t17 92.5t61 84.5t110 67.5q59 24 109.5 26.5t95.5 -8.5l8 22q-5 46 -18 83.5t-35.5 64t-55.5 41t-77 14.5 q-74 0 -145.5 -40.5t-136.5 -109.5t-122.5 -161.5t-105 -196.5t-83.5 -213.5t-56 -213.5t-23 -196zM535.5 488q-3.5 -57 9.5 -107q66 91 125.5 200t107.5 225q-22 2 -42.5 6.5t-39.5 10.5q-49 -50 -83.5 -106.5t-54 -114t-23 -114.5zM549 1099.5q2 -44.5 17.5 -87.5t44 -80 t66.5 -64q35 29 75 54t84 44q37 114 54 217q-9 34 -9 72t8 76q-42 9 -90.5 5t-109.5 -27q-51 -19 -82.5 -51.5t-45.5 -73t-12 -85zM719 845q16 -7 32.5 -11t35.5 -7q9 24 17.5 47t17.5 47q-29 -16 -54 -35.5t-49 -40.5zM881 982q47 16 97.5 25.5t105.5 9.5q-57 2 -98.5 28 t-67.5 67q-8 -31 -17 -63.5t-20 -66.5zM921.5 496.5q1.5 -33.5 18.5 -62t48 -48t75 -19.5q42 0 76.5 12t63.5 30q5 41 -4.5 80t-28 69.5t-46.5 49t-61 18.5q-50 0 -81.5 -19.5t-46.5 -48t-13.5 -62zM959 1319q43 -19 84.5 -44t85.5 -47t91 -37.5t103 -15.5q53 0 97.5 18.5 t77.5 49t53.5 70t26 80.5t-6.5 79.5t-44 69.5t-84.5 50t-129.5 19q-79 0 -141 -25t-106 -66t-71.5 -93.5t-35.5 -107.5z" />
<glyph unicode="&#x153;" horiz-adv-x="446" d="M-22.5 432q0.5 31 11.5 67q10 36 27.5 67.5t39.5 55.5t45.5 37.5t46.5 13.5q34 0 52 -27t20 -70q19 25 41 45.5t44.5 33.5t45 16.5t41.5 -4.5q23 -11 25 -32t-9.5 -46.5t-32.5 -50t-46 -41.5t-49.5 -22t-42.5 10q-8 -26 -12 -50.5t-1.5 -43t11 -30t25.5 -12.5 q15 -1 33 10t37.5 29t38 40.5t35.5 43t29.5 38.5t19.5 27q86 131 184 213q42 34 90.5 62t101 39t109 2t113.5 -49l-2 -1q-52 33 -102 42t-97.5 1t-92 -30t-84.5 -51.5t-74 -63t-60.5 -65t-45.5 -58t-28 -40.5l-2 -4q-2 -2 -7 -9q-1 -1 -1 -2q-9 -14 -27 -38.5t-41 -51.5 t-50 -52t-54 -39.5t-52 -14t-46 25.5q-18 20 -23 49q-25 -34 -54.5 -55t-58.5 -21q-23 0 -39 13.5t-24.5 37.5t-8 55zM33 449q-3 -30 1.5 -51t14.5 -33t26 -12q21 0 44 17t42 46q-2 35 12 73.5t38 73.5q2 40 -11.5 66t-37.5 26q-16 0 -33 -11t-32.5 -30t-29 -45t-21.5 -55 q-10 -35 -13 -65zM241 499q14 -17 32.5 -12.5t37 20.5t34.5 41t25 48.5t8.5 41.5t-14.5 23q-15 4 -32 -8.5t-34 -36t-32 -54.5t-25 -63z" />
<glyph unicode="&#x178;" horiz-adv-x="898" d="M-176 1068.5q-4 69.5 12 140.5t50.5 138t87 119t120.5 83.5t151 31.5q90 0 147.5 -17t89 -47t41 -72t3 -91.5t-25.5 -104.5t-43 -112q13 -29 11 -64.5t-16.5 -72t-42.5 -71.5t-67 -63q-20 -57 -27.5 -104.5t6 -83.5t52.5 -56t113 -20q66 0 125.5 38t113.5 103t103 150.5 t92.5 180.5t83 193.5t73.5 189.5h69q-72 -211 -159 -422q-37 -90 -80.5 -187.5t-93 -197t-103.5 -195t-110 -179.5q34 -2 69 10.5t73 43.5t79.5 84t88.5 133l6 -7q-48 -85 -91 -140t-83.5 -86t-77 -42t-73.5 -9q-50 -73 -102 -134.5t-104.5 -105.5t-106 -69t-105.5 -25 q-73 0 -125 20.5t-84.5 54t-46 76.5t-10 88t23 88t53.5 76.5t81 54t106 20.5q58 0 108 -14.5t95 -34.5t86 -40.5t81 -32.5q46 73 90.5 154t86.5 166t81 170t74 166q-42 -76 -86.5 -140t-92.5 -110.5t-100 -73t-108 -26.5q-82 0 -132 17.5t-75.5 47.5t-29 72t7.5 91 q-44 -17 -94.5 -23.5t-108.5 0.5q-75 10 -124.5 49t-75.5 96.5t-30 127zM-143.5 1072.5q3.5 -67.5 26 -122.5t64.5 -92t106 -45q61 -9 112.5 -2t95.5 24q10 39 26.5 82t36 87.5t41 89.5t40.5 89q-38 28 -104 28l-1 7q34 0 61 -7t48 -19q22 51 38.5 99t23 90t-0.5 77 t-32 60.5t-71 39.5t-118 14q-78 0 -142 -30.5t-112 -81.5t-80.5 -116.5t-47 -134.5t-11 -136.5zM-42.5 169q-3.5 -43 7 -84t36 -73t67.5 -51.5t101 -19.5q43 0 88 25t91.5 69t93 105.5t93.5 133.5q-41 12 -82 33t-85.5 41t-93.5 34.5t-105 14.5q-47 0 -84 -19.5t-64.5 -51.5 t-43.5 -73t-19.5 -84zM350 886q31 25 53.5 55t35 60.5t15.5 61.5t-4 57q-25 -61 -52 -120t-48 -114zM774 1637q4 15 15.5 24.5t25.5 9.5q13 0 19.5 -10t3.5 -24q-4 -15 -15.5 -25t-25.5 -10q-13 0 -19.5 10.5t-3.5 24.5zM877 1637q4 15 15.5 24.5t25.5 9.5q13 0 19.5 -10 t3.5 -24q-4 -15 -15.5 -25t-25.5 -10q-13 0 -19.5 10.5t-3.5 24.5z" />
<glyph unicode="&#x2c6;" horiz-adv-x="236" d="M29 783l122 89h14l52 -85h-42l-37 58l-95 -62h-14z" />
<glyph unicode="&#x2dc;" horiz-adv-x="220" d="M-11 799q13 14 31 22q16 7 39.5 7.5t54.5 -13.5t51 -16t33 2q15 4 24 14l6 -2q-12 -17 -31 -26q-16 -8 -41 -9.5t-59 13.5q-35 14 -55.5 16t-30.5 0q-12 -3 -18 -12z" />
<glyph unicode="&#x2000;" horiz-adv-x="915" />
<glyph unicode="&#x2001;" horiz-adv-x="1831" />
<glyph unicode="&#x2002;" horiz-adv-x="915" />
<glyph unicode="&#x2003;" horiz-adv-x="1831" />
<glyph unicode="&#x2004;" horiz-adv-x="610" />
<glyph unicode="&#x2005;" horiz-adv-x="457" />
<glyph unicode="&#x2006;" horiz-adv-x="305" />
<glyph unicode="&#x2007;" horiz-adv-x="305" />
<glyph unicode="&#x2008;" horiz-adv-x="228" />
<glyph unicode="&#x2009;" horiz-adv-x="366" />
<glyph unicode="&#x200a;" horiz-adv-x="101" />
<glyph unicode="&#x2010;" horiz-adv-x="228" d="M20 512v11h192v-11h-192z" />
<glyph unicode="&#x2011;" horiz-adv-x="228" d="M20 512v11h192v-11h-192z" />
<glyph unicode="&#x2012;" horiz-adv-x="228" d="M20 512v11h192v-11h-192z" />
<glyph unicode="&#x2013;" horiz-adv-x="288" d="M20 512v11h255v-11h-255z" />
<glyph unicode="&#x2014;" horiz-adv-x="412" d="M20 512v11h368v-11h-368z" />
<glyph unicode="&#x2018;" horiz-adv-x="70" d="M-3 618q5 29 19.5 53.5t29.5 43t27 29.5l12 11q0 1 2.5 -2.5t4.5 -5.5q-24 -21 -36.5 -47t-17.5 -47q13 0 19.5 -10.5t3.5 -24.5q-4 -15 -15.5 -24.5t-25.5 -9.5q-13 0 -20 10t-3 24z" />
<glyph unicode="&#x2019;" horiz-adv-x="95" d="M-8 592q24 21 36 47t18 47q-13 0 -19.5 10.5t-3.5 25.5q4 14 15.5 24t25.5 10q13 0 20 -10.5t3 -24.5q-5 -29 -20 -54t-30 -43.5t-27 -29.5l-12 -10q-1 2 -2 3q-3 3 -4 5z" />
<glyph unicode="&#x201a;" horiz-adv-x="99" d="M-41 237q24 21 36 47t17 47q-12 0 -19 10t-4 24q4 15 16 25t25 10t20 -10.5t3 -24.5q-5 -29 -19 -53t-30 -43q-18 -21 -39 -40q0 -1 -2.5 2.5t-3.5 5.5z" />
<glyph unicode="&#x201c;" horiz-adv-x="181" d="M11 668q5 29 20 53t30 42.5t27 29.5l12 11q0 1 2.5 -2.5t3.5 -5.5q-24 -21 -36 -47t-18 -47q13 0 20 -10t3 -24q-4 -15 -15.5 -25t-25.5 -10q-13 0 -20 10.5t-3 24.5zM85 668q5 29 20 53t30 42.5t27 29.5l12 11q0 1 2.5 -2.5t3.5 -5.5q-24 -21 -36 -47t-18 -47 q13 0 19.5 -10t3.5 -24q-4 -15 -15.5 -25t-25.5 -10q-13 0 -20 10.5t-3 24.5z" />
<glyph unicode="&#x201d;" horiz-adv-x="202" d="M41 641q24 21 36 47t18 48q-13 0 -19.5 10t-3.5 25q4 14 15.5 24t25.5 10q13 0 20 -10.5t3 -24.5q-5 -29 -19.5 -54t-30 -43t-26.5 -29l-12 -11q-1 2 -3 4zM115 641q24 21 36 47t18 48q-13 0 -19.5 10t-3.5 25q4 14 15.5 24t25.5 10q13 0 20 -10.5t3 -24.5 q-5 -29 -20 -54t-30 -43t-27 -29l-12 -11l-2 4z" />
<glyph unicode="&#x201e;" horiz-adv-x="146" d="M-41 237q24 21 36 47t17 47q-12 0 -19 10t-4 24q4 15 16 25t25 10t20 -10.5t3 -24.5q-5 -29 -19 -53t-30 -43q-18 -21 -39 -40q0 -1 -2.5 2.5t-3.5 5.5zM33 237q24 21 36 47t17 47q-12 0 -19 10t-4 24q4 15 16 25t25 10t20 -10.5t3 -24.5q-5 -29 -19.5 -53t-29.5 -43 q-18 -21 -39 -40q0 -1 -2.5 2.5t-3.5 5.5z" />
<glyph unicode="&#x2022;" horiz-adv-x="145" d="M18 583q7 24 26 40t40 16q20 0 31.5 -16.5t5.5 -40.5t-25 -39.5t-40 -15.5t-32.5 16.5t-5.5 39.5z" />
<glyph unicode="&#x2026;" horiz-adv-x="298" d="M-11 365q4 15 16 25t25 10t20 -10.5t3 -24.5q-4 -15 -15.5 -24.5t-24.5 -9.5t-20 10t-4 24zM89 365q4 15 15.5 25t24.5 10t20 -10.5t4 -24.5q-4 -15 -16 -24.5t-25 -9.5t-20 10t-3 24zM188 365q4 15 15.5 25t25.5 10q13 0 19.5 -10.5t3.5 -24.5q-4 -15 -15.5 -24.5 t-25.5 -9.5q-13 0 -20 10t-3 24z" />
<glyph unicode="&#x202f;" horiz-adv-x="366" />
<glyph unicode="&#x2039;" horiz-adv-x="224" d="M20 515l177 113l-2 -14l-156 -101l68 -104l-5 -19z" />
<glyph unicode="&#x203a;" horiz-adv-x="224" d="M20 390l4 13l156 101l-69 105l5 19l82 -127z" />
<glyph unicode="&#x205f;" horiz-adv-x="457" />
<glyph unicode="&#x20ac;" horiz-adv-x="656" d="M-14 569v13h23q2 17 4.5 34.5t6.5 36.5h-14v12h17q20 104 58.5 212.5t90 210.5t115.5 192t136.5 157t152.5 106t163 39q69 0 111 -29t62 -76t19.5 -108t-18.5 -123.5t-52 -123t-79.5 -108t-101.5 -76.5t-119 -29q-51 0 -82 15.5t-46 40.5t-16 57.5t9.5 66.5t30.5 66.5 t46 57.5t56 40.5t61 15.5q35 0 53 -17t26 -36q9 -24 8 -54l-11 -5q3 29 -4 51q-3 10 -8.5 18.5t-14.5 15.5t-22 11.5t-30 4.5q-28 0 -57.5 -25t-53.5 -61.5t-38 -80.5t-11 -81t27 -62t77 -25q48 0 94.5 28t88.5 73t76 103t54.5 118.5t26 118t-10 102.5t-54 73t-105.5 28 q-62 -1 -126.5 -40t-127.5 -105t-122 -154t-110 -188t-91 -206.5t-66 -208.5h256v-12h-259q-4 -19 -7.5 -36.5t-7.5 -34.5h254v-13h-256q-16 -93 -16 -174.5t21 -142t65 -95.5t114 -35q30 0 64.5 17.5t68.5 46.5t67.5 65.5t63.5 74.5q70 89 141 204l9 -8q-72 -116 -145 -208 q-31 -39 -65.5 -76.5t-69.5 -66.5t-69 -47t-65 -18q-79 0 -131.5 36.5t-81.5 99t-36.5 147t4.5 180.5h-21z" />
<glyph unicode="&#x2122;" horiz-adv-x="691" d="M28 604q3 19 13.5 35t27 26.5t35.5 10.5q20 0 29 -9t10.5 -19.5t-4 -19.5t-13.5 -9v1q7 0 12 8.5t3.5 18t-10.5 18t-27 8.5q-20 0 -34 -10.5t-22 -25.5t-8.5 -33t7.5 -33.5t25 -25.5t45 -10q39 0 66 21q-15 16 -15 36.5t10 39t27.5 31.5t38.5 13h4q9 29 17.5 58.5 t19.5 57.5t24.5 52.5t32.5 41.5q-24 4 -46 11t-46 14t-51 12t-61 5q-24 0 -41.5 -11.5t-28 -28t-14 -36.5t0.5 -36.5t16.5 -28t33.5 -11.5q14 0 23.5 5t14.5 12q7 8 11 18l2 1q-4 -11 -12 -20q-7 -7 -16 -13t-24 -6q-22 0 -35.5 12t-19.5 30t-3 38.5t14 38.5t31 30t48 12 q30 0 57.5 -5.5t52.5 -13t48.5 -15t47.5 -11.5q17 16 40 24.5t53 8.5q21 0 28.5 -6.5t1 -13.5t-27.5 -13t-56 -6q-8 0 -16 0.5t-15 1.5q-17 -17 -30 -42t-23 -53t-19 -58t-19 -59q12 -5 17 -14t4.5 -18t-5 -15.5t-12.5 -6.5v1q7 0 11.5 6t4.5 14.5t-5 16.5t-16 12 q-11 -34 -27 -62.5t-39 -47.5q10 -11 25 -17.5t37 -6.5q37 0 64 17t48 45.5t38 65.5t31 77q19 50 34.5 87.5t24.5 59.5q2 7 4 11.5t4 8.5l2 7h19q-29 -76 -45.5 -136.5t-22 -103t-2 -65t11.5 -22.5t21 15t29 39t33.5 54t35 60.5t33.5 57.5t28 46q3 4 5 6.5t4 3.5 q19 24 43 38.5t59 14.5q48 0 68 -19t18.5 -42t-22.5 -42t-56 -19q-23 0 -38.5 6.5t-21.5 16.5t-0.5 20.5t25.5 19.5v-1q-11 -4 -17.5 -14t-4 -20t15 -17.5t40.5 -7.5q33 0 51.5 18t20 39.5t-18 39.5t-63.5 18q-31 0 -53.5 -18t-40 -46.5t-32 -65.5t-30.5 -74 q-16 -39 -26 -74.5t-18 -67.5q15 12 25 23t16 20q7 10 12 19l2 -2q-5 -10 -12 -20q-7 -9 -17 -20.5t-27 -23.5q-8 -31 -15.5 -57.5t-18.5 -45.5t-26.5 -29t-39.5 -10q-25 0 -34.5 12t-5.5 28t18.5 32t38.5 26q20 8 36.5 17.5t30.5 18.5q11 41 21.5 83t24.5 76 q7 19 14.5 37.5t15.5 36.5q-20 -34 -42 -71.5t-42.5 -69t-36.5 -52t-26 -20.5q-20 0 -25.5 23.5t-2 58.5t13.5 77t21 79q-7 -19 -15.5 -39.5t-17.5 -44.5q-15 -39 -31.5 -75.5t-38 -65t-49 -45t-66.5 -16.5q-25 0 -42.5 5.5t-27.5 14.5q-14 -10 -31.5 -15t-38.5 -5 q-35 0 -55 10.5t-28.5 26.5t-5.5 35zM179.5 598q0.5 -19 11.5 -34q20 19 32.5 47t23.5 62h-3q-21 0 -36 -11.5t-22 -28t-6.5 -35.5zM356 887q7 -1 13.5 -1h13.5q33 0 51 4.5t23.5 11t-0.5 11.5t-21 5q-26 0 -45.5 -8.5t-34.5 -22.5zM423 466.5q-4 -15.5 3 -27t29 -11.5 q16 0 28 10t21.5 27.5t17.5 40t15 49.5q-25 -18 -64 -34q-20 -8 -33 -23.5t-17 -31z" />
<glyph unicode="&#xe000;" horiz-adv-x="946" d="M0 0v946h946v-946h-946z" />
<glyph unicode="&#xfb01;" horiz-adv-x="377" d="M-220 -131q142 454 271 804q37 99 74.5 196.5t75 184t73 158.5t67.5 122t60 75t49 16q20 -8 21.5 -35.5t-9.5 -68.5t-33.5 -93.5t-52.5 -112t-65.5 -122.5t-72.5 -126t-74 -122t-70 -111q-16 -44 -30 -87t-29 -86q-6 -25 -6.5 -45t4 -31.5t15.5 -12t28.5 15t42 50 t57.5 91.5v-1l4 7l80 136h25q27 30 60 59.5t70 54t77.5 40.5t83.5 20.5t88.5 -6.5t92.5 -40l-2 -3q-67 40 -131 42t-123 -20.5t-110 -62.5t-92 -84h28q-29 -75 -51 -137q-9 -26 -17.5 -52.5t-14 -48t-7.5 -37t2 -21.5q3 -6 11 -2.5t18.5 13.5t23 24t24.5 31q29 38 62 88 l7 -8q-34 -52 -67 -93q-14 -18 -29 -35.5t-29.5 -31.5t-27.5 -23t-23 -10q-18 -2 -28.5 7.5t-10 38.5t13.5 80t41 129q-16 -21 -26.5 -38t-17.5 -27q-34 -63 -63 -101t-50.5 -51.5t-35 -3.5t-16.5 41q-37 -111 -67.5 -207.5t-53.5 -169.5q-27 -85 -49 -157h-66zM106 670 q43 67 89.5 144.5t90 156t81.5 151.5t61.5 132.5t29.5 100.5t-12 52q-14 9 -35 -15.5t-47.5 -73.5t-57.5 -119.5t-64 -155.5t-67.5 -180t-68.5 -193zM351 899q0 13 9 22.5t23 9.5t23 -9.5t9 -22.5q0 -14 -9.5 -23t-22.5 -9q-14 0 -23 9.5t-9 22.5z" />
<glyph unicode="&#xfb02;" horiz-adv-x="347" d="M-220 -131q142 454 271 804q37 99 74.5 196.5t75 184t73 158.5t67.5 122t60 75t49 16q20 -8 21.5 -35.5t-9.5 -68.5t-33.5 -93.5t-52.5 -112t-65.5 -122.5t-72.5 -126t-74 -122t-70 -111q-16 -44 -30 -87t-29 -86q-6 -24 -7 -44t4 -31.5t15 -12.5t27.5 13.5t41 47 t55.5 87.5q21 61 48.5 134t57 151t61 156t63.5 149.5t62.5 132.5t58 104t51 64t41.5 13q25 -11 22 -53t-25.5 -102.5t-60.5 -136t-83 -156t-94 -160.5t-92 -149q0 -1 -0.5 -1t-0.5 -1q37 41 83.5 80.5t100 65.5t113 33t121.5 -17q56 16 115 8.5t120 -48.5l-2 -2 q-59 37 -114.5 44t-107.5 -6q11 -5 23.5 -11.5t24.5 -13.5l-2 -3q-14 9 -27 15.5t-27 10.5q-45 -12 -86.5 -36.5t-78.5 -54.5t-68 -62.5t-54 -62t-39 -52.5t-23 -34q-38 -57 -65 -94.5t-49.5 -58.5t-41 -30t-39.5 -9q-16 0 -20.5 16t-2 39t8 46.5t10.5 39.5 q-29 -47 -52.5 -73.5t-41.5 -34t-29 3t-14 38.5q-37 -111 -67.5 -207.5t-53.5 -169.5q-27 -85 -49 -157h-66zM106 670q43 67 89.5 144.5t90 156t81.5 151.5t61.5 132.5t29.5 100.5t-12 52q-14 9 -35 -15.5t-47.5 -73.5t-57.5 -119.5t-64 -155.5t-67.5 -180t-68.5 -193z M200 400.5q-1 -11.5 1 -19t9 -10.5q10 -4 27.5 12t36.5 40t36.5 49.5t27.5 41.5q45 71 100 133q24 26 52.5 53t60 51.5t66.5 43.5t73 31q-64 20 -124 9.5t-113.5 -40t-99.5 -71.5t-82 -83q-10 -30 -19.5 -59t-17.5 -55q-16 -40 -24 -73q-4 -14 -6.5 -28t-3.5 -25.5zM293 705 q42 67 87 142.5t86 150t75.5 143.5t55.5 124.5t26 93t-12 48.5q-15 9 -36 -17.5t-47.5 -77t-56 -121t-60 -152t-61 -167.5t-57.5 -167z" />
</font>
</defs>
</svg>
